<svg width="56" height="55" viewBox="0 0 56 55" fill="none" xmlns="http://www.w3.org/2000/svg">
<path d="M27.7647 37.5111C27.1347 36.4711 26.0847 37.1211 22.5647 36.1711C19.0447 35.2211 14.1847 34.2011 13.5847 34.3411C12.9847 34.4811 9.75469 36.7211 9.75469 36.7211L7.77469 39.8911L4.80469 44.4811L5.84469 45.4411C5.84469 45.4411 12.8247 45.6711 17.6147 44.1011C22.4047 42.5311 28.9547 39.4911 27.7547 37.5211L27.7647 37.5111Z" fill="#59A9FC"/>
<path d="M21.3097 43.0702L18.6797 52.2602L19.9897 53.4302L25.3697 51.4702L30.5197 47.5402L34.0297 42.3502L25.9497 40.9902L21.3097 43.0702Z" fill="#59A9FC"/>
<path d="M41.7411 37.6501C41.3511 37.6501 41.1311 37.6301 41.0911 37.6201C40.7411 37.5801 40.5011 37.2701 40.5411 36.9201C40.5811 36.5701 40.9011 36.3201 41.2411 36.3701C41.2711 36.3701 44.4311 36.7001 48.7411 34.3801C49.3511 34.0501 50.2311 33.9301 51.1611 33.8001C51.7011 33.7201 52.2611 33.6501 52.7311 33.5301C53.6211 33.3001 53.7811 33.0501 53.8011 33.0001C54.5011 31.4801 46.5011 23.9901 37.0211 17.3001C30.2011 12.4901 10.4811 1.29013 10.2811 1.18013C9.98107 1.01013 9.87107 0.620134 10.0411 0.320134C10.2111 0.0201344 10.6011 -0.0898673 10.9011 0.0801327C11.1011 0.190133 30.8811 11.4201 37.7511 16.2701C38.5211 16.8201 56.7111 29.7101 54.9511 33.5301C54.6911 34.1001 54.0911 34.4901 53.0511 34.7501C52.5211 34.8901 51.9211 34.9701 51.3411 35.0501C50.5611 35.1601 49.7611 35.2701 49.3511 35.4901C45.8011 37.4001 42.9711 37.6501 41.7511 37.6501H41.7411Z" fill="black"/>
<path d="M7.75465 46.27C6.45465 46.27 5.52465 46.08 4.95465 45.71C4.52465 45.43 4.26465 45.04 4.19465 44.57C4.00465 43.35 5.03465 42.17 6.11465 40.93C6.71465 40.24 7.33465 39.53 7.64465 38.9C9.68465 34.79 12.4147 33.11 15.9947 33.76C17.2747 33.99 18.4447 34.36 19.5847 34.71C20.8047 35.09 21.9647 35.45 23.1447 35.62C25.3547 35.92 26.1347 35.87 26.1447 35.87C26.4747 35.85 26.7947 36.1 26.8247 36.44C26.8547 36.78 26.6047 37.09 26.2547 37.12C26.1647 37.12 25.3347 37.19 22.9747 36.87C21.6847 36.69 20.4847 36.32 19.2047 35.92C18.1047 35.58 16.9647 35.22 15.7647 35C12.7747 34.46 10.5547 35.87 8.77465 39.46C8.38465 40.24 7.71465 41.01 7.06465 41.76C6.25465 42.69 5.33465 43.74 5.43465 44.38C5.44465 44.46 5.48465 44.55 5.64465 44.66C6.87465 45.47 11.5447 44.91 18.1447 43.18C23.1147 41.88 25.6147 40.46 25.6447 40.45L25.8647 40.32L26.1147 40.39C26.1147 40.39 27.3847 40.73 29.4047 41.13C31.7147 41.6 36.9347 42.16 41.0947 41.67C44.9647 41.22 53.3447 36.56 54.1947 35.52C54.1447 35.25 53.5647 34.86 53.1447 34.71C52.8147 34.59 52.6547 34.22 52.7747 33.9C52.8947 33.57 53.2647 33.41 53.5847 33.53C53.8047 33.61 55.6847 34.37 55.4347 35.8C55.1547 37.42 45.0647 42.47 41.2347 42.92C36.9247 43.42 31.5347 42.84 29.1447 42.36C27.5847 42.04 26.4947 41.78 26.0247 41.66C25.2847 42.05 22.7947 43.25 18.4547 44.39C13.7047 45.64 10.1147 46.26 7.74465 46.26L7.75465 46.27Z" fill="black"/>
<path d="M41.5315 33.9603C40.6515 33.9603 39.8115 33.6603 39.1215 33.1003C38.3215 32.4503 37.8315 31.5303 37.7215 30.5203C37.6115 29.5003 37.9115 28.5003 38.5615 27.7103C39.2115 26.9103 40.1215 26.4203 41.1415 26.3103C42.1615 26.2103 43.1615 26.5003 43.9515 27.1503C45.5915 28.4903 45.8415 30.9103 44.5115 32.5503C43.8615 33.3503 42.9415 33.8403 41.9215 33.9503C41.7915 33.9603 41.6515 33.9703 41.5215 33.9703L41.5315 33.9603ZM41.5415 27.4903C41.4515 27.4903 41.3615 27.4903 41.2615 27.5003C40.5615 27.5703 39.9315 27.9103 39.4915 28.4603C39.0515 29.0103 38.8415 29.6903 38.9115 30.3903C38.9815 31.0903 39.3215 31.7203 39.8715 32.1603C40.4215 32.6003 41.1015 32.8103 41.8015 32.7403C42.5015 32.6703 43.1315 32.3303 43.5715 31.7803C44.4915 30.6503 44.3215 28.9903 43.1915 28.0703C42.7215 27.6803 42.1415 27.4803 41.5315 27.4803L41.5415 27.4903Z" fill="black"/>
<path d="M13.3611 41.97C12.4711 41.97 11.7611 41.9 11.1411 41.85C10.8611 41.82 10.5911 41.8 10.3411 41.78C9.99108 41.76 9.73108 41.46 9.75108 41.11C9.77108 40.76 10.0711 40.5 10.4211 40.52C10.6911 40.54 10.9711 40.56 11.2711 40.59C12.3511 40.69 13.6911 40.81 15.8711 40.54C17.9111 40.28 18.9411 39.9 20.4911 39.32L20.5811 39.28C20.9111 39.16 21.2711 39.32 21.3911 39.65C21.5111 39.98 21.3511 40.34 21.0211 40.46L20.9311 40.5C19.3511 41.09 18.2211 41.52 16.0311 41.79C14.9811 41.92 14.1211 41.97 13.3811 41.97H13.3611Z" fill="black"/>
<path d="M16.7892 39.01C16.4892 39.01 16.1892 39.01 15.8892 38.99C14.8292 38.94 13.7592 38.79 12.7292 38.54C12.3892 38.46 12.1792 38.12 12.2592 37.78C12.3392 37.44 12.6792 37.23 13.0192 37.31C13.9792 37.54 14.9692 37.68 15.9592 37.73C16.7192 37.77 17.4892 37.75 18.2492 37.69C18.5992 37.64 18.8992 37.91 18.9292 38.26C18.9592 38.61 18.7092 38.91 18.3592 38.94C17.8392 38.99 17.3192 39.01 16.7892 39.01Z" fill="black"/>
<path d="M27.0011 33.1708C26.6511 33.1708 26.3711 32.8908 26.3711 32.5408C26.3711 31.6308 26.5111 28.4408 28.5611 25.3508C30.5311 22.3908 32.9211 21.4708 33.8511 21.2208C34.1911 21.1308 34.5311 21.3308 34.6211 21.6608C34.7111 22.0008 34.5111 22.3408 34.1811 22.4308C33.5611 22.6008 31.3911 23.3608 29.6111 26.0408C27.7511 28.8308 27.6211 31.7108 27.6311 32.5308C27.6311 32.8808 27.3511 33.1608 27.0011 33.1608V33.1708Z" fill="black"/>
<path d="M11.662 35.7202C11.592 35.7202 11.522 35.7102 11.452 35.6802C11.112 35.5602 2.99197 32.6902 0.141975 29.1902C-0.0780253 28.9202 -0.0380253 28.5202 0.231975 28.3002C0.501975 28.0802 0.901975 28.1202 1.12197 28.3902C3.74197 31.6102 11.782 34.4502 11.862 34.4802C12.192 34.5902 12.362 34.9502 12.252 35.2802C12.162 35.5402 11.922 35.7002 11.652 35.7002L11.662 35.7202Z" fill="black"/>
<path d="M20.3007 54.0307C19.7507 54.0307 19.2507 53.9107 18.8607 53.6107C17.6107 52.6707 18.0807 51.3607 18.5807 49.9807C18.7907 49.4007 19.0307 48.7407 19.2107 47.9907C19.8807 45.2607 20.3707 44.5107 20.4607 44.3907C20.6607 44.1207 21.0407 44.0707 21.3007 44.2707C21.5707 44.4707 21.6207 44.8507 21.4207 45.1107C21.4207 45.1107 20.9907 45.7807 20.3707 48.2807C20.1707 49.0907 19.9207 49.7807 19.7007 50.3907C19.1707 51.8707 19.0807 52.2807 19.5707 52.6507C20.3907 53.2707 23.0207 52.3307 25.9907 50.3607C30.3307 47.4807 33.3507 42.5807 33.3807 42.5307C33.5507 42.2507 33.9206 42.1507 34.2106 42.3307C34.4907 42.5007 34.5807 42.8707 34.4107 43.1607C34.2807 43.3707 31.2207 48.3407 26.6607 51.3707C25.3007 52.2807 22.3707 54.0407 20.2907 54.0407L20.3007 54.0307Z" fill="black"/>
<path d="M22.9807 50.0409C22.7707 50.0409 22.5607 49.9309 22.4507 49.7309C22.2907 49.4409 22.3907 49.0709 22.6907 48.9109C22.7207 48.8909 25.9007 47.1109 28.1007 44.3809C28.3107 44.1209 28.6907 44.0809 28.9507 44.2909C29.2107 44.5009 29.2507 44.8809 29.0407 45.1409C26.6907 48.0709 23.4107 49.9009 23.2707 49.9709C23.1807 50.0209 23.0807 50.0509 22.9807 50.0509V50.0409Z" fill="black"/>
<path d="M23.8703 46.0295C23.6203 46.0295 23.3903 45.8795 23.3003 45.6295C23.1903 45.3195 23.3503 44.9695 23.6603 44.8595C23.6803 44.8595 25.2303 44.2795 26.1503 43.5995C26.4203 43.3995 26.7903 43.4595 26.9903 43.7195C27.1903 43.9895 27.1303 44.3595 26.8703 44.5595C25.8103 45.3495 24.1403 45.9595 24.0703 45.9895C24.0003 46.0095 23.9303 46.0295 23.8603 46.0295H23.8703Z" fill="black"/>
<path d="M42.5844 30.2106C42.3244 30.3606 41.9944 30.2706 41.8444 30.0106C41.6944 29.7506 41.7844 29.4206 42.0444 29.2706L42.8144 28.8306C42.8144 28.8306 42.7344 28.7506 42.6944 28.7106C41.9144 28.0806 40.7744 28.1906 40.1344 28.9706C39.5044 29.7506 39.6144 30.8906 40.3944 31.5306C41.1744 32.1606 42.3144 32.0506 42.9544 31.2706C43.3044 30.8406 43.4144 30.2906 43.3244 29.7806L42.5844 30.2106Z" fill="black"/>
<path d="M16.0703 22.5708C15.9103 22.5708 15.7603 22.5108 15.6303 22.3908C14.4703 21.2808 14.1603 19.5208 14.8703 18.1208C15.6703 16.5708 17.4803 15.8108 19.1903 16.3308C19.5203 16.4308 19.7103 16.7808 19.6103 17.1208C19.5103 17.4508 19.1603 17.6408 18.8203 17.5408C17.7203 17.2108 16.5003 17.7008 15.9903 18.7008C15.5203 19.6108 15.7303 20.7608 16.5003 21.4908C16.7503 21.7308 16.7603 22.1308 16.5203 22.3808C16.4003 22.5108 16.2303 22.5708 16.0703 22.5708Z" fill="black"/>
<path d="M15.8047 27.6207C15.6447 27.6207 15.4947 27.5607 15.3647 27.4407C14.2047 26.3307 13.8947 24.5707 14.6047 23.1707C15.4047 21.6107 17.2147 20.8607 18.9247 21.3807C19.2547 21.4807 19.4447 21.8307 19.3447 22.1707C19.2447 22.5007 18.8947 22.6907 18.5547 22.5907C17.4447 22.2607 16.2347 22.7507 15.7247 23.7507C15.2547 24.6607 15.4647 25.8107 16.2347 26.5407C16.4847 26.7807 16.4947 27.1807 16.2547 27.4307C16.1347 27.5607 15.9647 27.6207 15.7947 27.6207H15.8047Z" fill="black"/>
<path d="M21.6328 27.6207C21.4728 27.6207 21.3228 27.5607 21.1928 27.4407C20.0328 26.3307 19.7228 24.5707 20.4328 23.1707C21.2228 21.6107 23.0428 20.8607 24.7528 21.3807C25.0828 21.4807 25.2728 21.8307 25.1728 22.1707C25.0728 22.5007 24.7128 22.6907 24.3828 22.5907C23.2828 22.2607 22.0628 22.7507 21.5528 23.7407C21.0828 24.6507 21.2928 25.8007 22.0628 26.5307C22.3128 26.7707 22.3228 27.1707 22.0828 27.4207C21.9628 27.5507 21.7928 27.6107 21.6228 27.6107L21.6328 27.6207Z" fill="black"/>
<path d="M13.6914 17.4293C13.5314 17.4293 13.3814 17.3693 13.2514 17.2493C12.0914 16.1393 11.7814 14.3793 12.4914 12.9793C13.2914 11.4193 15.1014 10.6693 16.8114 11.1893C17.1414 11.2893 17.3314 11.6393 17.2314 11.9793C17.1314 12.3093 16.7814 12.4993 16.4414 12.3993C15.3414 12.0693 14.1214 12.5593 13.6114 13.5593C13.1414 14.4693 13.3514 15.6193 14.1214 16.3493C14.3714 16.5893 14.3814 16.9893 14.1414 17.2393C14.0214 17.3693 13.8514 17.4293 13.6914 17.4293Z" fill="black"/>
<path d="M7.09379 17.8794C6.93379 17.8794 6.78378 17.8194 6.65378 17.6994C5.49379 16.5894 5.18378 14.8294 5.89378 13.4294C6.69378 11.8794 8.50379 11.1194 10.2138 11.6394C10.5438 11.7394 10.7338 12.0894 10.6338 12.4294C10.5338 12.7594 10.1838 12.9494 9.84379 12.8494C8.74379 12.5194 7.52379 13.0094 7.01379 14.0094C6.54379 14.9194 6.75378 16.0694 7.52378 16.7994C7.77378 17.0394 7.78378 17.4394 7.54378 17.6894C7.42378 17.8194 7.25379 17.8794 7.09379 17.8794Z" fill="black"/>
<path d="M9.80472 26.1509C9.64472 26.1509 9.49472 26.0909 9.36472 25.9709C8.20472 24.8609 7.89472 23.1009 8.60472 21.7009C9.40472 20.1509 11.2147 19.3909 12.9247 19.9109C13.2547 20.0109 13.4447 20.3609 13.3447 20.7009C13.2447 21.0309 12.8947 21.2208 12.5547 21.1208C11.4547 20.7908 10.2347 21.2809 9.72472 22.2809C9.25472 23.1909 9.46472 24.3409 10.2347 25.0709C10.4847 25.3109 10.4947 25.7109 10.2547 25.9609C10.1347 26.0909 9.96472 26.1509 9.80472 26.1509Z" fill="black"/>
</svg>
