<svg width="45" height="47" viewBox="0 0 45 47" fill="none" xmlns="http://www.w3.org/2000/svg">
<path d="M16.0708 12.0864L16.1708 6.97641L18.6508 1.46641L20.1708 1.06641L20.9008 5.68641L21.5708 8.95641C21.5708 8.95641 20.5308 9.27641 18.8108 10.2864C17.2908 11.1764 16.0508 12.0864 16.0508 12.0864H16.0708Z" fill="#59A9FC"/>
<path d="M4.9075 26.2854C4.9075 26.2854 7.04749 29.7154 8.48749 30.0854C9.92749 30.4554 12.9775 29.1354 14.1275 30.0854C15.2775 31.0354 15.8375 32.2454 15.7675 33.2454C15.6975 34.2454 13.4175 37.8854 11.9575 36.6654C10.2575 35.2354 10.0575 33.8954 9.20749 33.6454C8.35749 33.3954 7.7875 34.1954 6.6675 34.2454C6.1075 34.2754 3.9375 33.9254 3.9375 33.9254L4.9175 26.2754L4.9075 26.2854Z" fill="#59A9FC"/>
<path d="M25.3291 7.56508C25.3291 7.56508 24.7491 8.94508 25.1291 9.36508C25.5091 9.78508 27.3591 9.81508 28.4791 9.27508C29.1891 8.93508 29.5791 5.70508 29.5791 5.70508L25.3291 7.56508Z" fill="#59A9FC"/>
<path d="M15.469 44.7856C14.799 44.7856 14.139 44.6956 13.539 44.4456C11.709 43.7056 10.809 42.1256 10.449 41.2856C9.02902 41.5556 6.66902 41.4256 5.11902 39.3956C3.04902 36.6856 2.41902 30.4056 5.20902 23.6356C8.25902 16.2356 13.689 12.2656 15.019 11.3756C15.019 10.3956 15.129 7.53559 16.269 4.51559C17.109 2.28559 18.179 0.98559 18.939 0.29559C19.259 0.00558963 19.709 -0.0844095 20.109 0.0855905C20.509 0.245591 20.769 0.61559 20.789 1.04559C20.829 1.96559 20.929 3.66559 21.129 4.74559C21.419 6.37559 22.029 8.54559 22.039 8.56559C22.129 8.88559 21.939 9.21559 21.619 9.30559C21.299 9.39559 20.969 9.20559 20.879 8.88559C20.849 8.79559 20.249 6.63559 19.949 4.94559C19.769 3.92559 19.659 2.45559 19.609 1.31559C18.969 1.95559 18.109 3.07559 17.419 4.91559C16.129 8.34559 16.249 11.6256 16.249 11.6556L16.269 12.0056L15.969 12.1956C15.909 12.2356 9.60902 16.1656 6.34902 24.0756C3.72902 30.4256 4.23902 36.2156 6.09902 38.6456C7.79902 40.8756 10.539 40.0156 10.659 39.9856L11.259 39.7956L11.429 40.3956C11.429 40.3956 12.059 42.5256 14.019 43.3156C14.659 43.5756 15.429 43.6056 16.189 43.5256C15.719 43.4256 15.219 43.2956 14.709 43.0956C12.399 42.2356 12.239 40.0656 12.229 39.9656L12.199 39.5456L12.579 39.3756C12.579 39.3756 16.979 37.3556 18.779 33.3056C18.959 32.9056 19.109 32.4956 19.219 32.0856C19.309 31.7656 19.639 31.5756 19.959 31.6656C20.279 31.7556 20.469 32.0856 20.379 32.4056C20.249 32.8756 20.079 33.3356 19.879 33.7956C18.219 37.5356 14.729 39.6256 13.499 40.2656C13.639 40.7456 14.039 41.5656 15.119 41.9656C16.679 42.5456 17.969 42.5556 19.049 42.5156C19.419 42.4956 19.729 42.7556 19.799 43.1156C19.869 43.5056 19.669 43.8756 19.299 44.0056C18.389 44.3356 16.919 44.7556 15.489 44.7556L15.469 44.7856Z" fill="black"/>
<path d="M20.1492 29.5964C19.8192 29.5964 19.5492 29.3364 19.5492 29.0064C19.5392 28.3164 19.4892 27.6164 19.4492 26.8864C19.3092 24.6564 19.1592 22.1164 19.7692 19.1564C19.8392 18.8264 20.1492 18.6264 20.4792 18.6864C20.8092 18.7564 21.0192 19.0764 20.9492 19.3964C20.3692 22.1964 20.5192 24.6464 20.6492 26.8064C20.6992 27.5564 20.7392 28.2764 20.7492 28.9764C20.7492 29.3064 20.4892 29.5864 20.1592 29.5964H20.1492Z" fill="black"/>
<path d="M20.3471 19.8863C20.3471 19.8863 20.2871 19.8863 20.2571 19.8863C19.9271 19.8363 19.7071 19.5263 19.7571 19.1963C19.7771 19.0363 20.3971 15.2563 23.7771 12.9663C25.7871 11.5963 27.2071 10.6463 28.4071 11.0863C28.8671 11.2563 29.6071 11.9563 31.1071 13.4063C32.8071 15.0463 35.1271 17.2963 36.4071 17.8063C38.5171 18.6363 41.8271 18.6163 42.1871 18.1063C42.0971 17.2863 40.3671 14.7763 38.8071 13.2863C37.3871 11.9163 34.2771 10.0563 33.9271 9.85634L33.6171 9.67634V9.27634C33.6171 9.03634 33.7571 8.82635 33.9671 8.72635C34.1071 8.65635 34.3771 8.55634 34.7371 8.42634C35.9271 7.99634 38.1271 7.18635 39.3071 6.19635C39.5171 6.01635 39.7471 5.82635 39.9871 5.62635C40.9071 4.86635 43.0371 3.11634 43.1271 2.49634C42.4671 1.93634 38.7971 1.17634 34.2571 3.28634C32.9671 3.88634 31.8671 4.66634 30.8971 5.35634C29.8471 6.10634 28.9371 6.74635 27.9771 7.07634C26.1671 7.68635 25.3171 8.00635 23.8071 8.65635C23.5071 8.78635 23.1471 8.65635 23.0171 8.34635C22.8871 8.03635 23.0171 7.68635 23.3271 7.55635C24.8671 6.88635 25.7771 6.54635 27.5871 5.93635C28.3871 5.66635 29.2271 5.06635 30.2071 4.37635C31.2271 3.65635 32.3771 2.84635 33.7571 2.19635C38.6871 -0.0936522 42.9971 0.636346 44.0371 1.68635C44.2571 1.90635 44.3671 2.19635 44.3471 2.51635C44.2871 3.57635 42.8271 4.85635 40.7671 6.55635C40.5271 6.75635 40.2971 6.93635 40.0871 7.11635C38.8671 8.13635 36.8271 8.93635 35.5171 9.41635C36.6971 10.1563 38.5571 11.3863 39.6271 12.4163C41.0671 13.7963 43.2271 16.5963 43.3571 18.0463C43.3971 18.4563 43.2171 18.8363 42.8571 19.1063C41.5871 20.0563 37.7871 19.6563 35.9471 18.9263C34.4471 18.3363 32.1271 16.0863 30.2571 14.2763C29.3671 13.4163 28.2571 12.3463 27.9771 12.2163C27.3671 11.9863 25.9771 12.9363 24.5071 13.9363C21.5071 15.9763 20.9571 19.3563 20.9471 19.3963C20.8971 19.6963 20.6471 19.9063 20.3471 19.9063V19.8863Z" fill="black"/>
<path d="M11.5217 46.7752L10.9517 46.6252C10.8917 46.6052 10.7917 46.5852 10.6717 46.5552C9.67172 46.3052 7.00172 45.6452 5.75172 43.1952C4.83172 41.4052 5.26172 39.3152 5.28172 39.2352C5.35172 38.9152 5.67172 38.7052 5.99172 38.7752C6.31172 38.8452 6.52172 39.1652 6.45172 39.4852C6.45172 39.5052 6.09172 41.2452 6.81172 42.6452C7.17172 43.3552 7.69173 43.8752 8.25172 44.2652C8.02172 43.9552 7.81172 43.6052 7.64172 43.2252C6.97172 41.7352 7.32173 40.5252 7.33173 40.4752C7.42173 40.1552 7.76173 39.9752 8.08173 40.0652C8.40173 40.1652 8.58172 40.4952 8.49172 40.8152C8.49172 40.8452 8.26172 41.6652 8.74172 42.7252C9.40172 44.1952 10.7517 45.0352 11.3317 45.3852L11.9317 45.7652L11.7417 46.2852L11.5217 46.7652V46.7752Z" fill="black"/>
<path d="M21.9805 33.0358C20.8605 33.0358 20.0505 32.9558 19.9605 32.9458C19.6305 32.9158 19.3905 32.6158 19.4205 32.2858C19.4505 31.9558 19.7405 31.7058 20.0805 31.7458C20.1305 31.7458 25.2905 32.2458 27.4705 30.6958C28.9005 29.6758 29.9005 27.6458 30.4005 26.3858L20.3505 30.0958C20.0405 30.2158 19.6905 30.0558 19.5805 29.7358C19.4605 29.4258 19.6205 29.0758 19.9405 28.9658L30.6105 25.0258C30.9405 24.9058 31.3105 24.9858 31.5605 25.2258C31.8105 25.4758 31.8905 25.8358 31.7805 26.1658C31.2505 27.6358 30.0905 30.3158 28.1805 31.6758C26.5905 32.8158 23.8605 33.0358 21.9905 33.0358H21.9805Z" fill="black"/>
<path d="M3.28 31.0362C3.1 31.0362 2.93 30.9562 2.81 30.8062C2.75 30.7362 1.39999 29.0262 0.679993 26.4262C0.149993 24.5262 0.03 22.1462 0 20.8962C0 20.5462 0.210003 20.2362 0.550003 20.1362C0.870003 20.0362 1.19999 20.1462 1.39999 20.4062L5.19 24.7362C5.41 24.9862 5.37999 25.3662 5.12999 25.5862C4.87999 25.8062 4.5 25.7762 4.28 25.5262L1.25999 22.0762C1.32999 23.2362 1.49 24.8162 1.84 26.0962C2.49 28.4462 3.74 30.0362 3.75 30.0462C3.96 30.3062 3.92 30.6862 3.66 30.8962C3.55 30.9862 3.42 31.0262 3.28 31.0262V31.0362Z" fill="black"/>
<path d="M12.5259 34.8043C12.7159 35.0443 13.5459 34.9743 13.9259 34.3843C14.3059 33.7843 14.0259 33.0043 13.7259 32.9243C13.2459 32.8043 12.2159 34.4143 12.5259 34.8043Z" fill="black"/>
<path d="M12.9083 35.5348C12.5383 35.5348 12.2483 35.4148 12.0583 35.1848C11.6183 34.6448 12.0382 33.8048 12.3182 33.3648C12.6082 32.9148 13.1883 32.1848 13.8683 32.3448C14.1783 32.4148 14.4383 32.6748 14.5883 33.0548C14.7583 33.4848 14.8083 34.1448 14.4383 34.7148C14.0683 35.2848 13.4483 35.5148 12.9983 35.5348C12.9683 35.5348 12.9383 35.5348 12.9083 35.5348ZM13.5083 33.7548C13.3883 33.9048 13.2683 34.0848 13.1883 34.2548C13.2783 34.2148 13.3583 34.1448 13.4183 34.0548C13.4783 33.9548 13.5083 33.8548 13.5083 33.7548Z" fill="black"/>
</svg>
