<svg width="43" height="46" viewBox="0 0 43 46" fill="none" xmlns="http://www.w3.org/2000/svg">
<path d="M3.07532 34.2434C3.07532 34.2434 4.95531 34.8434 6.44531 34.5234C7.93531 34.2034 10.3253 32.9034 10.3253 32.9034L10.8553 31.0934L11.9853 29.8134L12.6653 27.9934L11.4853 25.6534L7.30531 24.9034L5.59531 23.9434L3.27531 24.3934L1.77531 25.8934L1.0153 27.6334L1.64531 30.2234L0.935318 30.6934L0.695312 31.6034L1.38531 33.4034L3.08531 34.2334L3.07532 34.2434Z" fill="#59A9FC"/>
<path d="M8.98203 39.0341C9.47908 39.0341 9.88203 38.6312 9.88203 38.1341C9.88203 37.6371 9.47908 37.2341 8.98203 37.2341C8.48497 37.2341 8.08203 37.6371 8.08203 38.1341C8.08203 38.6312 8.48497 39.0341 8.98203 39.0341Z" fill="black"/>
<path d="M8.99205 39.7042C8.93205 39.7042 8.87205 39.7042 8.82205 39.7042C8.40205 39.6542 8.03204 39.4542 7.76204 39.1242C7.49204 38.7942 7.38204 38.3842 7.42204 37.9642C7.47204 37.5442 7.67204 37.1742 8.00204 36.9042C8.33204 36.6442 8.74204 36.5242 9.16204 36.5642C9.58204 36.6142 9.95204 36.8142 10.222 37.1442C10.492 37.4742 10.602 37.8842 10.562 38.3042C10.512 38.7242 10.312 39.0942 9.98204 39.3642C9.70204 39.5942 9.35204 39.7142 9.00204 39.7142L8.99205 39.7042ZM8.99205 37.9042C8.88205 37.9042 8.78205 37.9842 8.77205 38.1042C8.76205 38.2242 8.84204 38.3342 8.97204 38.3442C9.10204 38.3542 9.20205 38.2742 9.21205 38.1442C9.22205 38.0242 9.14204 37.9142 9.01204 37.9042H8.99205Z" fill="black"/>
<path d="M22.7427 28.7034C22.3727 28.7034 22.0727 28.4034 22.0627 28.0334C22.0627 27.9234 22.0727 26.9034 22.8427 26.3134C23.3627 25.9134 24.0327 25.8334 24.8627 26.0534L25.3027 26.1734C27.2527 26.7134 29.9127 27.4534 33.5027 26.6234C39.3127 25.2734 41.3427 19.3434 41.5327 17.9434C41.5827 17.5534 41.5327 17.2934 41.3927 17.1734C41.2627 17.0634 40.6927 16.7534 38.7727 17.3434C38.5627 17.4034 38.4027 17.4734 38.2527 17.5334C37.4427 17.8634 36.9127 18.0134 34.6427 17.4834C30.4027 16.4934 29.0027 17.0434 27.8827 17.4834C27.3427 17.6934 26.8426 17.8934 26.1526 17.8934C25.9126 17.8734 25.2627 17.8934 24.9327 17.4034C24.5927 16.9134 24.8027 16.3634 25.0727 15.6734C25.3927 14.8534 25.8627 13.6034 25.7427 11.8534C25.5627 9.18337 23.6227 6.31337 23.6027 6.28337L23.4527 6.05337L23.5027 5.78337C23.8127 3.99337 23.8027 1.73337 23.3027 1.36337C23.2427 1.33337 22.9427 1.29337 22.3227 1.51337C20.6027 2.14337 17.5427 4.50338 16.1427 8.41337C14.9827 11.6634 15.9027 16.0134 16.5727 19.1934C17.0427 21.4334 17.2627 22.5434 16.9827 23.2434C16.3527 24.8034 15.3127 25.2334 13.4327 26.0134C13.1427 26.1334 12.8227 26.2634 12.4827 26.4134C12.4527 26.4234 12.4227 26.4434 12.3927 26.4534L12.3527 26.4734C12.0227 26.6434 11.6127 26.5134 11.4427 26.1834C11.3827 26.0734 11.3627 25.9634 11.3727 25.8534L11.2227 25.5134L12.4827 24.9234L12.5027 24.9534C12.6527 24.8934 12.7927 24.8334 12.9327 24.7734C14.8327 23.9834 15.3427 23.7334 15.7427 22.7434C15.8827 22.3834 15.5426 20.7734 15.2626 19.4834C14.5626 16.1534 13.6027 11.5834 14.8827 7.97337C16.3327 3.90337 19.7127 0.903374 22.1427 0.163374C23.1927 -0.156626 23.7927 0.0533745 24.1127 0.283374C25.4427 1.25337 25.1027 4.44337 24.8927 5.76337C25.3927 6.55337 26.9327 9.16338 27.1127 11.7634C27.2527 13.8234 26.6927 15.2934 26.3527 16.1634C26.3027 16.2834 26.2527 16.4134 26.2127 16.5334C26.6227 16.5334 26.9526 16.3934 27.4026 16.2134C28.6326 15.7334 30.3127 15.0734 34.9627 16.1534C36.9127 16.6034 37.2127 16.4834 37.7527 16.2634C37.9327 16.1934 38.1327 16.1134 38.3827 16.0334C40.2527 15.4634 41.5227 15.4934 42.2727 16.1334C42.6327 16.4334 43.0227 17.0334 42.8827 18.1234C42.6527 19.8034 40.4427 26.4034 33.8227 27.9434C29.8927 28.8534 26.9227 28.0234 24.9527 27.4734L24.5227 27.3534C24.2527 27.2834 23.8927 27.2234 23.6927 27.3734C23.4827 27.5334 23.4327 27.9034 23.4327 28.0234C23.4327 28.3934 23.1227 28.6934 22.7527 28.6934L22.7427 28.7034Z" fill="black"/>
<path d="M7.70457 44.6929C5.76457 44.6929 4.09458 44.2529 3.04458 43.2329C0.984584 41.2329 0.574572 37.8229 1.95457 34.1229C2.08457 33.7729 2.47458 33.5929 2.82458 33.7229C3.17458 33.8529 3.35458 34.2429 3.22458 34.5929C2.31458 37.0429 2.03458 40.3529 3.99458 42.2529C5.97458 44.1729 12.0346 43.4429 16.9646 40.6829C21.3946 38.2129 23.7146 34.3829 22.8846 30.9329C22.3346 28.6429 20.8646 28.1529 20.8046 28.1329C20.4546 28.0229 20.2546 27.6429 20.3646 27.2829C20.4746 26.9229 20.8446 26.7229 21.1946 26.8329C21.2846 26.8629 23.4646 27.5329 24.2046 30.6129C25.1746 34.6629 22.5946 39.0829 17.6246 41.8529C14.6146 43.5329 10.8246 44.6729 7.70457 44.6729V44.6929Z" fill="black"/>
<path d="M6.01264 35.3127C5.42264 35.3127 5.03264 35.2527 4.98264 35.2427C4.61264 35.1827 4.36264 34.8327 4.42264 34.4627C4.48264 34.0927 4.84264 33.8427 5.20264 33.9027C5.25264 33.9027 7.61264 34.2627 9.34264 32.9627C10.5526 32.0527 10.6126 31.0527 10.6126 31.0127L10.6326 30.6727L10.9126 30.4727C10.9826 30.4227 12.7226 29.2127 12.0826 27.7127C11.4126 26.1427 9.87265 26.2127 9.52264 26.3127L8.99265 26.4627L8.73264 25.9727C8.69264 25.8927 7.59264 23.9727 4.44264 25.0527C2.94264 25.5727 2.27263 26.8827 2.15263 27.9327C2.05263 28.7527 2.28264 29.4627 2.72264 29.7527C3.71264 30.3827 4.31264 30.2927 4.34264 30.2827C4.70264 30.2227 5.06265 30.4527 5.13265 30.8127C5.20265 31.1727 4.99265 31.5227 4.63265 31.6027C4.52265 31.6327 3.48264 31.8327 2.00264 30.8927C1.11264 30.3227 0.652638 29.1327 0.812638 27.7727C0.982638 26.3127 1.91264 24.4927 4.00264 23.7727C7.00264 22.7427 8.87264 23.9027 9.66264 24.9127C10.7626 24.8327 12.5126 25.2427 13.3326 27.1727C14.1226 29.0327 12.8726 30.6527 11.9226 31.4027C11.8126 31.9627 11.4326 33.0727 10.1526 34.0427C8.73263 35.1127 7.05264 35.3027 6.00264 35.3027L6.01264 35.3127Z" fill="black"/>
<path d="M2.58361 35.0424C2.51361 35.0424 2.45361 35.0325 2.38361 35.0125C1.48361 34.7325 -0.166397 33.6524 0.0136027 31.5524C0.173603 29.6024 1.4336 29.5424 1.4836 29.5424C1.8636 29.5024 2.17362 29.8224 2.18362 30.2024C2.19362 30.5524 1.94361 30.8424 1.61361 30.8924C1.55361 30.9324 1.41361 31.1425 1.36361 31.6725C1.23361 33.1725 2.63362 33.6724 2.79362 33.7224C3.14362 33.8424 3.3436 34.2125 3.2336 34.5725C3.1436 34.8625 2.8736 35.0424 2.5936 35.0424H2.58361Z" fill="black"/>
<path d="M5.57396 24.0637C5.24396 24.0637 4.95395 23.8237 4.90395 23.4937C4.88395 23.3737 4.47395 20.5937 5.40395 17.3637C6.02395 15.2537 7.10395 14.5237 7.90395 14.2937C8.75395 14.0437 9.67396 14.2437 10.324 14.8037C10.904 15.3137 11.154 15.8937 11.374 16.4137C11.5539 16.8437 11.714 17.2037 12.044 17.5437L12.234 17.7337C13.104 18.6237 14.424 19.9637 14.544 22.3637C14.564 22.7337 14.2739 23.0537 13.9039 23.0737C13.5639 23.0737 13.214 22.8037 13.194 22.4337C13.104 20.5537 12.084 19.5137 11.274 18.6837L11.084 18.4837C10.584 17.9637 10.354 17.4237 10.144 16.9437C9.95395 16.4837 9.79396 16.1337 9.44396 15.8237C9.21396 15.6237 8.78396 15.4537 8.29396 15.5937C7.61396 15.7937 7.05395 16.5537 6.70395 17.7437C5.85395 20.6737 6.23395 23.2637 6.23395 23.2837C6.29395 23.6537 6.03396 24.0037 5.66396 24.0537C5.62396 24.0537 5.59395 24.0537 5.56395 24.0537L5.57396 24.0637Z" fill="black"/>
<path d="M8.82284 25.4733C8.82284 25.4733 8.78282 25.4733 8.76282 25.4733C8.39282 25.4433 8.11283 25.1133 8.14283 24.7433C8.34283 22.3533 9.29282 19.9333 9.34282 19.8333C9.48282 19.4833 9.87283 19.3133 10.2228 19.4533C10.5728 19.5933 10.7428 19.9833 10.6028 20.3333C10.6028 20.3533 9.68283 22.6733 9.50283 24.8533C9.47283 25.2033 9.17283 25.4733 8.83283 25.4733H8.82284Z" fill="black"/>
<path d="M25.9148 45.7034C24.9548 45.7034 23.9648 45.6234 23.0048 45.4634C18.7748 44.7334 16.0848 42.6834 15.9748 42.5934C15.6748 42.3634 15.6248 41.9434 15.8548 41.6434C16.0848 41.3434 16.5048 41.2934 16.8048 41.5234C16.8348 41.5434 19.3648 43.4634 23.2448 44.1234C27.5348 44.8634 31.6248 43.6334 32.2848 42.4434C32.7348 41.6434 32.4848 41.2934 31.3348 40.2534C30.6748 39.6534 29.9248 38.9734 29.4448 37.9934C28.3648 35.8134 25.6248 35.2334 25.5948 35.2234C25.2248 35.1534 24.9948 34.7934 25.0648 34.4234C25.1348 34.0534 25.4848 33.8234 25.8648 33.8934C26.0048 33.9234 29.2848 34.6034 30.6648 37.3934C31.0348 38.1434 31.6548 38.7034 32.2548 39.2434C33.2548 40.1534 34.4948 41.2834 33.4748 43.1034C32.5948 44.6834 29.4048 45.7034 25.9348 45.7034H25.9148Z" fill="black"/>
<path d="M26.9931 41.5725C26.8931 41.5725 26.7931 41.5525 26.7031 41.5025L21.8431 39.1825C21.5031 39.0225 21.3631 38.6125 21.5231 38.2825C21.6831 37.9425 22.0831 37.8025 22.4231 37.9625L27.2831 40.2825C27.6231 40.4425 27.7631 40.8525 27.6031 41.1825C27.4831 41.4225 27.2431 41.5725 26.9931 41.5725Z" fill="black"/>
<path d="M23.7052 24.3337C23.3652 24.3337 23.0652 24.0737 23.0352 23.7237C22.9952 23.3537 23.2652 23.0237 23.6352 22.9837L33.1152 22.0137C33.4952 21.9737 33.8152 22.2437 33.8552 22.6137C33.8952 22.9837 33.6252 23.3137 33.2552 23.3537L23.7752 24.3237C23.7752 24.3237 23.7252 24.3237 23.7052 24.3237V24.3337Z" fill="black"/>
<path d="M19.6644 21.2228C19.6644 21.2228 19.6344 21.2228 19.6144 21.2228C19.2444 21.1928 18.9644 20.8728 18.9944 20.4928L19.7044 10.9928C19.7344 10.6228 20.0644 10.3328 20.4344 10.3728C20.8044 10.4028 21.0844 10.7228 21.0544 11.1028L20.3444 20.6028C20.3144 20.9628 20.0244 21.2328 19.6744 21.2328L19.6644 21.2228Z" fill="black"/>
<path d="M21.9316 22.6841C21.7616 22.6841 21.5916 22.6241 21.4616 22.4941C21.1916 22.2341 21.1916 21.8041 21.4516 21.5341L23.7316 19.1841C23.9916 18.9141 24.4216 18.9041 24.6916 19.1741C24.9616 19.4341 24.9616 19.8641 24.7016 20.1341L22.4216 22.4841C22.2916 22.6241 22.1116 22.6941 21.9316 22.6941V22.6841Z" fill="black"/>
</svg>
