<svg width="45" height="49" viewBox="0 0 45 49" fill="none" xmlns="http://www.w3.org/2000/svg">
<path d="M9.07031 21.1559C9.07031 21.1559 16.2103 22.9259 16.0403 20.9959C15.4403 14.1259 17.6603 9.78586 17.6603 9.78586C17.6603 9.78586 19.2203 17.3859 21.0303 17.5659C22.4203 17.7059 29.4003 7.00586 29.4003 7.00586C29.4003 7.00586 25.6003 16.0159 26.5003 17.0559C27.8103 18.5859 37.2003 12.1459 37.2003 12.1459C37.2003 12.1459 28.6803 20.1459 28.9703 20.6659C29.2603 21.1859 35.6703 19.5559 35.6703 19.5559L39.9103 18.6159C39.9103 18.6159 30.4803 23.2359 30.4203 24.1259C30.3703 24.8959 34.8103 26.4959 34.8103 26.4959C34.8103 26.4959 29.0903 27.5559 28.2903 28.4359C27.4903 29.3159 32.9803 31.7559 32.9803 31.7559L22.0203 29.8359C22.0203 29.8359 22.1103 24.9059 21.6603 24.1359C21.2103 23.3659 19.1903 25.6259 19.1903 25.6259L16.7803 27.2459L13.6903 24.1459L9.09031 21.1759L9.07031 21.1559Z" fill="#59A9FC"/>
<path d="M25.9205 39.0764C25.9205 39.0764 25.4505 47.1764 22.0205 47.7864C20.1605 48.1164 13.9805 44.6364 13.9805 44.6364C13.9805 44.6364 15.9305 42.7764 16.9605 41.3364C17.5105 40.5764 18.3105 39.0664 18.3105 39.0664H25.9205V39.0764Z" fill="#59A9FC"/>
<path d="M6.21254 35.2548C6.21254 35.2548 1.24254 34.0548 0.672541 32.5548C0.102541 31.0548 4.12254 28.8549 4.12254 28.8549L6.20254 27.2148L7.71254 33.9548L6.20254 35.2548H6.21254Z" fill="#59A9FC"/>
<path d="M7.64094 44.3151C8.43071 44.3151 9.07094 43.6748 9.07094 42.8851C9.07094 42.0953 8.43071 41.4551 7.64094 41.4551C6.85117 41.4551 6.21094 42.0953 6.21094 42.8851C6.21094 43.6748 6.85117 44.3151 7.64094 44.3151Z" fill="black"/>
<path d="M19.9593 37.0153C19.8893 37.0153 19.8193 37.0053 19.7493 36.9753C19.4393 36.8553 19.2793 36.5153 19.3993 36.1953C20.9093 32.1853 21.4093 29.9353 21.8793 27.6153C22.5693 24.1453 26.7893 20.0853 28.5693 18.5053C32.0293 15.4253 37.1693 11.3953 37.2193 11.3553C37.4793 11.1453 37.8593 11.1953 38.0693 11.4553C38.2793 11.7153 38.2293 12.0953 37.9693 12.3053C37.9193 12.3453 32.8093 16.3553 29.3793 19.4053C28.0593 20.5753 23.7093 24.6553 23.0693 27.8553C22.5993 30.2253 22.0793 32.5253 20.5393 36.6153C20.4493 36.8553 20.2193 37.0053 19.9793 37.0053L19.9593 37.0153Z" fill="black"/>
<path d="M5.59028 48.7953C3.26028 48.7953 1.61028 47.9053 0.740283 46.9753C-0.869717 45.2553 0.140279 42.1553 3.83028 37.4953C5.95028 34.8153 10.8903 31.0053 13.6403 28.9653C16.1403 27.1153 18.7303 24.6153 18.7603 24.5853C19.0003 24.3553 19.3803 24.3553 19.6103 24.5953C19.8403 24.8353 19.8403 25.2153 19.6003 25.4453C19.4903 25.5553 16.9303 28.0253 14.3603 29.9253C11.6503 31.9253 6.81028 35.6653 4.77028 38.2353C1.65028 42.1753 0.53028 44.9853 1.62028 46.1353C4.78028 49.4853 11.0203 46.3353 13.8803 44.2053C14.1503 44.0053 14.5203 44.0653 14.7203 44.3253C14.9203 44.5953 14.8603 44.9653 14.6003 45.1653C10.9803 47.8653 7.94028 48.7753 5.59028 48.7753V48.7953Z" fill="black"/>
<path d="M35.6685 20.8956C35.4485 20.8956 35.2285 20.7657 35.1285 20.5557C34.9885 20.2557 35.1085 19.8956 35.4085 19.7556C36.7185 19.1356 37.5185 18.8757 38.1685 18.6657C38.9885 18.4057 39.5285 18.2257 40.6685 17.4157C42.2185 16.2957 42.9285 14.2157 42.3885 12.3457C42.2985 12.0257 42.4785 11.6957 42.7985 11.5957C43.1185 11.5057 43.4485 11.6856 43.5485 12.0056C44.2385 14.3956 43.3685 16.9557 41.3785 18.3857C40.0885 19.3157 39.4085 19.5357 38.5385 19.8057C37.9285 20.0057 37.1685 20.2456 35.9385 20.8356C35.8585 20.8756 35.7685 20.8956 35.6785 20.8956H35.6685Z" fill="black"/>
<path d="M23.1295 27.8161C22.8595 27.8161 22.6195 27.6361 22.5495 27.3661C22.4695 27.0461 22.6595 26.7161 22.9895 26.6361C23.1195 26.6061 26.2095 25.8261 29.6195 25.6461C31.9395 25.5261 33.9295 25.7061 34.9295 25.9061C35.2595 25.9661 35.4695 26.2861 35.3995 26.6161C35.3295 26.9461 35.0195 27.1561 34.6895 27.0861C34.4795 27.0461 32.5795 26.6961 29.6695 26.8461C26.3795 27.0261 23.2995 27.7961 23.2695 27.8061C23.2195 27.8161 23.1695 27.8261 23.1195 27.8261L23.1295 27.8161Z" fill="black"/>
<path d="M24.2501 25.7861C24.0401 25.7861 23.8401 25.6761 23.7301 25.4961C23.5601 25.2061 23.6501 24.8361 23.9401 24.6661C24.0701 24.5861 27.0601 22.8161 29.1601 21.9961L30.2901 21.5461C31.4301 21.0961 32.3301 20.7361 33.3601 20.4261C33.6801 20.3261 34.0201 20.5061 34.1101 20.8261C34.2101 21.1461 34.0301 21.4861 33.7101 21.5761C32.7301 21.8761 31.8901 22.2061 30.7401 22.6661L29.6101 23.1161C27.6001 23.9061 24.6001 25.6861 24.5701 25.7061C24.4701 25.7661 24.3701 25.7961 24.2601 25.7961L24.2501 25.7861Z" fill="black"/>
<path d="M16.4895 27.2656C16.3195 27.2656 16.1495 27.1956 16.0295 27.0556C16.0195 27.0356 14.7395 25.5556 13.4495 24.6956C13.2195 24.5356 12.8996 24.3556 12.5396 24.1356C10.6096 22.9856 7.69955 21.2356 7.20955 18.9656C6.49955 15.6956 8.60955 14.3556 9.61955 13.7156C9.70955 13.6656 9.79955 13.5956 9.87955 13.5456C9.84955 13.4356 9.80955 13.2856 9.76955 13.1556C9.41955 11.9956 8.69955 9.58559 10.2795 7.32559C12.1695 4.61559 14.5195 4.72559 15.7795 4.78559C15.9995 4.79559 16.2896 4.80559 16.4296 4.78559C16.4796 4.68559 16.5295 4.57559 16.5795 4.44559C17.1295 3.21559 18.2796 0.655592 22.1396 0.0855922C25.2295 -0.364408 26.9095 1.06559 27.9095 1.91559C28.1395 2.11559 28.4995 2.23559 28.7795 2.07559C29.7695 1.53559 32.7796 -0.0944037 35.8596 1.9256C38.4396 3.6156 38.2795 6.2856 38.2095 7.4256C38.2095 7.5456 38.1995 7.64559 38.1895 7.72559C38.1895 7.74559 38.2695 7.78559 38.4595 7.78559C39.0795 7.78559 41.1795 7.92559 42.4195 9.71559C42.6095 9.98559 42.5395 10.3656 42.2695 10.5556C41.9995 10.7456 41.6195 10.6756 41.4296 10.4056C40.5096 9.09559 38.9295 8.9956 38.4495 8.9956C37.9495 8.9956 37.5695 8.86559 37.2995 8.59559C37.1495 8.43559 36.9596 8.15559 36.9696 7.71559C36.9696 7.61559 36.9695 7.4956 36.9895 7.3556C37.0595 6.2656 37.1796 4.24559 35.1796 2.93559C32.6996 1.30559 30.2595 2.6356 29.3395 3.1356C28.6595 3.5056 27.7596 3.38559 27.1096 2.83559C26.1496 2.01559 24.8496 0.895595 22.2896 1.27559C19.0796 1.74559 18.1895 3.74559 17.6495 4.93559C17.5595 5.13559 17.4795 5.30559 17.4095 5.44559C17.0895 6.04559 16.4095 6.00559 15.6895 5.97559C14.4495 5.91559 12.7495 5.8356 11.2295 7.9956C9.98955 9.7856 10.5495 11.6656 10.8795 12.7856C11.0295 13.2856 11.1195 13.5956 11.0495 13.8756C10.9595 14.2356 10.6495 14.4256 10.2295 14.6956C9.26955 15.3056 7.81955 16.2356 8.34955 18.6756C8.72955 20.4356 11.4795 22.0856 13.1195 23.0656C13.4995 23.2956 13.8295 23.4956 14.0795 23.6556C15.5195 24.6156 16.8495 26.1756 16.9095 26.2356C17.1295 26.4856 17.0995 26.8656 16.8395 27.0856C16.7295 27.1856 16.5895 27.2256 16.4495 27.2256L16.4895 27.2656Z" fill="black"/>
<path d="M33.5683 32.3648C32.1783 32.3648 30.5383 32.1348 28.6383 31.8348C25.3783 31.3148 24.7283 31.2748 24.6383 31.2748C24.3583 31.2748 24.0883 31.1148 24.0183 30.8248C23.9383 30.5048 24.1283 30.1748 24.4483 30.0948C24.5683 30.0648 24.7883 30.0048 28.8383 30.6548C33.3983 31.3848 35.6383 31.4748 36.8283 30.0648C38.0183 28.6648 37.7183 27.5148 37.7083 27.4648L37.5483 26.8748L38.1383 26.7148C38.1383 26.7148 42.4283 25.5548 43.0883 22.5348C43.4683 20.7648 42.1083 19.4648 42.0483 19.4148C41.8083 19.1848 41.7883 18.8048 42.0183 18.5648C42.2483 18.3248 42.6283 18.3048 42.8683 18.5348C42.9483 18.6048 44.7983 20.3448 44.2683 22.7948C43.5983 25.8748 40.2583 27.2948 38.9583 27.7348C38.9883 28.4148 38.8283 29.5948 37.7583 30.8548C36.7883 31.9948 35.4083 32.3848 33.5883 32.3848L33.5683 32.3648Z" fill="black"/>
<path d="M22.1732 43.8454C22.0632 43.8454 19.4032 43.7954 17.5532 43.0754C17.2432 42.9554 17.0932 42.6054 17.2132 42.2954C17.3332 41.9854 17.6832 41.8354 17.9932 41.9554C19.6432 42.5954 22.1732 42.6454 22.1932 42.6454C22.5232 42.6454 22.7932 42.9254 22.7832 43.2554C22.7832 43.5854 22.5132 43.8454 22.1832 43.8454H22.1732Z" fill="black"/>
<path d="M22.0211 22.9351C21.9611 22.9351 21.9111 22.9351 21.8511 22.9151C21.5311 22.8251 21.3511 22.4851 21.4411 22.1651C21.4611 22.1151 22.9611 17.1051 25.3911 12.5451C26.4711 10.5151 28.4611 7.11508 29.3611 6.04508C29.5811 5.78508 29.9611 5.75508 30.2111 5.97508C30.4611 6.18508 30.5011 6.56507 30.2811 6.82507C29.5111 7.73507 27.6411 10.8751 26.4511 13.1151C24.0811 17.5651 22.6111 22.4651 22.5911 22.5151C22.5111 22.7751 22.2711 22.9451 22.0111 22.9451L22.0211 22.9351Z" fill="black"/>
<path d="M19.6725 23.256C19.4325 23.256 19.2026 23.106 19.1126 22.876C19.0726 22.766 18.0825 20.206 17.3825 16.426C16.6725 12.576 17.3625 9.47597 17.3825 9.34597C17.4525 9.02597 17.7725 8.81596 18.1025 8.89596C18.4225 8.96596 18.6325 9.29596 18.5625 9.61596C18.5625 9.64596 17.9025 12.616 18.5625 16.216C19.2325 19.876 20.2225 22.426 20.2325 22.446C20.3525 22.756 20.2025 23.106 19.8925 23.226C19.8225 23.256 19.7425 23.266 19.6725 23.266V23.256Z" fill="black"/>
<path d="M21.6027 48.4064C17.9627 48.4064 14.0527 45.3164 13.8827 45.1764C13.6227 44.9664 13.5827 44.5864 13.7827 44.3264C13.9927 44.0664 14.3727 44.0264 14.6327 44.2264C14.6727 44.2564 18.7027 47.4464 21.9827 47.1764C23.8127 47.0364 24.6127 45.9164 24.8627 43.1864C24.9927 41.7264 25.2927 40.5064 25.7927 39.3864L23.9427 39.2964C21.8327 39.1764 18.7927 39.5864 18.7627 39.5964C18.4327 39.6364 18.1327 39.4064 18.0827 39.0764C18.0327 38.7464 18.2727 38.4464 18.6027 38.3964C18.7327 38.3764 21.7827 37.9664 24.0127 38.0864L26.1527 38.1964C26.4927 38.2164 26.7927 38.3964 26.9727 38.6864C27.1427 38.9764 27.1627 39.3264 27.0127 39.6264C26.4927 40.7164 26.1927 41.8464 26.0627 43.2964C25.8627 45.5364 25.2227 48.1364 22.0827 48.3764C21.9327 48.3864 21.7727 48.3964 21.6127 48.3964L21.6027 48.4064Z" fill="black"/>
<path d="M6.21189 36.2862C6.21189 36.2862 6.17189 36.2862 6.14189 36.2862C5.92189 36.2662 0.691882 35.6462 0.0818824 32.6762C-0.398118 30.3862 1.57188 29.3362 2.62188 28.7762L2.78189 28.6862C3.70189 28.1862 4.99189 27.4062 5.53189 26.4162L5.71189 26.0762H6.16188C6.42188 26.0762 6.64189 26.2462 6.74189 26.4962L6.77188 26.5962L8.23188 34.1262C8.29188 34.4562 8.08189 34.7662 7.75189 34.8362C7.42189 34.8962 7.11189 34.6862 7.04189 34.3562L5.81189 28.0262C5.09189 28.7562 4.16189 29.3162 3.35189 29.7562L3.18189 29.8462C1.92189 30.5162 0.981888 31.1362 1.25189 32.4462C1.61189 34.1962 4.99188 34.9562 6.26188 35.0962C6.59188 35.1362 6.83189 35.4262 6.79189 35.7662C6.76189 36.0762 6.49188 36.3062 6.19188 36.3062L6.21189 36.2862Z" fill="black"/>
</svg>
