<svg width="48" height="35" viewBox="0 0 48 35" fill="none" xmlns="http://www.w3.org/2000/svg">
<path d="M8.61328 1.08813C8.61328 1.08813 10.0133 2.79812 10.2233 4.02812C10.4333 5.25812 10.4533 6.39812 10.4533 6.39812L12.8533 7.16813L21.8033 11.3681L27.9433 15.6981L36.2633 22.2381L36.0433 20.6381L32.0033 14.6381L27.6933 8.91813L24.2333 5.89812L19.7133 3.13812L15.6433 1.07812H8.62328L8.61328 1.08813Z" fill="#59A9FC"/>
<path d="M20.1025 24.6574C13.3425 24.6574 7.5125 19.1574 5.7825 16.9374C4.4925 15.2974 -1.9275 5.53742 0.572496 1.82741C2.3125 -0.752585 7.3825 0.107415 8.1425 0.257415C8.8625 0.197415 13.5225 -0.0825851 17.6725 1.57741C21.6625 3.16741 25.2625 5.55741 28.1025 8.48741C29.8725 10.3174 33.5525 15.8474 35.1225 18.2074C35.4125 18.6474 35.6225 18.9574 35.7025 19.0674L35.8325 19.2474C36.2925 19.8774 37.2625 21.1774 36.9725 22.4974C36.8125 23.2274 36.3125 23.8174 35.4925 24.2674C33.7725 25.2074 32.3925 24.0174 31.4825 23.2274C31.1325 22.9274 30.6925 22.5474 30.4825 22.5274C30.2225 22.5074 29.7525 22.6874 29.1525 22.9074C27.7325 23.4274 25.3525 24.3074 20.9625 24.6174C20.6725 24.6374 20.3925 24.6474 20.1025 24.6474V24.6574ZM5.42249 1.20741C3.91249 1.20741 2.2625 1.48742 1.5825 2.50742C-0.117502 5.02742 4.42249 13.2474 6.74249 16.1974C9.10249 19.2074 15.0225 23.8374 20.8825 23.4274C25.1025 23.1374 27.3825 22.2974 28.7425 21.7874C29.5425 21.4974 30.0825 21.2974 30.5925 21.3374C31.1925 21.3874 31.7225 21.8374 32.2825 22.3174C33.2925 23.1774 34.0225 23.7174 34.9325 23.2074C35.4425 22.9274 35.7325 22.6074 35.8125 22.2374C35.9825 21.4474 35.2425 20.4474 34.8825 19.9574L34.7325 19.7574C34.6525 19.6374 34.4425 19.3274 34.1425 18.8674C32.7225 16.7374 28.9625 11.0674 27.2625 9.31741C24.5425 6.50741 21.0825 4.21741 17.2525 2.68741C13.1025 1.02741 8.2325 1.44741 8.1925 1.45741H8.1025H8.0125C7.4425 1.33741 6.4725 1.20741 5.4425 1.20741H5.42249Z" fill="black"/>
<path d="M20.9333 31.6266C18.1833 31.6266 15.8533 30.8166 15.1533 29.3266C14.1533 27.1866 14.3933 22.9066 14.4033 22.7266L15.6033 22.7966C15.6033 22.7966 15.3633 26.9466 16.2433 28.8066C16.9633 30.3366 21.7033 31.2066 26.1933 29.3866C30.4033 27.6766 32.0033 23.1966 32.0133 23.1466L33.1533 23.5466C33.0833 23.7466 31.3533 28.5966 26.6433 30.5066C24.7933 31.2566 22.7733 31.6166 20.9333 31.6166V31.6266Z" fill="black"/>
<path d="M24.8202 28.6671C24.5602 28.6671 24.3102 28.4971 24.2402 28.2271L23.0302 23.8971C22.9402 23.5771 23.1302 23.2471 23.4502 23.1571C23.7702 23.0671 24.1002 23.2571 24.1902 23.5771L25.4002 27.9071C25.4902 28.2271 25.3002 28.5571 24.9802 28.6471C24.9302 28.6671 24.8702 28.6671 24.8202 28.6671Z" fill="black"/>
<path d="M20.0217 29.3168C19.7317 29.3168 19.4717 29.1068 19.4217 28.8068L18.7217 24.1968C18.6717 23.8668 18.9017 23.5568 19.2317 23.5068C19.5517 23.4568 19.8717 23.6868 19.9217 24.0168L20.6217 28.6268C20.6717 28.9568 20.4417 29.2668 20.1117 29.3168C20.0817 29.3168 20.0517 29.3168 20.0217 29.3168Z" fill="black"/>
<path d="M28.8041 26.5077C28.5641 26.5077 28.3341 26.3577 28.2441 26.1277L27.1741 23.3877C27.0541 23.0777 27.2041 22.7277 27.5141 22.6077C27.8241 22.4877 28.1741 22.6377 28.2941 22.9477L29.3641 25.6877C29.4841 25.9977 29.3341 26.3477 29.0241 26.4677C28.9541 26.4977 28.8741 26.5077 28.8041 26.5077Z" fill="black"/>
<path d="M6.35112 11.1667C6.03112 11.1667 5.77112 10.9167 5.75112 10.5967C5.73112 10.2667 5.98112 9.97672 6.32112 9.95672C6.38112 9.95672 8.00112 9.80672 9.19112 7.89672C10.3911 5.97672 9.57112 3.98672 9.54112 3.89672C9.41112 3.58672 9.55112 3.23672 9.86112 3.10672C10.1711 2.97672 10.5211 3.10672 10.6511 3.41672C10.7011 3.52672 11.7611 6.05672 10.2211 8.52672C8.68112 10.9967 6.49112 11.1467 6.39112 11.1567C6.38112 11.1567 6.37112 11.1567 6.35112 11.1567V11.1667Z" fill="black"/>
<path d="M37.543 34.4583C37.063 34.4583 36.573 34.3083 36.153 34.0283C35.613 33.6583 35.223 33.1083 35.053 32.4783L32.793 23.8383L33.963 23.5383L36.223 32.1783C36.343 32.6183 36.623 32.8883 36.833 33.0383C37.183 33.2783 37.593 33.3283 37.963 33.1783C38.283 33.0483 38.503 32.7883 38.573 32.4583L39.633 27.2983C39.773 26.6283 40.203 26.0783 40.803 25.7683L45.513 23.4083C45.813 23.2583 46.013 22.9783 46.053 22.6283C46.103 22.2383 45.943 21.8483 45.623 21.5683C45.423 21.3983 45.103 21.1983 44.653 21.1983L36.033 21.2483V20.0383L44.653 19.9883H44.673C45.313 19.9883 45.943 20.2183 46.433 20.6483C47.053 21.1883 47.373 21.9783 47.273 22.7683C47.183 23.5083 46.733 24.1383 46.083 24.4683L41.373 26.8283C41.093 26.9683 40.903 27.2183 40.843 27.5283L39.783 32.6883C39.633 33.4083 39.133 33.9983 38.443 34.2783C38.163 34.3883 37.863 34.4483 37.573 34.4483L37.543 34.4583Z" fill="black"/>
<path d="M30.56 12.9373C30.21 12.9373 29.97 12.8873 29.95 12.8773L30.21 11.6973C30.21 11.6973 31.45 11.9373 32.07 10.9573C32.96 9.53728 34.04 5.49728 32.5 4.13728C31.35 3.12728 26.35 4.28728 23.16 5.43728L22.75 4.30728C24.14 3.80728 31.2 1.38728 33.29 3.23728C35.53 5.21728 34.03 10.0873 33.08 11.6073C32.37 12.7473 31.25 12.9473 30.56 12.9473V12.9373Z" fill="black"/>
<path d="M9.54152 26.3683C9.45152 26.3683 9.35152 26.3683 9.26152 26.3383C7.53152 25.9783 7.76152 21.8983 8.04152 19.4883L9.24151 19.6283C8.93151 22.2483 9.06152 24.8783 9.52152 25.1583C9.96152 25.2583 11.0215 23.6483 11.6415 21.8583L12.7815 22.2583C12.4315 23.2583 11.2115 26.3683 9.54152 26.3683Z" fill="black"/>
<path d="M6.35234 6.6168C7.15315 6.6168 7.80235 5.96761 7.80235 5.1668C7.80235 4.36598 7.15315 3.7168 6.35234 3.7168C5.55153 3.7168 4.90234 4.36598 4.90234 5.1668C4.90234 5.96761 5.55153 6.6168 6.35234 6.6168Z" fill="black"/>
<path d="M36.2431 23.3778C36.0931 23.3778 35.9431 23.3278 35.8331 23.2178C35.7531 23.1478 28.2031 16.0578 21.4731 11.8978C16.5831 8.86775 12.5331 7.71775 12.4931 7.70775C12.1731 7.61775 11.9831 7.28775 12.0731 6.96775C12.1631 6.64775 12.4931 6.45775 12.8131 6.54775C12.9831 6.59775 17.0631 7.75775 22.1031 10.8778C28.9331 15.1078 36.5731 22.2778 36.6531 22.3478C36.8931 22.5778 36.9031 22.9578 36.6831 23.1978C36.5631 23.3278 36.4031 23.3878 36.2431 23.3878V23.3778Z" fill="black"/>
</svg>
