<svg width="48" height="43" viewBox="0 0 48 43" fill="none" xmlns="http://www.w3.org/2000/svg">
<path d="M35.239 20.8226C34.189 20.6126 32.549 20.4826 32.959 18.6826C33.369 16.8826 38.129 16.3726 38.929 18.3826C39.869 20.7526 36.689 20.5326 37.309 21.1726C37.739 21.6226 39.789 21.7126 39.789 23.3026C39.789 24.8926 35.169 24.8226 35.029 23.3026C34.889 21.7826 35.959 21.9926 35.929 21.3726C35.899 20.8826 35.459 20.8626 35.239 20.8226Z" fill="#59A9FC"/>
<path d="M30.8889 16.3835C31.999 16.3835 32.8989 15.7612 32.8989 14.9935C32.8989 14.2258 31.999 13.6035 30.8889 13.6035C29.7788 13.6035 28.8789 14.2258 28.8789 14.9935C28.8789 15.7612 29.7788 16.3835 30.8889 16.3835Z" fill="#59A9FC"/>
<path d="M35.7484 11.2441C35.4084 11.5941 34.7784 12.3741 34.9184 13.2341C35.1384 14.6241 37.1784 15.1941 37.9484 15.4041C39.1484 15.7341 40.1884 15.6541 40.8184 15.5641C40.6084 14.9941 40.0684 13.7541 38.7984 12.6941C37.5884 11.6841 36.3484 11.3641 35.7484 11.2541V11.2441Z" fill="#59A9FC"/>
<path d="M23.0181 15.9331C25.4703 15.9331 27.4581 14.7064 27.4581 13.1931C27.4581 11.6799 25.4703 10.4531 23.0181 10.4531C20.566 10.4531 18.5781 11.6799 18.5781 13.1931C18.5781 14.7064 20.566 15.9331 23.0181 15.9331Z" fill="#59A9FC"/>
<path d="M27.1086 10.3232C27.1086 10.3232 27.0286 10.3232 26.9886 10.3132C26.6586 10.2432 26.4486 9.92324 26.5186 9.60324C26.8686 7.89324 27.3686 3.14324 25.4886 1.75324C24.7686 1.22324 23.9686 1.07324 23.1086 1.33324C21.5886 1.78324 20.3086 3.34324 19.8286 4.65324C19.2686 6.16324 19.1886 8.41324 19.1886 8.43324C19.1786 8.76324 18.8986 9.00324 18.5686 9.01324C18.2386 9.00324 17.9786 8.72324 17.9886 8.39324C17.9886 8.29324 18.0786 5.92324 18.7086 4.23324C19.2786 2.69324 20.7886 0.763241 22.7786 0.173241C23.9986 -0.186759 25.1886 0.0132409 26.2186 0.783241C29.1086 2.91324 27.7786 9.56324 27.7186 9.84324C27.6586 10.1232 27.4086 10.3232 27.1286 10.3232H27.1086Z" fill="black"/>
<path d="M16.631 30.3632C14.791 30.3632 11.561 29.9632 10.501 27.3132C9.26103 24.2232 10.741 21.5532 12.761 20.6032C13.061 20.4632 13.421 20.5932 13.561 20.8932C13.701 21.1932 13.571 21.5532 13.271 21.6932C12.011 22.2832 10.531 24.1432 11.611 26.8632C12.741 29.6932 17.721 29.0932 17.771 29.0932C18.111 29.0532 18.401 29.2832 18.441 29.6132C18.481 29.9432 18.251 30.2432 17.921 30.2832C17.851 30.2832 17.341 30.3532 16.611 30.3532L16.631 30.3632Z" fill="black"/>
<path d="M27.1975 29.7332C24.5675 29.7332 22.4375 27.5932 22.4375 24.9632C22.4375 22.3332 24.5775 20.2032 27.1975 20.2032C29.8175 20.2032 31.9675 22.3432 31.9675 24.9632C31.9675 27.5832 29.8275 29.7332 27.1975 29.7332ZM27.1975 21.4132C25.2375 21.4132 23.6375 23.0132 23.6375 24.9732C23.6375 26.9332 25.2375 28.5332 27.1975 28.5332C29.1575 28.5332 30.7575 26.9332 30.7575 24.9732C30.7575 23.0132 29.1575 21.4132 27.1975 21.4132Z" fill="black"/>
<path d="M32.2993 39.543C27.9993 39.543 23.5393 37.703 20.1693 34.123C16.8493 30.593 15.2193 26.013 15.4993 21.653C15.4293 21.603 15.3693 21.543 15.3293 21.463C15.2993 21.413 12.2893 16.403 9.36927 15.693C8.57927 15.503 8.06927 15.693 7.42927 15.923C6.54927 16.253 5.44927 16.653 3.53927 16.013C0.949268 15.153 -0.320718 12.313 0.0692817 8.23299C0.229282 6.54299 1.30928 4.17299 3.04928 2.90299C4.07928 2.15299 5.21927 1.89299 6.35927 2.14299C8.94928 2.72299 10.0093 4.98299 10.9393 6.98299C11.2393 7.62299 11.5293 8.23299 11.8493 8.77299C12.9393 10.593 14.6793 11.333 17.2893 11.093C18.3893 10.993 19.8393 10.623 21.3693 10.243C23.1793 9.78299 25.2293 9.27299 27.0693 9.11299C32.4193 8.66299 37.5493 10.593 41.1393 14.413C43.7593 17.203 45.3893 20.733 45.7493 24.393C46.9493 25.663 47.5093 27.473 47.2493 29.293C46.9193 31.583 45.3793 33.433 43.2793 34.063C42.7793 34.763 42.2293 35.393 41.6393 35.943C39.0693 38.353 35.7393 39.533 32.3093 39.533L32.2993 39.543ZM17.3993 16.073C17.4893 16.073 17.5793 16.093 17.6593 16.133C17.9593 16.273 18.0793 16.643 17.9393 16.933C15.4393 22.083 16.6893 28.663 21.0393 33.293C26.6393 39.243 35.4993 40.043 40.7993 35.063C41.3793 34.513 41.9193 33.883 42.3993 33.193L42.5293 33.013L42.7493 32.953C44.4493 32.523 45.7693 30.983 46.0393 29.113C46.2593 27.603 45.7693 26.093 44.7293 25.093L44.5693 24.933L44.5493 24.713C44.2593 21.243 42.7293 17.883 40.2393 15.243C36.8993 11.693 32.1293 9.90299 27.1493 10.323C25.4093 10.473 23.4993 10.953 21.6493 11.423C20.0693 11.823 18.5793 12.193 17.3793 12.303C14.2893 12.583 12.1393 11.633 10.7993 9.40299C10.4493 8.81299 10.1293 8.14299 9.82928 7.50299C8.92928 5.58299 8.08928 3.77299 6.07928 3.33299C5.27928 3.15299 4.49928 3.34299 3.73928 3.89299C2.29928 4.94299 1.37927 6.98299 1.24927 8.36299C1.05927 10.403 1.13927 13.963 3.89927 14.883C5.40927 15.383 6.17928 15.103 6.98928 14.803C7.68928 14.543 8.48927 14.253 9.63927 14.533C12.1893 15.153 14.5993 18.253 15.7193 19.873C15.9493 18.683 16.3193 17.523 16.8593 16.423C16.9593 16.213 17.1793 16.083 17.3993 16.083V16.073Z" fill="black"/>
<path d="M27.1997 26.7334C28.1772 26.7334 28.9697 25.9409 28.9697 24.9634C28.9697 23.9858 28.1772 23.1934 27.1997 23.1934C26.2221 23.1934 25.4297 23.9858 25.4297 24.9634C25.4297 25.9409 26.2221 26.7334 27.1997 26.7334Z" fill="black"/>
<path d="M27.1981 27.3438C25.8881 27.3438 24.8281 26.2737 24.8281 24.9637C24.8281 23.6537 25.8981 22.5938 27.1981 22.5938C28.4981 22.5938 29.5781 23.6637 29.5781 24.9637C29.5781 26.2637 28.5081 27.3438 27.1981 27.3438ZM27.1981 23.8037C26.5581 23.8037 26.0281 24.3237 26.0281 24.9737C26.0281 25.6237 26.5481 26.1437 27.1981 26.1437C27.8481 26.1437 28.3681 25.6237 28.3681 24.9737C28.3681 24.3237 27.8481 23.8037 27.1981 23.8037Z" fill="black"/>
<path d="M41.3094 32.7432C41.2194 32.7432 41.1294 32.7232 41.0394 32.6732C40.0894 32.1932 39.0194 30.2332 39.5594 27.9632C40.0894 25.7032 42.2994 23.6332 44.9294 24.2032C45.2594 24.2732 45.4594 24.5932 45.3894 24.9232C45.3194 25.2532 44.9994 25.4532 44.6694 25.3832C42.7494 24.9632 41.1294 26.5432 40.7294 28.2432C40.2994 30.0532 41.1794 31.4032 41.5894 31.6032C41.8894 31.7532 41.9994 32.1132 41.8494 32.4132C41.7394 32.6232 41.5294 32.7432 41.3094 32.7432Z" fill="black"/>
<path d="M44.4417 29.0695C44.6641 28.1289 44.3476 27.249 43.7349 27.1042C43.1222 26.9593 42.4452 27.6044 42.2229 28.545C42.0006 29.4856 42.317 30.3655 42.9297 30.5103C43.5425 30.6551 44.2194 30.0101 44.4417 29.0695Z" fill="black"/>
<path d="M43.1187 31.1427C43.0187 31.1427 42.9087 31.1327 42.8087 31.1027C42.3187 30.9827 41.9187 30.6027 41.7187 30.0427C41.5487 29.5627 41.5287 28.9827 41.6587 28.4227C41.9587 27.1427 42.9487 26.3227 43.8987 26.5327C44.3887 26.6527 44.7887 27.0427 44.9887 27.6027C45.1587 28.0827 45.1787 28.6627 45.0487 29.2227C44.9187 29.7927 44.6387 30.2927 44.2687 30.6427C43.9287 30.9727 43.5187 31.1427 43.1287 31.1427H43.1187ZM43.5687 27.7027C43.3487 27.7027 42.9687 28.0627 42.8187 28.6927C42.7387 29.0327 42.7487 29.3727 42.8387 29.6327C42.8987 29.8027 42.9887 29.9127 43.0787 29.9327C43.1687 29.9527 43.2987 29.8927 43.4287 29.7727C43.6287 29.5827 43.7887 29.2827 43.8687 28.9427C43.9487 28.6027 43.9387 28.2627 43.8487 28.0027C43.7887 27.8327 43.6987 27.7227 43.6087 27.7027C43.5987 27.7027 43.5787 27.7027 43.5687 27.7027Z" fill="black"/>
<path d="M39.7505 37.456C40.0686 35.3481 38.2988 33.3333 35.7977 32.9559C33.2965 32.5786 31.0111 33.9815 30.6931 36.0894C30.375 38.1974 32.1448 40.2122 34.6459 40.5895C37.1471 40.9669 39.4325 39.564 39.7505 37.456Z" fill="#F2F2F2"/>
<path d="M35.4601 41.2541C35.1701 41.2541 34.8701 41.2341 34.5601 41.1841C33.2101 40.9841 32.0101 40.3441 31.1701 39.3841C30.3101 38.3941 29.9301 37.1941 30.1101 35.9941C30.2901 34.7941 31.0101 33.7541 32.1201 33.0741C33.2101 32.4041 34.5502 32.1541 35.8902 32.3541C38.7102 32.7841 40.7101 35.1041 40.3401 37.5441C40.0101 39.7141 37.9101 41.2541 35.4501 41.2541H35.4601ZM34.9901 33.4941C34.1801 33.4941 33.4001 33.7041 32.7501 34.1041C31.9401 34.6041 31.4201 35.3441 31.3001 36.1841C31.1801 37.0241 31.4501 37.8841 32.0701 38.5941C32.7201 39.3341 33.6701 39.8341 34.7401 39.9941C36.9001 40.3241 38.8901 39.1441 39.1601 37.3641C39.4301 35.5841 37.8801 33.8741 35.7201 33.5441C35.4801 33.5041 35.2301 33.4941 34.9901 33.4941Z" fill="black"/>
<path d="M33.6094 36.0547C33.7594 36.2447 34.2394 36.7947 35.0794 37.0247C35.9094 37.2447 36.5894 37.0247 36.8194 36.9347" fill="white"/>
<path d="M35.8107 37.7338C35.5407 37.7338 35.2407 37.7038 34.9207 37.6138C33.9707 37.3538 33.3907 36.7638 33.1307 36.4338C32.9207 36.1738 32.9707 35.7938 33.2307 35.5838C33.4907 35.3738 33.8707 35.4238 34.0807 35.6838C34.2507 35.8938 34.6307 36.2838 35.2407 36.4438C35.8507 36.6038 36.3607 36.4738 36.6107 36.3738C36.9207 36.2538 37.2707 36.4138 37.3907 36.7238C37.5107 37.0338 37.3507 37.3838 37.0407 37.5038C36.7807 37.6038 36.3507 37.7238 35.8107 37.7238V37.7338Z" fill="black"/>
<path d="M25.0997 42.0838C24.9597 42.0838 24.8197 42.0838 24.6797 42.0538C23.8297 41.9538 23.4197 41.4938 23.2297 41.1238C22.5097 39.7338 23.7297 37.3738 23.8697 37.1138C24.0297 36.8238 24.3897 36.7138 24.6897 36.8638C24.9797 37.0238 25.0897 37.3838 24.9397 37.6838C24.4897 38.5238 23.9997 39.9838 24.3097 40.5738C24.3697 40.6838 24.4797 40.8238 24.8397 40.8638C26.7997 41.0938 28.3697 38.6538 28.3897 38.6338C28.5697 38.3538 28.9397 38.2638 29.2197 38.4438C29.4997 38.6238 29.5897 38.9938 29.4097 39.2738C29.3297 39.3938 27.6097 42.0838 25.1197 42.0838H25.0997Z" fill="black"/>
<path d="M23.3774 10.6127C23.0974 10.6127 22.8374 10.4127 22.7874 10.1227L21.8774 5.27272C21.8174 4.94272 22.0274 4.63272 22.3574 4.57272C22.6874 4.51272 22.9974 4.72272 23.0574 5.05272L23.9674 9.90272C24.0274 10.2327 23.8174 10.5427 23.4874 10.6027C23.4474 10.6027 23.4174 10.6127 23.3774 10.6127Z" fill="black"/>
<path d="M15.918 26.0623C15.918 26.0623 15.848 26.0623 15.808 26.0623L13.078 25.5723C12.748 25.5123 12.528 25.2023 12.588 24.8723C12.648 24.5423 12.958 24.3323 13.288 24.3823L16.018 24.8723C16.348 24.9323 16.568 25.2423 16.508 25.5723C16.458 25.8623 16.198 26.0723 15.918 26.0723V26.0623Z" fill="black"/>
<path d="M9.47875 11.3931C9.33875 11.3931 9.19875 11.3431 9.08875 11.2531L4.65876 7.49313C4.40876 7.27313 4.37875 6.89313 4.58875 6.64313C4.80875 6.39313 5.18876 6.36313 5.43876 6.57313L9.86875 10.3331C10.1187 10.5531 10.1488 10.9331 9.93876 11.1831C9.81876 11.3231 9.64875 11.3931 9.47875 11.3931Z" fill="black"/>
<path d="M6.9307 12.7924C6.8407 12.7924 6.7607 12.7724 6.6807 12.7324L3.83071 11.3924C3.53071 11.2524 3.4007 10.8924 3.5407 10.5924C3.6807 10.2924 4.0407 10.1624 4.3407 10.3024L7.19071 11.6424C7.49071 11.7824 7.6207 12.1424 7.4807 12.4424C7.3807 12.6624 7.1607 12.7924 6.9307 12.7924Z" fill="black"/>
</svg>
