<svg width="47" height="43" viewBox="0 0 47 43" fill="none" xmlns="http://www.w3.org/2000/svg">
<path d="M33.4397 4.5818C33.4397 4.5818 36.1397 4.5318 36.8397 5.6318C37.5397 6.7318 36.8397 8.8018 36.8397 8.8018C36.8397 8.8018 41.0897 9.1518 41.2097 10.7718C41.3297 12.3918 39.8297 13.1818 39.8297 13.1818L40.2497 14.1418C40.2497 14.1418 42.1897 15.3918 41.2197 17.5618C40.2497 19.7318 39.1797 19.6718 39.1797 19.6718C39.1797 19.6718 39.4697 21.4718 38.8697 22.3818C38.2697 23.2918 36.0297 23.5618 36.0297 23.5618L38.9197 27.0318L39.6997 26.4518L41.0597 23.7718L43.8697 21.9518L45.4697 19.6418V17.4318L44.2897 15.1118L45.6897 12.0118V9.8918L44.7697 8.1718L42.5797 6.7918L40.6197 6.0518L38.9697 4.0018L38.6297 0.881797L37.9597 0.591797L36.0497 1.7718L33.4297 4.5818H33.4397Z" fill="#59A9FC"/>
<path d="M26.0225 12.482C26.0225 12.482 26.3625 11.222 25.2225 10.772C23.6825 10.152 22.3825 11.022 22.3825 11.022C22.3825 11.022 21.9525 9.63203 20.9125 9.66203C19.0925 9.72203 17.7925 12.012 17.7925 12.012C17.7925 12.012 16.2825 11.412 14.9825 11.782C13.2425 12.282 12.0625 15.362 12.0625 15.362L13.0325 10.512L15.0825 8.27203L17.4525 7.76203L18.5425 6.95203L20.3725 5.83203H22.3625L23.4125 6.57203L25.0725 7.35203H26.5425L27.6225 8.38203L27.9425 10.772L26.0025 12.482H26.0225Z" fill="#59A9FC"/>
<path d="M9.15172 37.1413C9.91939 37.1413 10.5417 36.519 10.5417 35.7513C10.5417 34.9837 9.91939 34.3613 9.15172 34.3613C8.38404 34.3613 7.76172 34.9837 7.76172 35.7513C7.76172 36.519 8.38404 37.1413 9.15172 37.1413Z" fill="black"/>
<path d="M6.12845 42.7911C5.20845 42.7911 4.18845 42.5511 3.34845 41.7111C1.92845 40.2911 1.53845 36.1811 3.62845 31.3811C5.59845 26.8411 7.72845 22.9111 15.5184 17.1211C19.6784 14.0311 23.5884 12.6111 25.9284 11.7711C26.8184 11.4511 27.5784 11.1711 27.8484 10.9811C28.8784 10.2211 30.4684 7.88109 31.7384 6.00109C32.6284 4.70109 33.3884 3.57109 33.9584 2.94109C33.9884 2.90109 37.1384 -0.568911 38.6584 0.0810893C38.9284 0.191089 39.3684 0.521089 39.2984 1.42109C39.1384 3.70109 39.7984 4.67109 40.9884 5.58109C41.0584 5.62109 41.3784 5.73109 41.6284 5.81109C42.9384 6.25109 45.3784 7.06109 46.2184 9.32109C46.9884 11.3911 46.0584 12.8311 45.3784 13.8911C45.1584 14.2411 44.9384 14.5611 44.8484 14.8311C44.8084 14.9511 45.0584 15.3611 45.2484 15.6611C45.7584 16.4711 46.5284 17.7011 46.1284 19.4911C45.6184 21.7611 44.3184 22.4611 42.8184 23.2611C42.6084 23.3711 42.3884 23.4911 42.1584 23.6211C41.2484 24.1311 40.7884 25.3011 40.4284 26.2311C40.1284 26.9911 39.9184 27.5511 39.4384 27.7411C38.7984 28.0111 38.3784 27.4711 36.5784 25.2211C34.5984 22.7411 31.2884 18.5911 29.1984 18.2511C27.2284 17.9311 25.5484 18.5411 24.2084 20.0711C22.9984 21.4611 22.7584 23.3111 22.7584 26.0411V29.1911C22.7584 29.5211 22.4884 29.7911 22.1584 29.7911C21.8284 29.7911 21.5584 29.5211 21.5584 29.1911V26.0411C21.5584 23.5311 21.6884 21.1311 23.2984 19.2811C24.9084 17.4411 27.0084 16.6711 29.3884 17.0611C31.9384 17.4811 35.1584 21.5211 37.5084 24.4711C38.0684 25.1711 38.6784 25.9411 39.0684 26.3611C39.1484 26.1911 39.2284 25.9811 39.2984 25.8011C39.7084 24.7411 40.2784 23.2911 41.5684 22.5711C41.7984 22.4411 42.0284 22.3211 42.2484 22.2011C43.6484 21.4511 44.5684 20.9611 44.9484 19.2311C45.2384 17.9311 44.6984 17.0611 44.2284 16.3011C43.8484 15.6911 43.4884 15.1111 43.7084 14.4511C43.8484 14.0411 44.0984 13.6611 44.3584 13.2411C44.9884 12.2611 45.6384 11.2511 45.0784 9.75109C44.4384 8.03109 42.4384 7.36109 41.2384 6.96109C40.7684 6.80109 40.4584 6.70109 40.2484 6.54109C38.5384 5.25109 37.9084 3.74109 38.0784 1.33109C38.0784 1.28109 38.0784 1.24109 38.0784 1.20109C37.5184 1.32109 35.9984 2.44109 34.8384 3.74109C34.3284 4.31109 33.5484 5.46109 32.7184 6.67109C31.3184 8.73109 29.7384 11.0611 28.5484 11.9411C28.1384 12.2411 27.4184 12.5111 26.3184 12.9011C24.0484 13.7211 20.2384 15.1011 16.2184 18.0911C8.66845 23.7011 6.60845 27.4911 4.70845 31.8611C2.73845 36.3911 3.22845 39.9011 4.17845 40.8511C5.17845 41.8511 6.53845 41.6311 7.74845 41.3411L8.17845 41.2411C10.0584 40.8011 10.8384 40.6211 12.7784 39.6911C15.0384 38.6111 16.1184 37.9911 17.3884 37.0411C17.7784 36.7511 18.1084 36.4211 18.4084 36.1311C18.5484 35.9911 18.6784 35.8611 18.7984 35.7611C19.0484 35.5411 19.4284 35.5611 19.6484 35.8111C19.8684 36.0611 19.8484 36.4411 19.5984 36.6611C19.4884 36.7511 19.3784 36.8711 19.2484 37.0011C18.9384 37.3011 18.5584 37.6711 18.1084 38.0111C16.7784 39.0011 15.6184 39.6711 13.2984 40.7811C11.2384 41.7711 10.3684 41.9711 8.45845 42.4211L8.02845 42.5211C7.56845 42.6311 6.87845 42.7911 6.11845 42.7911H6.12845Z" fill="black"/>
<path d="M27.1622 39.8708C26.5622 39.8708 25.6522 39.5008 24.0522 38.8008C23.6122 38.6008 23.1922 38.4208 22.8722 38.3008C21.6422 37.8308 18.9922 36.7808 18.9922 36.7808L19.4322 35.6608C19.4322 35.6608 22.0722 36.7008 23.3022 37.1808C23.6422 37.3108 24.0722 37.5008 24.5322 37.7008C25.2622 38.0208 26.5822 38.6008 27.0622 38.6708C27.1222 38.2908 26.5822 36.8508 26.2922 36.0708C26.0122 35.3108 25.7422 34.5908 25.6122 33.9908C25.4422 33.1708 24.8322 32.1108 21.6222 32.2808C21.2822 32.2808 21.0022 32.0408 20.9922 31.7108C20.9822 31.3808 21.2322 31.0908 21.5622 31.0808C24.6322 30.9208 26.3922 31.8108 26.8022 33.7408C26.9122 34.2508 27.1722 34.9608 27.4322 35.6508C28.1022 37.4508 28.7422 39.1608 27.6522 39.7708C27.5122 39.8508 27.3522 39.8908 27.1622 39.8908V39.8708Z" fill="black"/>
<path d="M13.5615 36.3614C13.2315 36.3614 12.9615 36.0914 12.9615 35.7614C12.9615 35.7414 12.9615 33.8314 12.4015 32.5014C11.9015 31.2814 10.7315 30.7014 10.7215 30.6914C10.4215 30.5514 10.2915 30.1914 10.4415 29.8914C10.5815 29.5914 10.9415 29.4614 11.2415 29.6114C11.3015 29.6414 12.8415 30.3914 13.5215 32.0514C14.1615 33.6114 14.1715 35.6814 14.1715 35.7714C14.1715 36.1014 13.9015 36.3714 13.5715 36.3714L13.5615 36.3614Z" fill="black"/>
<path d="M4.65362 29.6311C4.65362 29.6311 2.56362 27.5411 1.93362 26.9611C1.48362 26.5411 0.303616 25.8911 0.683616 25.5411C1.06362 25.1911 2.71362 24.1111 3.37362 24.0511C4.03362 23.9911 5.18362 24.3811 5.31362 24.5811" fill="white"/>
<path d="M4.65075 30.2303C4.50075 30.2303 4.34075 30.1703 4.22075 30.0503C4.20075 30.0303 2.14075 27.9603 1.52075 27.4003C1.41075 27.3003 1.27075 27.1903 1.11075 27.0803C0.560751 26.6703 0.0307513 26.2803 0.000751253 25.7403C-0.00924875 25.5003 0.0807515 25.2703 0.260751 25.0903C0.660751 24.7103 2.44075 23.5203 3.31075 23.4403C4.01075 23.3703 5.48075 23.7303 5.81075 24.2403C5.99075 24.5203 5.92075 24.8903 5.64075 25.0703C5.39075 25.2403 5.06075 25.1903 4.87075 24.9703C4.66075 24.8403 3.86075 24.5903 3.43075 24.6303C3.08075 24.6603 1.95075 25.3103 1.37075 25.7403C1.52075 25.8603 1.71075 26.0103 1.83075 26.1003C2.02075 26.2403 2.21075 26.3803 2.34075 26.5003C2.98075 27.0903 5.00075 29.1103 5.08075 29.1903C5.31075 29.4303 5.31075 29.8103 5.08075 30.0403C4.96075 30.1603 4.81075 30.2203 4.65075 30.2203V30.2303Z" fill="black"/>
<path d="M12.1913 20.3112C12.1413 20.1612 11.0013 16.7212 11.6713 12.7712C12.1413 10.0312 13.4513 8.63119 14.4713 7.93119C15.4113 7.29119 16.4813 7.00119 17.3813 7.12119C17.4813 7.04119 17.6313 6.92119 17.7613 6.81119C18.6313 6.07119 20.0913 4.83119 21.8013 5.04119C22.7813 5.16119 23.6513 5.75119 24.4113 6.79119C24.5313 6.79119 24.8013 6.76119 24.9913 6.74119C25.7713 6.63119 27.0913 6.45119 27.9213 7.66119C29.3613 9.77119 27.9213 12.0912 27.8613 12.1912L26.8413 11.5512C26.8813 11.4812 27.9113 9.79119 26.9213 8.34119C26.5413 7.78119 25.9913 7.81119 25.1513 7.93119C24.5513 8.02119 23.8713 8.11119 23.4713 7.55119C22.9113 6.75119 22.2913 6.31119 21.6413 6.23119C20.4613 6.08119 19.2613 7.11119 18.5313 7.72119C18.0113 8.17119 17.7213 8.41119 17.3213 8.33119C16.8613 8.23119 16.0113 8.33119 15.1413 8.92119C14.3113 9.48119 13.2413 10.6412 12.8513 12.9612C12.2313 16.6012 13.3113 19.8812 13.3213 19.9112L12.1813 20.2912L12.1913 20.3112Z" fill="black"/>
<path d="M42.7321 23.2904C42.5821 23.2904 42.4321 23.2404 42.3221 23.1304C42.3021 23.1104 39.8521 20.8204 37.3121 19.0204C34.8321 17.2604 32.0721 16.5904 32.0421 16.5904C31.7221 16.5104 31.5221 16.1904 31.5921 15.8604C31.6721 15.5404 31.9921 15.3404 32.3221 15.4104C32.4421 15.4404 35.3421 16.1404 38.0121 18.0304C40.6221 19.8804 43.0521 22.1504 43.1521 22.2504C43.3921 22.4804 43.4021 22.8604 43.1821 23.1004C43.0621 23.2304 42.9021 23.2904 42.7421 23.2904H42.7321Z" fill="black"/>
<path d="M43.873 15.7113C43.753 15.7113 43.633 15.6813 43.533 15.6013C43.513 15.5913 41.833 14.4713 38.883 14.0013C35.883 13.5213 32.813 14.0013 32.783 14.0013C32.453 14.0513 32.143 13.8313 32.093 13.5013C32.043 13.1713 32.263 12.8613 32.593 12.8113C32.723 12.7913 35.873 12.3013 39.073 12.8113C42.313 13.3313 44.133 14.5613 44.213 14.6113C44.483 14.8013 44.553 15.1713 44.373 15.4513C44.253 15.6213 44.063 15.7113 43.873 15.7113Z" fill="black"/>
<path d="M32.9393 11.1116C32.7193 11.1116 32.5193 10.9916 32.4093 10.7916C32.2493 10.5016 32.3593 10.1316 32.6593 9.97165C32.7693 9.91165 35.4393 8.50165 37.6493 8.25165C39.8593 8.00165 42.0193 8.56165 42.1093 8.58165C42.4293 8.66165 42.6293 8.99165 42.5393 9.31165C42.4593 9.63165 42.1293 9.82165 41.8093 9.74165C41.7893 9.74165 39.7693 9.22165 37.7793 9.44165C35.7993 9.66165 33.2493 11.0116 33.2293 11.0216C33.1393 11.0716 33.0393 11.0916 32.9493 11.0916L32.9393 11.1116Z" fill="black"/>
<path d="M17.1302 17.1219C16.8702 17.1219 16.6302 16.9519 16.5502 16.6819C16.5302 16.6319 16.1802 15.3319 16.3302 13.5219C16.4902 11.6519 17.2002 10.4819 17.3902 10.3119C17.6402 10.0919 18.0202 10.1219 18.2402 10.3719C18.4402 10.6019 18.4402 10.9319 18.2402 11.1619C18.1002 11.3619 17.6402 12.2819 17.5202 13.6319C17.3902 15.2119 17.7002 16.3519 17.7002 16.3619C17.7902 16.6819 17.6002 17.0119 17.2802 17.1019C17.2302 17.1219 17.1702 17.1219 17.1202 17.1219H17.1302Z" fill="black"/>
<path d="M21.0501 14.9603C20.7701 14.9603 20.5301 14.7703 20.4701 14.4903C20.4501 14.4003 20.3001 13.5803 20.8001 11.9003C21.2601 10.3603 22.1301 9.31029 22.1601 9.27029C22.3701 9.02029 22.7501 8.98029 23.0101 9.20029C23.2601 9.41029 23.3001 9.79029 23.0901 10.0503C23.0901 10.0503 22.3401 10.9603 21.9601 12.2503C21.5501 13.6203 21.6601 14.2503 21.6601 14.2603C21.7201 14.5803 21.5101 14.9003 21.1801 14.9603C21.1401 14.9603 21.1001 14.9703 21.0601 14.9703L21.0501 14.9603Z" fill="black"/>
</svg>
