<svg width="44" height="42" viewBox="0 0 44 42" fill="none" xmlns="http://www.w3.org/2000/svg">
<path d="M22.0088 41.95H21.8088C10.5488 41.95 1.23875 34.9 0.158753 25.55L0.0887529 24.9C-0.521247 19.56 2.03875 14.37 6.97875 10.95L3.84875 3.56C3.56875 2.87 3.68875 2.12 4.16875 1.55C4.69875 0.92 5.53875 0.65 6.36875 0.83C6.61875 0.88 6.88875 0.95 7.15875 1.04C8.41875 1.42 9.39875 2.07 10.0188 2.57C10.7088 1.05 12.3288 0 14.1588 0C15.7888 0 17.2688 0.84 18.0488 2.11C18.8388 0.84 20.3088 0 21.9388 0C23.5688 0 25.0488 0.84 25.8288 2.11C26.6088 0.84 28.0888 0 29.7188 0C31.5788 0 33.2288 1.09 33.8888 2.65C34.5088 2.21 35.4588 1.62 36.5288 1.24C36.7388 1.17 37.1988 1.03 37.3888 0.98C38.2188 0.76 39.0688 1.02 39.6088 1.64C40.1188 2.22 40.2488 2.98 39.9588 3.68L36.8388 10.94C41.7688 14.36 44.3388 19.54 43.7188 24.89L43.6488 25.54C42.5788 34.89 33.2688 41.94 21.9988 41.94L22.0088 41.95ZM5.85875 1.98C5.50875 1.98 5.23875 2.15 5.08875 2.33C4.97875 2.46 4.81875 2.74 4.95875 3.1L8.46875 11.4L8.04875 11.68C3.23875 14.84 0.708753 19.73 1.28875 24.76L1.35875 25.41C2.35875 34.15 11.1588 40.74 21.8188 40.74H22.0188C32.6788 40.74 41.4688 34.15 42.4788 25.41L42.5488 24.76C43.1288 19.73 40.5988 14.84 35.7788 11.67L35.3588 11.39L38.8788 3.22C39.0288 2.84 38.8288 2.55 38.7288 2.44C38.5388 2.22 38.1688 2.03 37.7188 2.15C37.5488 2.19 37.1388 2.31 36.9488 2.38C35.3488 2.94 33.9788 4.11 33.9688 4.12L33.1488 4.82L32.9788 3.76C32.7488 2.3 31.3488 1.21 29.7288 1.21C28.1088 1.21 26.7188 2.31 26.4788 3.76L26.3988 4.27H25.2788L25.1988 3.76C24.9688 2.3 23.5688 1.21 21.9488 1.21C20.3288 1.21 18.9388 2.31 18.6988 3.76L18.6188 4.27H17.4988L17.4188 3.76C17.1888 2.3 15.7888 1.21 14.1688 1.21C12.5488 1.21 11.1588 2.31 10.9188 3.76L10.7188 5.02L9.87875 4.06C9.87875 4.06 8.69875 2.75 6.82875 2.19C6.57875 2.12 6.34875 2.06 6.12875 2.01C6.03875 1.99 5.95875 1.98 5.87875 1.98H5.85875Z" fill="#040000"/>
<path d="M21.9991 39.0203H21.8291C12.2091 39.0203 4.26915 33.0003 3.34915 25.0103L3.28915 24.4603C2.98915 21.8303 3.58915 19.2003 5.02915 16.8603L5.20915 16.5703H38.6291L38.8091 16.8603C40.2491 19.2003 40.8491 21.8303 40.5391 24.4603L40.4791 25.0103C39.5591 33.0003 31.6191 39.0203 21.9991 39.0203ZM5.87915 17.7703C4.70915 19.8103 4.22915 22.0603 4.48915 24.3203L4.54915 24.8703C5.39915 32.2503 12.8291 37.8103 21.8291 37.8103H21.9991C31.0091 37.8103 38.4291 32.2503 39.2791 24.8703L39.3391 24.3203C39.5991 22.0703 39.1191 19.8103 37.9491 17.7703H5.87915Z" fill="#040000"/>
<path d="M10.2188 34.6699C13.3588 36.8799 17.4287 38.1999 21.8287 38.1999H21.9987C26.4087 38.1999 30.4688 36.8799 33.6087 34.6699H10.2188Z" fill="black"/>
<path d="M21.9986 38.7996H21.8286C17.4586 38.7996 13.2086 37.5096 9.86859 35.1596L8.30859 34.0596H35.5086L33.9486 35.1596C30.6086 37.5096 26.3586 38.7996 21.9886 38.7996H21.9986ZM12.3386 35.2696C15.1486 36.7796 18.4486 37.5996 21.8286 37.5996H21.9986C25.3786 37.5996 28.6786 36.7796 31.4886 35.2696H12.3386Z" fill="#040000"/>
<path d="M14.3996 29.0995C17.9996 29.0995 20.1596 26.3595 20.1596 26.3595C20.5396 27.4495 21.9796 28.8195 22.6796 28.8195C23.8396 28.8195 23.9496 27.1295 23.9496 25.0395C23.9496 22.9495 23.8396 21.2595 22.6796 21.2595C21.9796 21.2595 20.5396 22.6295 20.1596 23.7195C20.1596 23.7195 17.8396 20.9795 14.3996 20.9795C10.9596 20.9795 8.30957 22.7995 8.30957 25.0395C8.30957 27.2795 11.0396 29.0995 14.3996 29.0995Z" fill="#59A9FC"/>
<path d="M14.3992 29.6999C10.7092 29.6999 7.69922 27.6099 7.69922 25.0399C7.69922 22.4699 10.6992 20.3799 14.3992 20.3799C17.0392 20.3799 19.0492 21.8499 19.9992 22.7199C20.6692 21.6899 21.8392 20.6699 22.6692 20.6699C24.5392 20.6699 24.5392 23.1999 24.5392 25.0499C24.5392 26.8999 24.5392 29.4299 22.6692 29.4299C21.8392 29.4299 20.6792 28.4199 20.0092 27.3999C19.0792 28.2799 17.1292 29.7199 14.3892 29.7199L14.3992 29.6999ZM14.3992 21.5799C11.4192 21.5799 8.90922 23.1599 8.90922 25.0399C8.90922 26.9199 11.4292 28.4999 14.3992 28.4999C17.6492 28.4999 19.6692 26.0099 19.6892 25.9799L20.3692 25.1199L20.7292 26.1499C21.0592 27.0899 22.3092 28.1799 22.6792 28.2099C23.3392 28.2099 23.3392 26.0699 23.3392 25.0299C23.3392 23.9899 23.3392 21.8499 22.6692 21.8499C22.2992 21.8699 21.0492 22.9599 20.7192 23.9099L20.3692 24.8999L19.6892 24.0999C19.6892 24.0999 17.4892 21.5699 14.3892 21.5699L14.3992 21.5799Z" fill="#231814"/>
<path d="M11.5087 25.3796C11.8511 25.3796 12.1287 25.1021 12.1287 24.7596C12.1287 24.4172 11.8511 24.1396 11.5087 24.1396C11.1663 24.1396 10.8887 24.4172 10.8887 24.7596C10.8887 25.1021 11.1663 25.3796 11.5087 25.3796Z" fill="black"/>
<path d="M11.5091 25.73C10.9791 25.73 10.5391 25.3 10.5391 24.76C10.5391 24.22 10.9691 23.79 11.5091 23.79C12.0491 23.79 12.4791 24.22 12.4791 24.76C12.4791 25.3 12.0491 25.73 11.5091 25.73ZM11.5091 24.5C11.3591 24.5 11.2491 24.62 11.2491 24.76C11.2491 24.9 11.3691 25.02 11.5091 25.02C11.6491 25.02 11.7691 24.9 11.7691 24.76C11.7691 24.62 11.6491 24.5 11.5091 24.5Z" fill="black"/>
<path d="M31.7184 34.6497C31.5484 34.6497 31.3884 34.5797 31.2684 34.4497C31.0484 34.1997 31.0684 33.8197 31.3184 33.5997C31.3284 33.5897 32.6984 32.3297 32.6584 30.8497C32.6484 30.3797 32.3784 30.0197 32.0284 29.5697C31.5884 28.9797 31.0284 28.2497 30.9484 27.0797C30.8484 25.7097 31.4384 23.8497 32.5784 23.2297C33.2184 22.8797 33.9384 22.9597 34.6084 23.4497C35.4384 24.0697 35.2384 24.9297 35.0584 25.6797C34.9784 26.0297 34.8884 26.3997 34.8684 26.8097C34.8484 27.1197 35.0484 27.3897 35.3984 27.8397C35.8884 28.4697 36.5684 29.3397 36.5684 30.8297C36.5684 33.0097 35.1984 34.4097 35.1384 34.4697C34.9084 34.6997 34.5184 34.7097 34.2884 34.4697C34.0584 34.2397 34.0484 33.8597 34.2884 33.6197C34.2884 33.6197 35.3684 32.4997 35.3684 30.8297C35.3684 29.7497 34.9084 29.1497 34.4584 28.5797C34.0484 28.0597 33.6284 27.5197 33.6784 26.7397C33.7084 26.2297 33.8184 25.7697 33.8984 25.4097C34.0784 24.6397 34.0584 24.5397 33.8984 24.4197C33.5384 24.1497 33.3184 24.2097 33.1684 24.2897C32.5684 24.6197 32.0784 25.9297 32.1584 26.9997C32.2184 27.8097 32.5984 28.3197 32.9984 28.8497C33.3984 29.3797 33.8484 29.9797 33.8684 30.8297C33.9184 32.8697 32.1984 34.4397 32.1184 34.5097C32.0084 34.6097 31.8584 34.6597 31.7184 34.6597V34.6497Z" fill="black"/>
<path d="M29.7789 35.1697C29.5989 35.1697 29.4189 35.0897 29.2989 34.9297C29.0989 34.6597 29.1489 34.2897 29.4189 34.0897C29.4689 34.0497 30.4289 33.2797 30.4289 31.7997C30.4289 30.8097 29.9689 30.1897 29.5089 29.5897C29.0989 29.0497 28.6889 28.4897 28.7289 27.7497C28.7489 27.4397 28.7889 27.1497 28.8289 26.8697C28.9689 25.9197 28.9389 25.7597 28.5889 25.5897C28.3889 25.4897 28.2189 25.4997 28.0289 25.6297C27.5089 25.9797 27.1289 27.0197 27.1989 27.8897C27.2589 28.6397 27.6389 29.1597 28.0389 29.6997C28.4589 30.2697 28.8889 30.8497 28.9089 31.6597C28.9589 33.6197 27.1889 34.8997 27.1189 34.9497C26.8489 35.1397 26.4689 35.0797 26.2789 34.8097C26.0889 34.5397 26.1489 34.1597 26.4189 33.9697C26.4289 33.9697 27.7389 32.9997 27.7089 31.6897C27.6989 31.2597 27.4189 30.8897 27.0789 30.4097C26.6389 29.8097 26.0889 29.0697 25.9989 27.9797C25.8889 26.6397 26.4589 25.2297 27.3589 24.6297C27.9089 24.2597 28.5389 24.2097 29.1289 24.5097C30.3089 25.0897 30.1489 26.1697 30.0289 27.0397C29.9889 27.2797 29.9589 27.5497 29.9389 27.8197C29.9189 28.0997 30.1289 28.3997 30.4789 28.8497C30.9689 29.4997 31.6389 30.3897 31.6389 31.7897C31.6389 33.8897 30.2089 34.9897 30.1489 35.0397C30.0389 35.1197 29.9089 35.1597 29.7889 35.1597L29.7789 35.1697Z" fill="black"/>
</svg>
