<svg width="47" height="46" viewBox="0 0 47 46" fill="none" xmlns="http://www.w3.org/2000/svg">
<path d="M30.2086 26.6068L30.8486 28.9668L30.5285 34.9368L27.5486 33.0868L25.8586 32.1868L19.7386 31.5968L16.7986 32.3068L21.4785 35.9168L23.8286 38.4168L20.1185 40.1468L14.2686 42.1168L18.6886 44.1068L22.8185 44.7468L27.6185 43.3468L31.2386 40.1368L32.7386 37.9768L37.2686 34.9868L39.7486 36.1768L44.8586 38.5968L45.4286 35.6768L43.9485 29.3668L40.8786 26.6068L39.6685 21.4968L36.9086 17.6368L34.1985 16.9668L31.4386 17.5268L29.8486 20.4068L29.8885 23.8268L27.8085 24.2068L26.0986 25.7868L25.6586 27.8968L27.1886 28.5768L30.2086 26.6068Z" fill="#59A9FC"/>
<path d="M33.959 22.037C34.2572 22.037 34.4989 21.7953 34.4989 21.497C34.4989 21.1988 34.2572 20.957 33.959 20.957C33.6607 20.957 33.4189 21.1988 33.4189 21.497C33.4189 21.7953 33.6607 22.037 33.959 22.037Z" fill="black"/>
<path d="M33.9594 22.6374C33.3294 22.6374 32.8193 22.1274 32.8193 21.4974C32.8193 20.8674 33.3294 20.3574 33.9594 20.3574C34.5894 20.3574 35.0993 20.8674 35.0993 21.4974C35.0993 22.1274 34.5894 22.6374 33.9594 22.6374ZM33.9594 21.4274C33.9594 21.4274 33.8993 21.4574 33.8993 21.4874C33.8993 21.5574 34.0293 21.5574 34.0293 21.4874C34.0293 21.4574 33.9993 21.4274 33.9693 21.4274H33.9594Z" fill="black"/>
<path d="M11.7587 23.8261C12.057 23.8261 12.2988 23.5843 12.2988 23.2861C12.2988 22.9879 12.057 22.7461 11.7587 22.7461C11.4605 22.7461 11.2188 22.9879 11.2188 23.2861C11.2188 23.5843 11.4605 23.8261 11.7587 23.8261Z" fill="black"/>
<path d="M11.7591 24.4265C11.1291 24.4265 10.6191 23.9165 10.6191 23.2865C10.6191 22.6565 11.1291 22.1465 11.7591 22.1465C12.3891 22.1465 12.8991 22.6565 12.8991 23.2865C12.8991 23.9165 12.3891 24.4265 11.7591 24.4265ZM11.7591 23.2165C11.7591 23.2165 11.6991 23.2465 11.6991 23.2765C11.6991 23.3465 11.8291 23.3465 11.8291 23.2765C11.8291 23.2465 11.7991 23.2165 11.7691 23.2165H11.7591Z" fill="black"/>
<path d="M22.3589 45.367C18.5689 45.367 15.3789 43.237 14.1989 42.447L14.0089 42.327C13.7389 42.147 13.6089 41.827 13.6789 41.517C13.7489 41.207 13.9989 40.977 14.3189 40.937C15.2089 40.817 18.2189 40.377 19.4789 39.797C20.5489 39.297 21.8889 38.577 22.6689 38.157C22.0489 37.407 20.8789 36.057 19.8389 35.287C18.6589 34.397 16.8289 33.377 16.0989 32.977C15.8189 32.827 15.6689 32.517 15.7089 32.207C15.7489 31.887 15.9889 31.637 16.2989 31.567C18.1889 31.147 22.8889 30.287 25.6389 31.447C27.6289 32.287 29.0689 33.347 29.9089 34.067C30.1589 32.807 30.3789 31.387 30.3589 30.597C30.3089 29.187 30.1789 28.617 30.1789 28.607C30.0989 28.287 30.2989 27.957 30.6189 27.877C30.9489 27.797 31.2689 27.997 31.3489 28.317C31.3689 28.387 31.5089 29.017 31.5589 30.557C31.6089 31.967 31.0489 34.527 30.8789 35.277L30.7989 35.627L30.4089 35.757C30.1789 35.817 29.9289 35.757 29.7589 35.577C29.4689 35.267 27.8589 33.677 25.1589 32.547C23.1589 31.707 19.7089 32.137 17.7189 32.497C18.6289 33.017 19.7189 33.687 20.5489 34.307C22.1689 35.527 23.9789 37.857 24.0489 37.957L24.4689 38.507L23.8589 38.847C23.7689 38.897 21.5989 40.117 19.9689 40.877C18.9389 41.357 17.0189 41.727 15.6189 41.957C17.3889 43.057 20.8189 44.837 24.4389 43.897C29.1689 42.677 30.6089 40.077 31.3789 38.687C31.5489 38.387 31.6789 38.147 31.8189 37.957C32.0389 37.667 32.4689 37.397 33.1289 36.997C34.5589 36.107 36.9589 34.627 38.5089 31.967C38.6789 31.677 39.0489 31.577 39.3289 31.747C39.6189 31.917 39.7089 32.287 39.5489 32.567C37.8489 35.487 35.2889 37.067 33.7689 38.017C33.3489 38.277 32.8789 38.567 32.7789 38.687C32.6889 38.797 32.5689 39.017 32.4389 39.267C31.6389 40.707 29.9789 43.707 24.7489 45.057C23.9289 45.267 23.1189 45.357 22.3289 45.357L22.3589 45.367Z" fill="black"/>
<path d="M26.4791 29.1772C26.3591 29.1772 26.2391 29.1672 26.1191 29.1372C25.7291 29.0472 25.4291 28.7872 25.2591 28.4272C24.8791 27.5872 25.0191 26.4472 25.6191 25.3972C26.1991 24.3672 27.0892 23.6672 27.9392 23.5672C28.4892 23.5072 28.9092 23.4872 29.2392 23.4872C29.1092 22.1772 29.0391 19.5272 30.2791 17.8372C30.8991 16.9872 31.7591 16.4872 32.8391 16.3472C34.5391 16.1272 36.3191 16.7672 37.8391 18.1472C40.0691 20.1672 41.3391 23.3772 41.2291 26.7272C41.2191 27.0572 40.9492 27.3072 40.6292 27.3072C40.6292 27.3072 40.6192 27.3072 40.6091 27.3072C40.2792 27.2972 40.0191 27.0172 40.0291 26.6872C40.1291 23.6872 39.0091 20.8272 37.0391 19.0372C35.7891 17.8972 34.3591 17.3672 33.0091 17.5472C32.2591 17.6472 31.6892 17.9772 31.2692 18.5572C29.9192 20.4072 30.5391 24.0272 30.5391 24.0672L30.7092 25.0272L29.7692 24.7472C29.7692 24.7472 29.2691 24.6272 28.0891 24.7672C27.6291 24.8172 27.0591 25.3172 26.6791 25.9972C26.2691 26.7072 26.1592 27.4572 26.3792 27.9372C26.6992 28.1572 28.3091 27.3872 29.8391 26.1372C30.0991 25.9272 30.4792 25.9672 30.6892 26.2272C30.8992 26.4872 30.8592 26.8672 30.5992 27.0772C29.9592 27.5972 27.8892 29.1772 26.4892 29.1772H26.4791Z" fill="black"/>
<path d="M45.2486 39.5166C45.0086 39.5166 44.7686 39.3966 44.6286 39.1966C44.4586 38.9566 43.1886 38.0766 41.9186 37.6366C39.9086 36.9366 39.0686 36.5366 39.0286 36.5166C38.7286 36.3666 38.6086 36.0066 38.7486 35.7166C38.8986 35.4166 39.2586 35.2866 39.5486 35.4366C39.5486 35.4366 40.3786 35.8366 42.3086 36.5066C43.1486 36.7966 44.1286 37.3166 44.8186 37.8066C44.8086 36.5966 44.6386 34.5466 43.8986 31.7166C43.0386 28.4466 40.4986 27.3166 40.3886 27.2766C40.0786 27.1466 39.9386 26.7966 40.0686 26.4866C40.1986 26.1766 40.5486 26.0366 40.8586 26.1666C40.9886 26.2166 44.0486 27.5466 45.0586 31.4166C46.0586 35.2266 46.0786 37.6966 45.9986 38.8266C45.9786 39.1466 45.7586 39.4166 45.4486 39.4966C45.3786 39.5166 45.3086 39.5266 45.2386 39.5266L45.2486 39.5166Z" fill="black"/>
<path d="M15.2591 17.5169C14.9891 17.5169 14.7491 17.3369 14.6791 17.0569C14.6591 16.9869 14.5191 16.3569 14.4691 14.8169C14.4191 13.3669 15.0291 10.6269 15.1491 10.0969L15.2291 9.74693L15.6091 9.60693C15.8391 9.54693 16.0891 9.60693 16.2591 9.78693C16.5491 10.0969 18.1591 11.6869 20.8591 12.8169C22.5891 13.5469 25.6591 13.3469 28.3091 12.8669C27.4391 12.3669 26.3091 11.6769 25.4791 11.0569C23.8591 9.84693 22.0491 7.50693 21.9791 7.40693L21.5491 6.85693L22.1591 6.51693C22.2491 6.46693 24.4191 5.24693 26.0491 4.48693C27.0791 4.00693 28.9991 3.63693 30.3991 3.40693C28.6391 2.30693 25.2091 0.516933 21.5791 1.46693C16.8191 2.70693 15.3991 5.28693 14.6391 6.67693C14.4691 6.97693 14.3391 7.21693 14.1991 7.40693C13.9791 7.69693 13.5491 7.96693 12.8891 8.36693C11.4591 9.25693 9.05914 10.7369 7.50914 13.3969C7.33914 13.6869 6.96915 13.7869 6.68915 13.6169C6.39915 13.4469 6.30915 13.0769 6.46915 12.7969C8.16915 9.87693 10.7291 8.29693 12.2491 7.34693C12.6691 7.08693 13.1392 6.79693 13.2392 6.67693C13.3292 6.56693 13.4491 6.34693 13.5791 6.09693C14.3691 4.65693 16.0091 1.67693 21.2691 0.306933C26.0691 -0.943067 30.4091 1.96693 31.8391 2.91693L32.0291 3.04693C32.2991 3.22693 32.4291 3.53693 32.3591 3.85693C32.2891 4.16693 32.0391 4.39693 31.7191 4.43693C30.8291 4.55693 27.8091 4.99693 26.5491 5.57693C25.4791 6.07693 24.1391 6.79693 23.3591 7.21693C23.9791 7.96693 25.1491 9.30693 26.1891 10.0869C27.3791 10.9769 29.1991 11.9969 29.9291 12.3969C30.2091 12.5469 30.3591 12.8569 30.3191 13.1769C30.2691 13.4969 30.0391 13.7469 29.7291 13.8169C27.8391 14.2369 23.1491 15.0969 20.3991 13.9369C18.4091 13.0969 16.9692 12.0369 16.1292 11.3169C15.8792 12.5769 15.6591 13.9869 15.6791 14.7869C15.7291 16.1969 15.8591 16.7669 15.8591 16.7769C15.9391 17.0969 15.7391 17.4269 15.4191 17.5069C15.3691 17.5169 15.3191 17.5269 15.2791 17.5269L15.2591 17.5169Z" fill="black"/>
<path d="M12.5186 29.0565C11.0286 29.0565 9.50859 28.4165 8.18859 27.2165C5.95859 25.1965 4.6886 21.9865 4.7986 18.6365C4.8086 18.3065 5.07859 18.0565 5.39859 18.0565C5.39859 18.0565 5.40859 18.0565 5.41859 18.0565C5.74859 18.0665 6.00859 18.3465 5.99859 18.6765C5.89859 21.6765 7.0186 24.5365 8.9886 26.3265C10.2386 27.4665 11.6786 27.9965 13.0186 27.8165C13.7686 27.7165 14.3386 27.3865 14.7586 26.8065C16.1086 24.9565 15.4886 21.3365 15.4886 21.2965L15.3186 20.3365L16.2586 20.6165C16.2586 20.6165 16.7586 20.7365 17.9386 20.5965C18.3986 20.5465 18.9686 20.0465 19.3486 19.3665C19.7586 18.6565 19.8686 17.9065 19.6486 17.4165C19.3286 17.1965 17.7186 17.9665 16.1886 19.2165C15.9286 19.4265 15.5486 19.3865 15.3386 19.1265C15.1286 18.8665 15.1686 18.4865 15.4286 18.2765C16.1286 17.7065 18.5186 15.8765 19.8986 16.2065C20.2886 16.2965 20.5886 16.5565 20.7586 16.9165C21.1386 17.7565 20.9986 18.8965 20.3986 19.9465C19.8186 20.9765 18.9286 21.6765 18.0786 21.7765C17.5286 21.8365 17.1086 21.8565 16.7786 21.8565C16.9086 23.1665 16.9786 25.8165 15.7386 27.5065C15.1186 28.3565 14.2586 28.8565 13.1786 28.9965C12.9586 29.0265 12.7386 29.0365 12.5186 29.0365V29.0565Z" fill="black"/>
<path d="M5.39902 19.2566C5.31902 19.2566 5.23902 19.2366 5.16902 19.2066C5.03902 19.1566 1.97902 17.8266 0.969024 13.9566C-0.0309758 10.1466 -0.0509782 7.67657 0.0290218 6.54657C0.0490218 6.22657 0.269025 5.95657 0.579025 5.86657C0.889025 5.77657 1.21903 5.89657 1.40903 6.15657C1.57903 6.39657 2.83902 7.27657 4.11902 7.71657C6.11902 8.41657 6.96902 8.81657 7.00902 8.83657C7.30902 8.98657 7.42902 9.34657 7.28902 9.63657C7.14902 9.93657 6.77903 10.0566 6.48903 9.91657C6.48903 9.91657 5.65902 9.51657 3.72902 8.84657C2.88902 8.55657 1.90902 8.03657 1.21902 7.54657C1.22902 8.75657 1.39902 10.8066 2.13902 13.6366C2.99902 16.9066 5.53902 18.0366 5.64902 18.0766C5.95902 18.2066 6.09902 18.5566 5.96902 18.8666C5.86902 19.0966 5.64902 19.2366 5.41902 19.2366L5.39902 19.2566Z" fill="black"/>
</svg>
