<svg width="48" height="46" viewBox="0 0 48 46" fill="none" xmlns="http://www.w3.org/2000/svg">
<path d="M22.3999 27.1103C15.0799 27.1103 9.12988 21.1603 9.12988 13.8403C9.12988 6.52031 15.0799 0.570312 22.3999 0.570312C29.7199 0.570312 35.6699 6.52031 35.6699 13.8403C35.6699 21.1603 29.7199 27.1103 22.3999 27.1103ZM22.3999 1.77031C15.7499 1.77031 10.3399 7.18031 10.3399 13.8303C10.3399 20.4803 15.7499 25.8903 22.3999 25.8903C29.0499 25.8903 34.4599 20.4803 34.4599 13.8303C34.4599 7.18031 29.0499 1.77031 22.3999 1.77031Z" fill="black"/>
<path d="M12.5993 30.5891C15.8356 30.5891 18.4592 27.9655 18.4592 24.7291C18.4592 21.4928 15.8356 18.8691 12.5993 18.8691C9.36287 18.8691 6.73926 21.4928 6.73926 24.7291C6.73926 27.9655 9.36287 30.5891 12.5993 30.5891Z" fill="#F2F2F2"/>
<path d="M12.5997 31.1895C9.03966 31.1895 6.13965 28.2895 6.13965 24.7295C6.13965 21.1695 9.03966 18.2695 12.5997 18.2695C16.1597 18.2695 19.0596 21.1695 19.0596 24.7295C19.0596 28.2895 16.1597 31.1895 12.5997 31.1895ZM12.5997 19.4695C9.69966 19.4695 7.33965 21.8295 7.33965 24.7295C7.33965 27.6295 9.69966 29.9895 12.5997 29.9895C15.4997 29.9895 17.8596 27.6295 17.8596 24.7295C17.8596 21.8295 15.4997 19.4695 12.5997 19.4695Z" fill="black"/>
<path d="M3.06999 17.68C1.36999 17.68 0 16.3 0 14.61C0 12.92 1.37999 11.54 3.06999 11.54C4.75999 11.54 6.14 12.92 6.14 14.61C6.14 16.3 4.75999 17.68 3.06999 17.68ZM3.06999 12.74C2.03999 12.74 1.2 13.58 1.2 14.61C1.2 15.64 2.03999 16.48 3.06999 16.48C4.09999 16.48 4.94 15.64 4.94 14.61C4.94 13.58 4.09999 12.74 3.06999 12.74Z" fill="black"/>
<path d="M43.2896 34.4904C41.1396 34.4904 39.3896 32.7404 39.3896 30.5904C39.3896 28.4404 41.1396 26.6904 43.2896 26.6904C45.4396 26.6904 47.1897 28.4404 47.1897 30.5904C47.1897 32.7404 45.4396 34.4904 43.2896 34.4904ZM43.2896 27.9004C41.7996 27.9004 40.5997 29.1104 40.5997 30.5904C40.5997 32.0704 41.8096 33.2804 43.2896 33.2804C44.7696 33.2804 45.9796 32.0704 45.9796 30.5904C45.9796 29.1104 44.7696 27.9004 43.2896 27.9004Z" fill="black"/>
<path d="M44.7301 12.1296C40.2601 13.6096 39.3701 14.8196 38.2801 20.8696C37.1901 14.8096 36.3001 13.6096 31.8301 12.1296C36.3001 10.6496 37.1901 9.43965 38.2801 3.38965C39.3701 9.44965 40.2601 10.6496 44.7301 12.1296Z" fill="#59A9FC"/>
<path d="M38.2799 24.26L37.6899 20.98C36.6299 15.12 35.8999 14.11 31.6399 12.7L29.9199 12.13L31.6399 11.56C35.8999 10.15 36.6299 9.14 37.6899 3.28L38.2799 0L38.8699 3.28C39.9299 9.14 40.6599 10.15 44.9199 11.56L46.6399 12.13L44.9199 12.7C40.6599 14.11 39.9299 15.12 38.8699 20.98L38.2799 24.26ZM33.5799 12.13C36.2999 13.25 37.4299 14.59 38.2799 17.95C39.1299 14.6 40.2599 13.26 42.9799 12.13C40.2599 11.01 39.1299 9.67 38.2799 6.31C37.4299 9.66 36.2999 11 33.5799 12.13Z" fill="black"/>
<path d="M28.8201 34.6404C25.1001 35.8703 24.3601 36.8804 23.4501 41.9204C22.5401 36.8804 21.8001 35.8804 18.0801 34.6404C21.8001 33.4104 22.5401 32.4004 23.4501 27.3604C24.3601 32.4004 25.1001 33.4004 28.8201 34.6404Z" fill="#59A9FC"/>
<path d="M23.4499 45.3102L22.8599 42.0302C21.9899 37.2002 21.3799 36.3702 17.8899 35.2202L16.1699 34.6502L17.8899 34.0802C21.3799 32.9202 21.9799 32.0902 22.8599 27.2702L23.4499 23.9902L24.0399 27.2702C24.9099 32.1002 25.5199 32.9202 29.0099 34.0802L30.7299 34.6502L29.0099 35.2202C25.5199 36.3802 24.9099 37.2102 24.0399 42.0302L23.4499 45.3102ZM19.7999 34.6402C21.8499 35.5302 22.7699 36.6102 23.4499 39.0802C24.1299 36.6102 25.0599 35.5202 27.0999 34.6402C25.0499 33.7502 24.1299 32.6702 23.4499 30.2002C22.7699 32.6702 21.8499 33.7602 19.7999 34.6402Z" fill="black"/>
<path d="M16.71 6.95955C17.48 6.29955 18.49 5.64955 19.76 5.20955C22.71 4.17955 25.22 4.89955 26 5.15955" fill="white"/>
<path d="M16.7101 7.55998C16.5401 7.55998 16.3701 7.48998 16.2501 7.34998C16.0301 7.09998 16.0701 6.71998 16.3201 6.49998C17.2901 5.67998 18.3801 5.04998 19.5601 4.63998C22.4301 3.63998 24.9401 4.16998 26.1901 4.57998C26.5101 4.67998 26.6801 5.01998 26.5701 5.33998C26.4701 5.65998 26.1301 5.82998 25.8101 5.71998C24.7101 5.35998 22.4901 4.87998 19.9601 5.76998C18.9201 6.13998 17.9501 6.68998 17.1001 7.40998C16.9901 7.50998 16.8501 7.54998 16.7101 7.54998V7.55998Z" fill="#040000"/>
<path d="M14.3096 9.72988C14.3996 9.54988 14.5496 9.24988 14.7896 8.87988L14.3096 9.72988Z" fill="white"/>
<path d="M14.3096 10.3403C14.2196 10.3403 14.1296 10.3203 14.0496 10.2803C13.7496 10.1403 13.6196 9.78029 13.7696 9.48029C13.9196 9.16029 14.0896 8.86029 14.2796 8.56029C14.4596 8.28029 14.8296 8.20029 15.1096 8.38029C15.3896 8.56029 15.4696 8.93029 15.2896 9.21029C15.0496 9.59029 14.8996 9.89029 14.8496 10.0003C14.7496 10.2203 14.5296 10.3403 14.3096 10.3403Z" fill="#040000"/>
</svg>
