<svg width="35" height="44" viewBox="0 0 35 44" fill="none" xmlns="http://www.w3.org/2000/svg">
<path d="M30.3703 2.45996H4.12035C2.18183 2.45996 0.610352 4.03144 0.610352 5.96996V39.22C0.610352 41.1585 2.18183 42.73 4.12035 42.73H30.3703C32.3089 42.73 33.8803 41.1585 33.8803 39.22V5.96996C33.8803 4.03144 32.3089 2.45996 30.3703 2.45996Z" fill="#59A9FC"/>
<path d="M31.39 43.3403H3.09C1.39 43.3403 0 41.9504 0 40.2504V4.95035C0 3.25035 1.39 1.86035 3.09 1.86035H31.39C33.09 1.86035 34.48 3.25035 34.48 4.95035V40.2504C34.48 41.9504 33.09 43.3403 31.39 43.3403ZM3.09 3.07035C2.05 3.07035 1.20999 3.91035 1.20999 4.95035V40.2504C1.20999 41.2904 2.05 42.1303 3.09 42.1303H31.39C32.43 42.1303 33.27 41.2904 33.27 40.2504V4.95035C33.27 3.91035 32.43 3.07035 31.39 3.07035H3.09Z" fill="black"/>
<path d="M28.8295 5.35938H5.65948C5.14586 5.35938 4.72949 5.77575 4.72949 6.28938V38.8994C4.72949 39.413 5.14586 39.8294 5.65948 39.8294H28.8295C29.3431 39.8294 29.7595 39.413 29.7595 38.8994V6.28938C29.7595 5.77575 29.3431 5.35938 28.8295 5.35938Z" fill="#F2F2F2"/>
<path d="M29.0999 40.4398H5.38989C4.68989 40.4398 4.12988 39.8698 4.12988 39.1798V6.01977C4.12988 5.32977 4.69989 4.75977 5.38989 4.75977H29.0999C29.7999 4.75977 30.3599 5.32977 30.3599 6.01977V39.1798C30.3599 39.8698 29.7899 40.4398 29.0999 40.4398ZM5.38989 5.96977C5.38989 5.96977 5.3299 5.98977 5.3299 6.01977V39.1798C5.3299 39.1798 5.34989 39.2298 5.38989 39.2298H29.0999C29.0999 39.2298 29.1599 39.2098 29.1599 39.1798V6.01977C29.1599 6.01977 29.1399 5.96977 29.0999 5.96977H5.38989Z" fill="black"/>
<path d="M23.7695 0.599609H10.7095C10.4444 0.599609 10.2295 0.814516 10.2295 1.07961V6.34961C10.2295 6.61471 10.4444 6.82961 10.7095 6.82961H23.7695C24.0346 6.82961 24.2495 6.61471 24.2495 6.34961V1.07961C24.2495 0.814516 24.0346 0.599609 23.7695 0.599609Z" fill="#F2F2F2"/>
<path d="M23.9196 7.43H10.5797C10.0597 7.43 9.63965 7.01 9.63965 6.49V0.939995C9.63965 0.419995 10.0597 0 10.5797 0H23.9196C24.4396 0 24.8596 0.419995 24.8596 0.939995V6.49C24.8596 7.01 24.4396 7.43 23.9196 7.43ZM10.8396 6.22H23.6596V1.2H10.8396V6.22Z" fill="black"/>
<path d="M14.8299 15.7098H9.72989C9.39989 15.7098 9.12988 15.4398 9.12988 15.1098C9.12988 14.7798 9.39989 14.5098 9.72989 14.5098H14.8299C15.1599 14.5098 15.4299 14.7798 15.4299 15.1098C15.4299 15.4398 15.1599 15.7098 14.8299 15.7098Z" fill="black"/>
<path d="M25.0396 20.3103H9.73964C9.40964 20.3103 9.13965 20.0404 9.13965 19.7104C9.13965 19.3804 9.40964 19.1104 9.73964 19.1104H25.0396C25.3696 19.1104 25.6396 19.3804 25.6396 19.7104C25.6396 20.0404 25.3696 20.3103 25.0396 20.3103Z" fill="black"/>
<path d="M25.0396 24.9695H9.73964C9.40964 24.9695 9.13965 24.6995 9.13965 24.3695C9.13965 24.0395 9.40964 23.7695 9.73964 23.7695H25.0396C25.3696 23.7695 25.6396 24.0395 25.6396 24.3695C25.6396 24.6995 25.3696 24.9695 25.0396 24.9695Z" fill="black"/>
<path d="M25.0396 29.6297H9.73964C9.40964 29.6297 9.13965 29.3597 9.13965 29.0297C9.13965 28.6997 9.40964 28.4297 9.73964 28.4297H25.0396C25.3696 28.4297 25.6396 28.6997 25.6396 29.0297C25.6396 29.3597 25.3696 29.6297 25.0396 29.6297Z" fill="black"/>
<path d="M25.0396 34.3602H9.73964C9.40964 34.3602 9.13965 34.0902 9.13965 33.7602C9.13965 33.4302 9.40964 33.1602 9.73964 33.1602H25.0396C25.3696 33.1602 25.6396 33.4302 25.6396 33.7602C25.6396 34.0902 25.3696 34.3602 25.0396 34.3602Z" fill="black"/>
</svg>
