<svg width="41" height="41" viewBox="0 0 41 41" fill="none" xmlns="http://www.w3.org/2000/svg">
<path d="M27.3691 35.0196L27.3691 5.35961C27.3691 2.73074 25.238 0.599609 22.6091 0.599609L17.4191 0.599609C14.7903 0.599609 12.6591 2.73074 12.6591 5.35961L12.6591 35.0196C12.6591 37.6485 14.7903 39.7796 17.4191 39.7796H22.6091C25.238 39.7796 27.3691 37.6485 27.3691 35.0196Z" fill="#59A9FC"/>
<path d="M23.9996 40.38H16.0296C13.8396 40.38 12.0596 38.6 12.0596 36.41V3.97C12.0596 1.78 13.8396 0 16.0296 0H23.9996C26.1896 0 27.9696 1.78 27.9696 3.97V36.4C27.9696 38.59 26.1896 40.37 23.9996 40.37V40.38ZM16.0396 1.2C14.5096 1.2 13.2696 2.44 13.2696 3.97V36.4C13.2696 37.93 14.5096 39.17 16.0396 39.17H24.0096C25.5396 39.17 26.7796 37.93 26.7796 36.4V3.97C26.7796 2.44 25.5396 1.2 24.0096 1.2H16.0396Z" fill="#231814"/>
<path d="M23.7705 25.8608V14.5208C23.7705 13.7089 23.1124 13.0508 22.3005 13.0508H17.7305C16.9187 13.0508 16.2605 13.7089 16.2605 14.5208V25.8608C16.2605 26.6726 16.9187 27.3308 17.7305 27.3308H22.3005C23.1124 27.3308 23.7705 26.6726 23.7705 25.8608Z" fill="#F2F2F2"/>
<path d="M22.7402 27.9204H17.3002C16.3902 27.9204 15.6602 27.1804 15.6602 26.2804V14.0804C15.6602 13.1704 16.4002 12.4404 17.3002 12.4404H22.7402C23.6502 12.4404 24.3802 13.1804 24.3802 14.0804V26.2804C24.3802 27.1904 23.6402 27.9204 22.7402 27.9204ZM17.3002 13.6404C17.0602 13.6404 16.8602 13.8404 16.8602 14.0804V26.2804C16.8602 26.5204 17.0602 26.7204 17.3002 26.7204H22.7402C22.9802 26.7204 23.1802 26.5204 23.1802 26.2804V14.0804C23.1802 13.8404 22.9802 13.6404 22.7402 13.6404H17.3002Z" fill="black"/>
<path d="M23.6007 5.15055C23.6946 5.15055 23.7707 5.07444 23.7707 4.98055C23.7707 4.88666 23.6946 4.81055 23.6007 4.81055C23.5068 4.81055 23.4307 4.88666 23.4307 4.98055C23.4307 5.07444 23.5068 5.15055 23.6007 5.15055Z" fill="#F2F2F2"/>
<path d="M23.6003 5.75043C23.1703 5.75043 22.8203 5.40043 22.8203 4.97043C22.8203 4.54043 23.1703 4.19043 23.6003 4.19043C24.0303 4.19043 24.3803 4.54043 24.3803 4.97043C24.3803 5.40043 24.0303 5.75043 23.6003 5.75043ZM23.6003 4.54043C23.3603 4.54043 23.1703 4.73043 23.1703 4.97043C23.1703 5.21043 23.3603 5.40043 23.6003 5.40043C23.8403 5.40043 24.0303 5.21043 24.0303 4.97043C24.0303 4.73043 23.8403 4.54043 23.6003 4.54043Z" fill="black"/>
<path d="M20.0206 5.15055C20.1145 5.15055 20.1906 5.07444 20.1906 4.98055C20.1906 4.88666 20.1145 4.81055 20.0206 4.81055C19.9267 4.81055 19.8506 4.88666 19.8506 4.98055C19.8506 5.07444 19.9267 5.15055 20.0206 5.15055Z" fill="#F2F2F2"/>
<path d="M20.0202 5.75043C19.5902 5.75043 19.2402 5.40043 19.2402 4.97043C19.2402 4.54043 19.5902 4.19043 20.0202 4.19043C20.4502 4.19043 20.8002 4.54043 20.8002 4.97043C20.8002 5.40043 20.4502 5.75043 20.0202 5.75043ZM20.0202 4.54043C19.7802 4.54043 19.5902 4.73043 19.5902 4.97043C19.5902 5.21043 19.7802 5.40043 20.0202 5.40043C20.2602 5.40043 20.4502 5.21043 20.4502 4.97043C20.4502 4.73043 20.2602 4.54043 20.0202 4.54043Z" fill="black"/>
<path d="M16.4405 5.15055C16.5344 5.15055 16.6105 5.07444 16.6105 4.98055C16.6105 4.88666 16.5344 4.81055 16.4405 4.81055C16.3466 4.81055 16.2705 4.88666 16.2705 4.98055C16.2705 5.07444 16.3466 5.15055 16.4405 5.15055Z" fill="#F2F2F2"/>
<path d="M16.4304 5.75043C16.0004 5.75043 15.6504 5.40043 15.6504 4.97043C15.6504 4.54043 16.0004 4.19043 16.4304 4.19043C16.8604 4.19043 17.2104 4.54043 17.2104 4.97043C17.2104 5.40043 16.8604 5.75043 16.4304 5.75043ZM16.4304 4.54043C16.1904 4.54043 16.0004 4.73043 16.0004 4.97043C16.0004 5.21043 16.1904 5.40043 16.4304 5.40043C16.6704 5.40043 16.8604 5.21043 16.8604 4.97043C16.8604 4.73043 16.6704 4.54043 16.4304 4.54043Z" fill="black"/>
<path d="M23.6007 8.99039C23.6946 8.99039 23.7707 8.91428 23.7707 8.82039C23.7707 8.7265 23.6946 8.65039 23.6007 8.65039C23.5068 8.65039 23.4307 8.7265 23.4307 8.82039C23.4307 8.91428 23.5068 8.99039 23.6007 8.99039Z" fill="#F2F2F2"/>
<path d="M23.6003 9.59027C23.1703 9.59027 22.8203 9.24027 22.8203 8.81027C22.8203 8.38027 23.1703 8.03027 23.6003 8.03027C24.0303 8.03027 24.3803 8.38027 24.3803 8.81027C24.3803 9.24027 24.0303 9.59027 23.6003 9.59027ZM23.6003 8.38027C23.3603 8.38027 23.1703 8.57027 23.1703 8.81027C23.1703 9.05027 23.3603 9.24027 23.6003 9.24027C23.8403 9.24027 24.0303 9.05027 24.0303 8.81027C24.0303 8.57027 23.8403 8.38027 23.6003 8.38027Z" fill="black"/>
<path d="M20.0206 8.99039C20.1145 8.99039 20.1906 8.91428 20.1906 8.82039C20.1906 8.7265 20.1145 8.65039 20.0206 8.65039C19.9267 8.65039 19.8506 8.7265 19.8506 8.82039C19.8506 8.91428 19.9267 8.99039 20.0206 8.99039Z" fill="#F2F2F2"/>
<path d="M20.0202 9.59027C19.5902 9.59027 19.2402 9.24027 19.2402 8.81027C19.2402 8.38027 19.5902 8.03027 20.0202 8.03027C20.4502 8.03027 20.8002 8.38027 20.8002 8.81027C20.8002 9.24027 20.4502 9.59027 20.0202 9.59027ZM20.0202 8.38027C19.7802 8.38027 19.5902 8.57027 19.5902 8.81027C19.5902 9.05027 19.7802 9.24027 20.0202 9.24027C20.2602 9.24027 20.4502 9.05027 20.4502 8.81027C20.4502 8.57027 20.2602 8.38027 20.0202 8.38027Z" fill="black"/>
<path d="M16.4405 8.99039C16.5344 8.99039 16.6105 8.91428 16.6105 8.82039C16.6105 8.7265 16.5344 8.65039 16.4405 8.65039C16.3466 8.65039 16.2705 8.7265 16.2705 8.82039C16.2705 8.91428 16.3466 8.99039 16.4405 8.99039Z" fill="#F2F2F2"/>
<path d="M16.4304 9.59027C16.0004 9.59027 15.6504 9.24027 15.6504 8.81027C15.6504 8.38027 16.0004 8.03027 16.4304 8.03027C16.8604 8.03027 17.2104 8.38027 17.2104 8.81027C17.2104 9.24027 16.8604 9.59027 16.4304 9.59027ZM16.4304 8.38027C16.1904 8.38027 16.0004 8.57027 16.0004 8.81027C16.0004 9.05027 16.1904 9.24027 16.4304 9.24027C16.6704 9.24027 16.8604 9.05027 16.8604 8.81027C16.8604 8.57027 16.6704 8.38027 16.4304 8.38027Z" fill="black"/>
<path d="M23.6007 31.9103C23.6946 31.9103 23.7707 31.8342 23.7707 31.7403C23.7707 31.6464 23.6946 31.5703 23.6007 31.5703C23.5068 31.5703 23.4307 31.6464 23.4307 31.7403C23.4307 31.8342 23.5068 31.9103 23.6007 31.9103Z" fill="#F2F2F2"/>
<path d="M23.6003 32.52C23.1703 32.52 22.8203 32.17 22.8203 31.74C22.8203 31.31 23.1703 30.96 23.6003 30.96C24.0303 30.96 24.3803 31.31 24.3803 31.74C24.3803 32.17 24.0303 32.52 23.6003 32.52ZM23.6003 31.31C23.3603 31.31 23.1703 31.5 23.1703 31.74C23.1703 31.98 23.3603 32.17 23.6003 32.17C23.8403 32.17 24.0303 31.98 24.0303 31.74C24.0303 31.5 23.8403 31.31 23.6003 31.31Z" fill="black"/>
<path d="M20.0206 31.9103C20.1145 31.9103 20.1906 31.8342 20.1906 31.7403C20.1906 31.6464 20.1145 31.5703 20.0206 31.5703C19.9267 31.5703 19.8506 31.6464 19.8506 31.7403C19.8506 31.8342 19.9267 31.9103 20.0206 31.9103Z" fill="#F2F2F2"/>
<path d="M20.0202 32.52C19.5902 32.52 19.2402 32.17 19.2402 31.74C19.2402 31.31 19.5902 30.96 20.0202 30.96C20.4502 30.96 20.8002 31.31 20.8002 31.74C20.8002 32.17 20.4502 32.52 20.0202 32.52ZM20.0202 31.31C19.7802 31.31 19.5902 31.5 19.5902 31.74C19.5902 31.98 19.7802 32.17 20.0202 32.17C20.2602 32.17 20.4502 31.98 20.4502 31.74C20.4502 31.5 20.2602 31.31 20.0202 31.31Z" fill="black"/>
<path d="M16.4405 31.9103C16.5344 31.9103 16.6105 31.8342 16.6105 31.7403C16.6105 31.6464 16.5344 31.5703 16.4405 31.5703C16.3466 31.5703 16.2705 31.6464 16.2705 31.7403C16.2705 31.8342 16.3466 31.9103 16.4405 31.9103Z" fill="#F2F2F2"/>
<path d="M16.4304 32.52C16.0004 32.52 15.6504 32.17 15.6504 31.74C15.6504 31.31 16.0004 30.96 16.4304 30.96C16.8604 30.96 17.2104 31.31 17.2104 31.74C17.2104 32.17 16.8604 32.52 16.4304 32.52ZM16.4304 31.31C16.1904 31.31 16.0004 31.5 16.0004 31.74C16.0004 31.98 16.1904 32.17 16.4304 32.17C16.6704 32.17 16.8604 31.98 16.8604 31.74C16.8604 31.5 16.6704 31.31 16.4304 31.31Z" fill="black"/>
<path d="M23.6007 35.7502C23.6946 35.7502 23.7707 35.674 23.7707 35.5802C23.7707 35.4863 23.6946 35.4102 23.6007 35.4102C23.5068 35.4102 23.4307 35.4863 23.4307 35.5802C23.4307 35.674 23.5068 35.7502 23.6007 35.7502Z" fill="#F2F2F2"/>
<path d="M23.6003 36.3598C23.1703 36.3598 22.8203 36.0098 22.8203 35.5798C22.8203 35.1498 23.1703 34.7998 23.6003 34.7998C24.0303 34.7998 24.3803 35.1498 24.3803 35.5798C24.3803 36.0098 24.0303 36.3598 23.6003 36.3598ZM23.6003 35.1498C23.3603 35.1498 23.1703 35.3398 23.1703 35.5798C23.1703 35.8198 23.3603 36.0098 23.6003 36.0098C23.8403 36.0098 24.0303 35.8198 24.0303 35.5798C24.0303 35.3398 23.8403 35.1498 23.6003 35.1498Z" fill="black"/>
<path d="M20.0206 35.7502C20.1145 35.7502 20.1906 35.674 20.1906 35.5802C20.1906 35.4863 20.1145 35.4102 20.0206 35.4102C19.9267 35.4102 19.8506 35.4863 19.8506 35.5802C19.8506 35.674 19.9267 35.7502 20.0206 35.7502Z" fill="#F2F2F2"/>
<path d="M20.0202 36.3598C19.5902 36.3598 19.2402 36.0098 19.2402 35.5798C19.2402 35.1498 19.5902 34.7998 20.0202 34.7998C20.4502 34.7998 20.8002 35.1498 20.8002 35.5798C20.8002 36.0098 20.4502 36.3598 20.0202 36.3598ZM20.0202 35.1498C19.7802 35.1498 19.5902 35.3398 19.5902 35.5798C19.5902 35.8198 19.7802 36.0098 20.0202 36.0098C20.2602 36.0098 20.4502 35.8198 20.4502 35.5798C20.4502 35.3398 20.2602 35.1498 20.0202 35.1498Z" fill="black"/>
<path d="M16.4405 35.7502C16.5344 35.7502 16.6105 35.674 16.6105 35.5802C16.6105 35.4863 16.5344 35.4102 16.4405 35.4102C16.3466 35.4102 16.2705 35.4863 16.2705 35.5802C16.2705 35.674 16.3466 35.7502 16.4405 35.7502Z" fill="#F2F2F2"/>
<path d="M16.4304 36.3598C16.0004 36.3598 15.6504 36.0098 15.6504 35.5798C15.6504 35.1498 16.0004 34.7998 16.4304 34.7998C16.8604 34.7998 17.2104 35.1498 17.2104 35.5798C17.2104 36.0098 16.8604 36.3598 16.4304 36.3598ZM16.4304 35.1498C16.1904 35.1498 16.0004 35.3398 16.0004 35.5798C16.0004 35.8198 16.1904 36.0098 16.4304 36.0098C16.6704 36.0098 16.8604 35.8198 16.8604 35.5798C16.8604 35.3398 16.6704 35.1498 16.4304 35.1498Z" fill="black"/>
<path d="M35.0196 12.8301H5.3596C2.73073 12.8301 0.599609 14.9612 0.599609 17.5901V22.7801C0.599609 25.409 2.73073 27.5401 5.3596 27.5401H35.0196C37.6485 27.5401 39.7796 25.409 39.7796 22.7801V17.5901C39.7796 14.9612 37.6485 12.8301 35.0196 12.8301Z" fill="white"/>
<path d="M36.41 28.1405H3.97C1.78 28.1405 0 26.3605 0 24.1705V16.2005C0 14.0105 1.78 12.2305 3.97 12.2305H36.41C38.6 12.2305 40.38 14.0105 40.38 16.2005V24.1705C40.38 26.3605 38.6 28.1405 36.41 28.1405ZM3.97 13.4305C2.44 13.4305 1.2 14.6705 1.2 16.2005V24.1705C1.2 25.7005 2.44 26.9405 3.97 26.9405H36.41C37.94 26.9405 39.18 25.7005 39.18 24.1705V16.2005C39.18 14.6705 37.94 13.4305 36.41 13.4305H3.97Z" fill="black"/>
<path d="M25.8598 16.4307H14.5198C13.7079 16.4307 13.0498 17.0888 13.0498 17.9007V22.4707C13.0498 23.2825 13.7079 23.9407 14.5198 23.9407H25.8598C26.6717 23.9407 27.3298 23.2825 27.3298 22.4707V17.9007C27.3298 17.0888 26.6717 16.4307 25.8598 16.4307Z" fill="white"/>
<path d="M26.2902 24.5403H14.0902C13.1802 24.5403 12.4502 23.8003 12.4502 22.9003V17.4603C12.4502 16.5503 13.1902 15.8203 14.0902 15.8203H26.2902C27.2002 15.8203 27.9302 16.5603 27.9302 17.4603V22.9003C27.9302 23.8103 27.1902 24.5403 26.2902 24.5403ZM14.0902 17.0303C13.8502 17.0303 13.6502 17.2303 13.6502 17.4703V22.9103C13.6502 23.1503 13.8502 23.3503 14.0902 23.3503H26.2902C26.5302 23.3503 26.7302 23.1503 26.7302 22.9103V17.4703C26.7302 17.2303 26.5302 17.0303 26.2902 17.0303H14.0902Z" fill="black"/>
<path d="M4.97957 16.7707C5.07346 16.7707 5.14957 16.6946 5.14957 16.6007C5.14957 16.5068 5.07346 16.4307 4.97957 16.4307C4.88568 16.4307 4.80957 16.5068 4.80957 16.6007C4.80957 16.6946 4.88568 16.7707 4.97957 16.7707Z" fill="#F2F2F2"/>
<path d="M4.98997 17.3803C4.55997 17.3803 4.20996 17.0303 4.20996 16.6003C4.20996 16.1703 4.55997 15.8203 4.98997 15.8203C5.41997 15.8203 5.76997 16.1703 5.76997 16.6003C5.76997 17.0303 5.41997 17.3803 4.98997 17.3803ZM4.98997 16.1703C4.74997 16.1703 4.55997 16.3603 4.55997 16.6003C4.55997 16.8403 4.74997 17.0303 4.98997 17.0303C5.22997 17.0303 5.41997 16.8403 5.41997 16.6003C5.41997 16.3603 5.22997 16.1703 4.98997 16.1703Z" fill="black"/>
<path d="M4.97957 20.3507C5.07346 20.3507 5.14957 20.2746 5.14957 20.1807C5.14957 20.0869 5.07346 20.0107 4.97957 20.0107C4.88568 20.0107 4.80957 20.0869 4.80957 20.1807C4.80957 20.2746 4.88568 20.3507 4.97957 20.3507Z" fill="#F2F2F2"/>
<path d="M4.98997 20.9604C4.55997 20.9604 4.20996 20.6104 4.20996 20.1804C4.20996 19.7504 4.55997 19.4004 4.98997 19.4004C5.41997 19.4004 5.76997 19.7504 5.76997 20.1804C5.76997 20.6104 5.41997 20.9604 4.98997 20.9604ZM4.98997 19.7504C4.74997 19.7504 4.55997 19.9404 4.55997 20.1804C4.55997 20.4204 4.74997 20.6104 4.98997 20.6104C5.22997 20.6104 5.41997 20.4204 5.41997 20.1804C5.41997 19.9404 5.22997 19.7504 4.98997 19.7504Z" fill="black"/>
<path d="M4.97957 23.9406C5.07346 23.9406 5.14957 23.8645 5.14957 23.7706C5.14957 23.6767 5.07346 23.6006 4.97957 23.6006C4.88568 23.6006 4.80957 23.6767 4.80957 23.7706C4.80957 23.8645 4.88568 23.9406 4.97957 23.9406Z" fill="#F2F2F2"/>
<path d="M4.98997 24.5405C4.55997 24.5405 4.20996 24.1905 4.20996 23.7605C4.20996 23.3305 4.55997 22.9805 4.98997 22.9805C5.41997 22.9805 5.76997 23.3305 5.76997 23.7605C5.76997 24.1905 5.41997 24.5405 4.98997 24.5405ZM4.98997 23.3305C4.74997 23.3305 4.55997 23.5205 4.55997 23.7605C4.55997 24.0005 4.74997 24.1905 4.98997 24.1905C5.22997 24.1905 5.41997 24.0005 5.41997 23.7605C5.41997 23.5205 5.22997 23.3305 4.98997 23.3305Z" fill="black"/>
<path d="M8.83015 16.7707C8.92404 16.7707 9.00015 16.6946 9.00015 16.6007C9.00015 16.5068 8.92404 16.4307 8.83015 16.4307C8.73627 16.4307 8.66016 16.5068 8.66016 16.6007C8.66016 16.6946 8.73627 16.7707 8.83015 16.7707Z" fill="#F2F2F2"/>
<path d="M8.8298 17.3803C8.3998 17.3803 8.0498 17.0303 8.0498 16.6003C8.0498 16.1703 8.3998 15.8203 8.8298 15.8203C9.2598 15.8203 9.6098 16.1703 9.6098 16.6003C9.6098 17.0303 9.2598 17.3803 8.8298 17.3803ZM8.8298 16.1703C8.5898 16.1703 8.3998 16.3603 8.3998 16.6003C8.3998 16.8403 8.5898 17.0303 8.8298 17.0303C9.0698 17.0303 9.2598 16.8403 9.2598 16.6003C9.2598 16.3603 9.0698 16.1703 8.8298 16.1703Z" fill="black"/>
<path d="M8.83015 20.3507C8.92404 20.3507 9.00015 20.2746 9.00015 20.1807C9.00015 20.0869 8.92404 20.0107 8.83015 20.0107C8.73627 20.0107 8.66016 20.0869 8.66016 20.1807C8.66016 20.2746 8.73627 20.3507 8.83015 20.3507Z" fill="#F2F2F2"/>
<path d="M8.8298 20.9604C8.3998 20.9604 8.0498 20.6104 8.0498 20.1804C8.0498 19.7504 8.3998 19.4004 8.8298 19.4004C9.2598 19.4004 9.6098 19.7504 9.6098 20.1804C9.6098 20.6104 9.2598 20.9604 8.8298 20.9604ZM8.8298 19.7504C8.5898 19.7504 8.3998 19.9404 8.3998 20.1804C8.3998 20.4204 8.5898 20.6104 8.8298 20.6104C9.0698 20.6104 9.2598 20.4204 9.2598 20.1804C9.2598 19.9404 9.0698 19.7504 8.8298 19.7504Z" fill="black"/>
<path d="M8.83015 23.9406C8.92404 23.9406 9.00015 23.8645 9.00015 23.7706C9.00015 23.6767 8.92404 23.6006 8.83015 23.6006C8.73627 23.6006 8.66016 23.6767 8.66016 23.7706C8.66016 23.8645 8.73627 23.9406 8.83015 23.9406Z" fill="#F2F2F2"/>
<path d="M8.8298 24.5405C8.3998 24.5405 8.0498 24.1905 8.0498 23.7605C8.0498 23.3305 8.3998 22.9805 8.8298 22.9805C9.2598 22.9805 9.6098 23.3305 9.6098 23.7605C9.6098 24.1905 9.2598 24.5405 8.8298 24.5405ZM8.8298 23.3305C8.5898 23.3305 8.3998 23.5205 8.3998 23.7605C8.3998 24.0005 8.5898 24.1905 8.8298 24.1905C9.0698 24.1905 9.2598 24.0005 9.2598 23.7605C9.2598 23.5205 9.0698 23.3305 8.8298 23.3305Z" fill="black"/>
<path d="M31.7501 16.7707C31.844 16.7707 31.9201 16.6946 31.9201 16.6007C31.9201 16.5068 31.844 16.4307 31.7501 16.4307C31.6562 16.4307 31.5801 16.5068 31.5801 16.6007C31.5801 16.6946 31.6562 16.7707 31.7501 16.7707Z" fill="#F2F2F2"/>
<path d="M31.7497 17.3803C31.3197 17.3803 30.9697 17.0303 30.9697 16.6003C30.9697 16.1703 31.3197 15.8203 31.7497 15.8203C32.1797 15.8203 32.5297 16.1703 32.5297 16.6003C32.5297 17.0303 32.1797 17.3803 31.7497 17.3803ZM31.7497 16.1703C31.5097 16.1703 31.3197 16.3603 31.3197 16.6003C31.3197 16.8403 31.5097 17.0303 31.7497 17.0303C31.9897 17.0303 32.1797 16.8403 32.1797 16.6003C32.1797 16.3603 31.9897 16.1703 31.7497 16.1703Z" fill="black"/>
<path d="M31.7501 20.3507C31.844 20.3507 31.9201 20.2746 31.9201 20.1807C31.9201 20.0869 31.844 20.0107 31.7501 20.0107C31.6562 20.0107 31.5801 20.0869 31.5801 20.1807C31.5801 20.2746 31.6562 20.3507 31.7501 20.3507Z" fill="#F2F2F2"/>
<path d="M31.7497 20.9604C31.3197 20.9604 30.9697 20.6104 30.9697 20.1804C30.9697 19.7504 31.3197 19.4004 31.7497 19.4004C32.1797 19.4004 32.5297 19.7504 32.5297 20.1804C32.5297 20.6104 32.1797 20.9604 31.7497 20.9604ZM31.7497 19.7504C31.5097 19.7504 31.3197 19.9404 31.3197 20.1804C31.3197 20.4204 31.5097 20.6104 31.7497 20.6104C31.9897 20.6104 32.1797 20.4204 32.1797 20.1804C32.1797 19.9404 31.9897 19.7504 31.7497 19.7504Z" fill="black"/>
<path d="M31.7501 23.9406C31.844 23.9406 31.9201 23.8645 31.9201 23.7706C31.9201 23.6767 31.844 23.6006 31.7501 23.6006C31.6562 23.6006 31.5801 23.6767 31.5801 23.7706C31.5801 23.8645 31.6562 23.9406 31.7501 23.9406Z" fill="#F2F2F2"/>
<path d="M31.7497 24.5405C31.3197 24.5405 30.9697 24.1905 30.9697 23.7605C30.9697 23.3305 31.3197 22.9805 31.7497 22.9805C32.1797 22.9805 32.5297 23.3305 32.5297 23.7605C32.5297 24.1905 32.1797 24.5405 31.7497 24.5405ZM31.7497 23.3305C31.5097 23.3305 31.3197 23.5205 31.3197 23.7605C31.3197 24.0005 31.5097 24.1905 31.7497 24.1905C31.9897 24.1905 32.1797 24.0005 32.1797 23.7605C32.1797 23.5205 31.9897 23.3305 31.7497 23.3305Z" fill="black"/>
<path d="M35.5899 16.7707C35.6838 16.7707 35.7599 16.6946 35.7599 16.6007C35.7599 16.5068 35.6838 16.4307 35.5899 16.4307C35.496 16.4307 35.4199 16.5068 35.4199 16.6007C35.4199 16.6946 35.496 16.7707 35.5899 16.7707Z" fill="white"/>
<path d="M35.5896 17.3803C35.1596 17.3803 34.8096 17.0303 34.8096 16.6003C34.8096 16.1703 35.1596 15.8203 35.5896 15.8203C36.0196 15.8203 36.3696 16.1703 36.3696 16.6003C36.3696 17.0303 36.0196 17.3803 35.5896 17.3803ZM35.5896 16.1703C35.3496 16.1703 35.1596 16.3603 35.1596 16.6003C35.1596 16.8403 35.3496 17.0303 35.5896 17.0303C35.8296 17.0303 36.0196 16.8403 36.0196 16.6003C36.0196 16.3603 35.8296 16.1703 35.5896 16.1703Z" fill="black"/>
<path d="M35.5899 20.3507C35.6838 20.3507 35.7599 20.2746 35.7599 20.1807C35.7599 20.0869 35.6838 20.0107 35.5899 20.0107C35.496 20.0107 35.4199 20.0869 35.4199 20.1807C35.4199 20.2746 35.496 20.3507 35.5899 20.3507Z" fill="#F2F2F2"/>
<path d="M35.5896 20.9604C35.1596 20.9604 34.8096 20.6104 34.8096 20.1804C34.8096 19.7504 35.1596 19.4004 35.5896 19.4004C36.0196 19.4004 36.3696 19.7504 36.3696 20.1804C36.3696 20.6104 36.0196 20.9604 35.5896 20.9604ZM35.5896 19.7504C35.3496 19.7504 35.1596 19.9404 35.1596 20.1804C35.1596 20.4204 35.3496 20.6104 35.5896 20.6104C35.8296 20.6104 36.0196 20.4204 36.0196 20.1804C36.0196 19.9404 35.8296 19.7504 35.5896 19.7504Z" fill="black"/>
<path d="M35.5899 23.9406C35.6838 23.9406 35.7599 23.8645 35.7599 23.7706C35.7599 23.6767 35.6838 23.6006 35.5899 23.6006C35.496 23.6006 35.4199 23.6767 35.4199 23.7706C35.4199 23.8645 35.496 23.9406 35.5899 23.9406Z" fill="#F2F2F2"/>
<path d="M35.5896 24.5405C35.1596 24.5405 34.8096 24.1905 34.8096 23.7605C34.8096 23.3305 35.1596 22.9805 35.5896 22.9805C36.0196 22.9805 36.3696 23.3305 36.3696 23.7605C36.3696 24.1905 36.0196 24.5405 35.5896 24.5405ZM35.5896 23.3305C35.3496 23.3305 35.1596 23.5205 35.1596 23.7605C35.1596 24.0005 35.3496 24.1905 35.5896 24.1905C35.8296 24.1905 36.0196 24.0005 36.0196 23.7605C36.0196 23.5205 35.8296 23.3305 35.5896 23.3305Z" fill="black"/>
</svg>
