<svg width="43" height="36" viewBox="0 0 43 36" fill="none" xmlns="http://www.w3.org/2000/svg">
<path d="M3.30809 19.0604C3.30809 19.0604 11.2581 26.8703 13.1081 26.1404C14.9581 25.4104 11.7481 15.2704 11.7481 15.2704C11.7481 15.2704 16.4681 23.9904 18.8081 23.5004C21.1481 23.0104 21.4481 11.1104 21.4481 11.1104C21.4481 11.1104 22.4981 22.6404 24.3481 23.5004C26.1981 24.3604 31.1081 15.2704 31.1081 15.2704C31.1081 15.2704 27.4981 25.0004 28.8581 26.1904C30.2181 27.3804 39.5481 19.0604 39.5481 19.0604L31.4081 28.4504L23.6381 34.5303L20.3881 35.0303L14.9981 31.5104L6.34808 23.0604L3.28809 19.0504L3.30809 19.0604Z" fill="#59A9FC"/>
<path d="M2.35767 18.3398C2.35767 18.3398 2.20766 14.9398 4.09766 13.8598C5.98766 12.7798 8.45766 13.6798 8.45766 13.6798C8.45766 13.6798 7.82766 10.0598 10.5077 8.54981C13.1877 7.03981 16.1577 9.43981 16.1577 9.43981C16.1577 9.43981 17.2977 5.68981 20.8977 5.55981C24.4977 5.42981 26.0477 9.12981 26.0477 9.12981C26.0477 9.12981 28.8577 6.4098 31.6177 7.9698C34.3777 9.5298 34.0877 12.9698 34.0877 12.9698C34.0877 12.9698 36.5277 11.9198 38.5377 13.0198C40.5477 14.1198 40.4377 16.8298 40.4377 16.8298L42.1977 14.1298C42.1977 14.1298 42.6177 11.8398 40.6877 10.4698C38.7577 9.0998 36.3077 10.2898 36.3077 10.2898C36.3077 10.2898 36.4877 5.75981 33.8477 4.51981C31.2077 3.27981 27.6977 5.23981 27.6977 5.23981L27.0677 5.8598C27.0677 5.8598 26.8077 0.399807 21.2377 0.589807C15.6777 0.779807 15.5577 5.91981 15.5577 5.91981C15.5577 5.91981 13.0177 2.4798 9.28766 4.1398C5.55766 5.7998 6.35767 10.2098 6.35767 10.2098C6.35767 10.2098 3.41766 9.39981 2.09766 11.0898C0.777656 12.7798 0.597656 14.5098 0.597656 14.5098L2.34766 18.3298L2.35767 18.3398Z" fill="#59A9FC"/>
<path d="M21.2577 35.11C20.0378 35.11 18.8178 34.66 17.8578 33.77L15.4478 32.05C10.6378 28.61 5.93775 23.61 1.86775 17.6C1.35775 16.85 0.167759 15.02 0.0477587 14.06C-0.132241 12.66 0.197745 11.42 1.01774 10.49C1.88774 9.50001 3.19775 8.96 4.72775 8.96C5.06775 8.96 5.39775 8.99001 5.72775 9.06001C5.66775 8.47001 5.70775 7.87 5.83775 7.27C6.34775 5 8.23775 3.27 10.5278 2.97C12.2978 2.73 14.0078 3.32 15.2278 4.53C15.9978 1.91 18.4477 0 21.2677 0C24.0877 0 26.5378 1.91 27.3078 4.53C28.4678 3.38 30.0877 2.79 31.7677 2.94C33.8577 3.14 35.7078 4.57 36.4778 6.6C36.7578 7.34 36.8678 8.09 36.8278 8.85C36.9778 8.79 37.1478 8.73 37.3177 8.69C38.9577 8.28 40.6677 8.79 41.7677 10.02C42.8177 11.19 43.1177 12.76 42.5677 14.23C42.3078 14.92 41.3678 16.77 39.9178 18.76C35.8078 24.44 31.5078 28.9 27.1378 32.01L24.6878 33.76C23.7278 34.65 22.5077 35.1 21.2877 35.1L21.2577 35.11ZM4.71776 10.17C3.55776 10.17 2.53775 10.58 1.91775 11.29C1.33775 11.95 1.09775 12.86 1.23775 13.91C1.28775 14.28 1.81776 15.39 2.85776 16.93C6.85776 22.82 11.4477 27.71 16.1477 31.07L18.6578 32.87C20.1178 34.26 22.4078 34.26 23.8578 32.87L23.9277 32.82L26.4178 31.05C30.6778 28.01 34.8877 23.65 38.9277 18.07C40.3577 16.1 41.2278 14.36 41.4178 13.82C41.8078 12.77 41.5877 11.66 40.8477 10.83C40.0477 9.93 38.7978 9.57 37.5878 9.87C37.3678 9.93 37.1478 10.02 36.9078 10.13C36.7078 10.22 36.5078 10.31 36.2978 10.38L35.9577 10.49L35.6478 10.24C35.4778 10.08 35.3977 9.84 35.4577 9.6C35.6877 8.72 35.6377 7.88 35.3177 7.03C34.7077 5.43 33.2577 4.3 31.6277 4.15C29.9777 3.99 28.3977 4.77001 27.5077 6.17001L27.2778 6.53L26.8078 6.45C26.5378 6.38 26.3377 6.16001 26.3177 5.88C26.0977 3.26 23.8678 1.21 21.2478 1.21C18.6278 1.21 16.3877 3.26 16.1777 5.88L16.1378 6.31001L15.6777 6.45C15.4077 6.52 15.1278 6.40001 14.9778 6.17001C14.0478 4.70001 12.3978 3.93 10.6578 4.16C8.88776 4.4 7.37775 5.78 6.98775 7.54C6.82775 8.26 6.83775 8.98 7.03775 9.69L7.13775 10.06L6.83775 10.35C6.65775 10.51 6.38776 10.55 6.15776 10.46C5.69776 10.27 5.19775 10.17 4.69775 10.17H4.71776Z" fill="black"/>
<path d="M21.308 34.2404C20.978 34.2404 20.708 33.9704 20.708 33.6404V10.4604C20.708 10.1304 20.978 9.86035 21.308 9.86035C21.638 9.86035 21.908 10.1304 21.908 10.4604V33.6404C21.908 33.9704 21.638 34.2404 21.308 34.2404Z" fill="black"/>
<path d="M21.8473 35.06C21.7673 35.06 21.6773 35.04 21.5973 35C21.2973 34.86 21.1673 34.5 21.2973 34.2L30.4173 14.36C30.5573 14.06 30.9173 13.93 31.2173 14.06C31.5173 14.2 31.6473 14.56 31.5173 14.86L22.3973 34.7C22.2973 34.92 22.0773 35.05 21.8473 35.05V35.06Z" fill="black"/>
<path d="M20.7275 35.0602C20.4975 35.0602 20.2775 34.9302 20.1775 34.7102L11.0575 14.8702C10.9175 14.5702 11.0575 14.2102 11.3575 14.0702C11.6575 13.9302 12.0175 14.0702 12.1575 14.3702L21.2775 34.2102C21.4175 34.5102 21.2775 34.8702 20.9775 35.0102C20.8975 35.0502 20.8075 35.0702 20.7275 35.0702V35.0602Z" fill="black"/>
<path d="M13.9381 35.5298C11.2581 35.5298 9.07812 33.5998 9.07812 31.2198C9.07812 29.5898 9.76812 28.3998 10.4481 27.4498C10.6381 27.1798 11.0181 27.1198 11.2881 27.3098C11.5581 27.4998 11.6181 27.8798 11.4281 28.1498C10.8281 28.9798 10.2781 29.9298 10.2781 31.2098C10.2781 32.9198 11.9181 34.3098 13.9281 34.3098C15.0681 34.3098 19.8781 33.8198 21.1881 33.6598C21.5281 33.6198 21.8181 33.8598 21.8581 34.1898C21.8981 34.5198 21.6581 34.8198 21.3281 34.8598C20.1981 34.9898 15.2181 35.5198 13.9181 35.5198L13.9381 35.5298Z" fill="black"/>
<path d="M28.7373 35.5296C27.4473 35.5296 22.4673 35.0096 21.3273 34.8696C20.9973 34.8296 20.7573 34.5296 20.7973 34.1996C20.8373 33.8696 21.1373 33.6396 21.4673 33.6696C22.7873 33.8296 27.5873 34.3196 28.7273 34.3196C30.7373 34.3196 32.3773 32.9296 32.3773 31.2196C32.3773 29.9396 31.8273 28.9896 31.2273 28.1596C31.0373 27.8896 31.0973 27.5096 31.3673 27.3196C31.6373 27.1296 32.0173 27.1896 32.2073 27.4596C32.8873 28.4096 33.5773 29.5996 33.5773 31.2296C33.5773 33.6096 31.3973 35.5396 28.7173 35.5396L28.7373 35.5296Z" fill="black"/>
</svg>
