<svg width="47" height="39" viewBox="0 0 47 39" fill="none" xmlns="http://www.w3.org/2000/svg">
<path d="M0.589844 22.5282C0.589844 28.4282 14.5498 31.4482 14.5498 31.4482C14.5498 31.4482 17.2598 37.4882 19.8198 37.4882C22.3798 37.4882 21.9598 30.8682 21.9598 30.8682C21.9598 30.8682 25.6598 30.0082 28.0898 28.9982C30.5198 27.9882 31.9398 26.8382 31.9398 26.8382C31.9398 26.8382 34.0698 30.2582 36.6298 33.3082C39.7498 37.0282 42.1098 37.9382 43.4198 38.1882C43.9798 38.2982 44.5298 38.2282 44.5298 37.6482L44.0798 33.8682C43.9598 33.0782 44.0398 32.2782 44.3298 31.5382L45.3498 29.5482C45.7698 28.4582 45.7898 26.9682 45.1798 25.8082L44.9098 25.1582C44.4098 23.9682 44.8098 22.5382 45.3698 21.3682L45.5198 21.0682C46.2298 19.5982 46.0898 17.8482 45.1498 16.5182C44.4398 15.5082 44.1698 14.2382 44.4198 13.0282L45.1698 9.3282C45.1698 8.7382 44.6098 8.65821 44.0398 8.8082C42.3498 9.2582 40.1698 10.5082 37.4198 13.0182C34.7098 15.4982 32.1498 19.3682 32.1498 19.3682C32.1498 19.3682 31.3698 18.1682 29.9798 16.3182C29.4398 15.6082 31.2198 13.6482 31.2098 10.4782C31.1998 7.9682 29.0998 7.18821 28.8098 6.17821C28.5198 5.16821 29.7298 2.3782 29.0998 1.0782C28.2598 -0.661798 22.3998 2.2282 18.5598 7.6982C14.7198 13.1682 15.4298 12.8782 15.4298 12.8782C15.4298 12.8782 0.60984 16.6182 0.60984 22.5182L0.589844 22.5282Z" fill="white"/>
<path d="M43.82 38.8486C43.66 38.8486 43.48 38.8286 43.29 38.7886C41 38.3386 38.6 36.6186 36.16 33.6986C34.21 31.3686 32.49 28.7986 31.77 27.7086C31.13 28.1486 29.94 28.8786 28.32 29.5586C26.38 30.3686 23.68 31.0686 22.59 31.3386C22.63 32.6686 22.59 36.0486 21.29 37.4386C20.89 37.8686 20.38 38.0986 19.83 38.0986C17.21 38.0986 14.76 33.2986 14.14 31.9786C12.03 31.4886 0 28.4186 0 22.5386C0 16.6586 12.36 13.0986 14.86 12.4286C15.13 11.7286 15.96 10.3686 18.06 7.37856C21.27 2.80856 26.04 -0.181443 28.29 0.00855729C28.92 0.0585573 29.4 0.358559 29.64 0.838559C30.09 1.76856 29.82 3.11856 29.59 4.31856C29.46 4.98856 29.31 5.74856 29.39 6.03856C29.45 6.23856 29.73 6.52856 30.03 6.82856C30.78 7.57856 31.8 8.60856 31.81 10.4886C31.81 12.3586 31.25 13.7986 30.84 14.8486C30.67 15.2886 30.45 15.8486 30.48 16.0086C31.22 16.9786 31.79 17.7786 32.16 18.3086C33.05 17.0486 34.97 14.4586 37.01 12.5886C39.58 10.2386 41.89 8.76856 43.88 8.23856C44.47 8.07856 44.99 8.13856 45.34 8.40856C45.62 8.61856 45.77 8.95856 45.77 9.33856V9.45856L45.01 13.1586C44.8 14.2086 45.03 15.3086 45.64 16.1886C46.71 17.6986 46.87 19.6786 46.06 21.3486L45.92 21.6486C45.47 22.5786 45.03 23.8986 45.47 24.9386L45.74 25.5886C46.36 26.7786 46.43 28.4386 45.91 29.7786L44.86 31.8186C44.64 32.3986 44.56 33.0986 44.67 33.7786L45.13 37.6586C45.13 38.1386 44.91 38.4086 44.73 38.5586C44.5 38.7486 44.2 38.8386 43.83 38.8386L43.82 38.8486ZM32.08 25.9486L32.44 26.5286C32.44 26.5286 34.58 29.9486 37.08 32.9286C39.34 35.6386 41.51 37.2086 43.52 37.6086C43.71 37.6486 43.83 37.6486 43.9 37.6386L43.46 33.9486C43.32 33.0786 43.42 32.1686 43.75 31.3286L44.8 29.2886C45.17 28.3286 45.11 27.0186 44.63 26.0986L44.34 25.4086C43.85 24.2386 44.01 22.7986 44.81 21.1286L44.95 20.8286C45.57 19.5486 45.44 18.0386 44.63 16.8886C43.83 15.7486 43.52 14.3086 43.8 12.9286L44.52 9.35856C44.45 9.35856 44.33 9.35856 44.16 9.39856C42.36 9.88856 40.22 11.2586 37.79 13.4786C35.17 15.8786 32.65 19.6686 32.62 19.7086L32.11 20.4786L31.61 19.7086C31.61 19.7086 30.82 18.4986 29.46 16.6886C29.02 16.0986 29.31 15.3586 29.68 14.4086C30.06 13.4486 30.57 12.1286 30.56 10.4886C30.56 9.09856 29.8 8.33856 29.13 7.66856C28.72 7.24856 28.32 6.85856 28.18 6.35856C28.02 5.78856 28.18 4.99856 28.36 4.07856C28.55 3.11856 28.79 1.92856 28.51 1.36856C28.49 1.33856 28.44 1.22856 28.15 1.20856C26.49 1.06856 22.1 3.67856 19.01 8.06856C16.23 12.0186 15.96 12.7886 15.93 12.9086C15.95 12.8286 15.93 12.5986 15.74 12.4386L15.4 12.8286L15.61 13.4586L15.19 13.6286L15.15 13.5886C10.92 14.7186 1.17 18.2286 1.17 22.5486C1.17 26.8686 10.9 30.0686 14.66 30.8786L14.96 30.9386L15.09 31.2186C16.08 33.4186 18.23 36.9086 19.81 36.9086C20.03 36.9086 20.22 36.8186 20.4 36.6386C21.3 35.6786 21.46 32.6286 21.35 30.9386L21.32 30.4286L21.82 30.3086C21.82 30.3086 25.5 29.4486 27.85 28.4686C30.15 27.5086 31.54 26.4086 31.55 26.3986L32.08 25.9686V25.9486Z" fill="black"/>
<path d="M24.4496 15.3288C24.2696 12.7188 22.4096 10.5288 19.5196 10.1888C15.6896 9.73877 12.5996 12.3788 12.5996 15.7688C12.5996 16.6088 13.3096 16.9388 13.6796 16.9388H15.2796C15.8296 16.9388 16.3296 16.5588 16.3296 15.6988C16.3296 14.2688 17.9596 13.4688 19.3196 13.8388C20.1096 14.0488 21.0896 14.8488 20.8196 16.3688C20.6296 17.4588 19.3196 18.1888 18.5296 18.7388C17.2096 19.6588 16.8396 20.7188 16.8396 21.9088L16.7896 24.5988C16.7896 24.9188 17.0596 25.1888 17.4096 25.1888H19.7096C20.0496 25.1888 20.3296 24.9288 20.3296 24.6088V22.4288C20.3296 21.9688 20.6096 21.5588 21.0496 21.3488C23.3096 20.2488 24.6196 17.9488 24.4296 15.3388L24.4496 15.3288Z" fill="#59A9FC"/>
<path d="M19.7195 25.779H17.4195C17.0795 25.779 16.7595 25.639 16.5295 25.409C16.3095 25.179 16.1895 24.889 16.1995 24.579L16.2495 21.889C16.2495 20.329 16.8695 19.159 18.1995 18.239C18.2995 18.169 18.4095 18.089 18.5295 18.019C19.1995 17.569 20.1095 16.959 20.2395 16.259C20.4995 14.819 19.3095 14.459 19.1795 14.419C18.5895 14.259 17.9195 14.389 17.4595 14.739C17.2295 14.919 16.9595 15.219 16.9595 15.699C16.9595 16.969 16.0995 17.539 15.3095 17.539H13.7095C12.9995 17.539 12.0195 16.919 12.0195 15.769C12.0195 14.029 12.7495 12.419 14.0695 11.239C15.5195 9.94899 17.5395 9.34898 19.6095 9.58898C22.6595 9.94898 24.8495 12.239 25.0695 15.289C25.2695 18.139 23.8495 20.669 21.3495 21.879C21.1195 21.989 20.9695 22.199 20.9695 22.419V24.599C20.9695 25.249 20.4195 25.779 19.7395 25.779H19.7195ZM18.6395 13.139C18.9195 13.139 19.1995 13.179 19.4795 13.249C20.6295 13.559 21.7295 14.699 21.4195 16.469C21.2095 17.669 20.0495 18.449 19.1995 19.019L18.8895 19.229C17.8695 19.939 17.4595 20.709 17.4595 21.899L17.4095 24.599L19.7295 24.579L19.7495 22.429C19.7495 21.749 20.1595 21.129 20.8095 20.809C22.8595 19.819 24.0195 17.739 23.8595 15.389C23.6895 12.929 21.9195 11.089 19.4595 10.799C17.7295 10.589 16.0495 11.089 14.8595 12.149C13.7995 13.099 13.2095 14.379 13.2095 15.779C13.2095 16.289 13.6895 16.349 13.6895 16.349H15.2895C15.5895 16.349 15.7395 16.139 15.7395 15.709C15.7395 14.949 16.0895 14.269 16.7095 13.789C17.2495 13.379 17.9495 13.149 18.6495 13.149L18.6395 13.139Z" fill="black"/>
<path d="M18.4802 31.3989C19.7394 31.3989 20.7602 30.3781 20.7602 29.1189C20.7602 27.8597 19.7394 26.8389 18.4802 26.8389C17.221 26.8389 16.2002 27.8597 16.2002 29.1189C16.2002 30.3781 17.221 31.3989 18.4802 31.3989Z" fill="#59A9FC"/>
<path d="M18.4798 31.9988C16.8898 31.9988 15.5898 30.6988 15.5898 29.1088C15.5898 27.5188 16.8898 26.2188 18.4798 26.2188C20.0698 26.2188 21.3698 27.5188 21.3698 29.1088C21.3698 30.6988 20.0698 31.9988 18.4798 31.9988ZM18.4798 27.4288C17.5498 27.4288 16.7998 28.1788 16.7998 29.1088C16.7998 30.0388 17.5498 30.7887 18.4798 30.7887C19.4098 30.7887 20.1598 30.0388 20.1598 29.1088C20.1598 28.1788 19.4098 27.4288 18.4798 27.4288Z" fill="black"/>
</svg>
