<svg width="38" height="48" viewBox="0 0 38 48" fill="none" xmlns="http://www.w3.org/2000/svg">
<path d="M25.3702 13.4502H2.66016V17.0702H25.3702V13.4502Z" fill="#59A9FC"/>
<path d="M2.71973 35.1797H24.9897C24.9897 37.7497 22.8997 39.8497 20.3197 39.8497H7.38973C4.81973 39.8497 2.71973 37.7597 2.71973 35.1797Z" fill="#59A9FC"/>
<path d="M20.8396 40.0598H7.19957C4.36957 40.0598 2.05957 37.7498 2.05957 34.9198V11.4398C2.05957 8.6098 4.36957 6.2998 7.19957 6.2998H20.8396C23.6696 6.2998 25.9796 8.6098 25.9796 11.4398V34.9198C25.9796 37.7498 23.6696 40.0598 20.8396 40.0598ZM7.19957 7.49981C5.02957 7.49981 3.26957 9.26981 3.26957 11.4298V34.9098C3.26957 37.0798 5.03957 38.8398 7.19957 38.8398H20.8396C23.0096 38.8398 24.7696 37.0798 24.7696 34.9098V11.4298C24.7696 9.25981 23.0096 7.49981 20.8396 7.49981H7.19957Z" fill="black"/>
<path d="M21.9993 0.589844H6.2693C4.34182 0.589844 2.7793 2.15237 2.7793 4.07984V6.41985C2.7793 8.34732 4.34182 9.90984 6.2693 9.90984H21.9993C23.9268 9.90984 25.4893 8.34732 25.4893 6.41985V4.07984C25.4893 2.15237 23.9268 0.589844 21.9993 0.589844Z" fill="#F2F2F2"/>
<path d="M23.0197 10.52H5.24969C3.54969 10.52 2.17969 9.14 2.17969 7.45V3.07C2.17969 1.37 3.55969 0 5.24969 0H23.0197C24.7197 0 26.0897 1.38 26.0897 3.07V7.45C26.0897 9.15 24.7097 10.52 23.0197 10.52ZM5.24969 1.2C4.21969 1.2 3.37969 2.04 3.37969 3.07V7.45C3.37969 8.48 4.21969 9.32 5.24969 9.32H23.0197C24.0497 9.32 24.8897 8.48 24.8897 7.45V3.07C24.8897 2.04 24.0497 1.2 23.0197 1.2H5.24969Z" fill="black"/>
<path d="M25.5104 3.51953H2.53035C1.46996 3.51953 0.610352 4.37914 0.610352 5.43953V10.9195C0.610352 11.9799 1.46996 12.8395 2.53035 12.8395H25.5104C26.5707 12.8395 27.4304 11.9799 27.4304 10.9195V5.43953C27.4304 4.37914 26.5707 3.51953 25.5104 3.51953Z" fill="#F2F2F2"/>
<path d="M26.07 13.4499H1.97C0.89 13.4499 0 12.5699 0 11.4899V4.88992C0 3.80992 0.88 2.91992 1.97 2.91992H26.07C27.15 2.91992 28.03 3.79992 28.03 4.88992V11.4899C28.03 12.5699 27.15 13.4499 26.07 13.4499ZM1.98 4.12992C1.56 4.12992 1.22 4.46992 1.22 4.88992V11.4899C1.22 11.9099 1.56 12.2499 1.98 12.2499H26.07C26.49 12.2499 26.83 11.9099 26.83 11.4899V4.88992C26.83 4.46992 26.49 4.12992 26.07 4.12992H1.97H1.98Z" fill="black"/>
<path d="M5.01957 3.75977H3.80957V12.7998H5.01957V3.75977Z" fill="black"/>
<path d="M8.83988 3.7998H7.62988V12.8398H8.83988V3.7998Z" fill="black"/>
<path d="M12.6504 3.82031H11.4404V12.8603H12.6504V3.82031Z" fill="black"/>
<path d="M20.2803 3.83984H19.0703V12.8798H20.2803V3.83984Z" fill="black"/>
<path d="M24.0996 3.84961H22.8896V12.8896H24.0996V3.84961Z" fill="black"/>
<path d="M16.4698 3.75977H15.2598V12.7998H16.4698V3.75977Z" fill="black"/>
<path d="M12.6399 29.3506C15.7499 29.3506 17.6199 26.9806 17.6199 26.9806C17.9499 27.9206 19.1899 29.1106 19.7899 29.1106C20.7899 29.1106 20.8899 27.6506 20.8899 25.8506C20.8899 24.0506 20.7899 22.5906 19.7899 22.5906C19.1899 22.5906 17.9399 23.7706 17.6199 24.7206C17.6199 24.7206 15.6099 22.3506 12.6399 22.3506C9.66988 22.3506 7.37988 23.9206 7.37988 25.8606C7.37988 27.8006 9.73988 29.3706 12.6399 29.3706V29.3506Z" fill="#59A9FC"/>
<path d="M12.6395 29.9602C9.34953 29.9602 6.76953 28.1502 6.76953 25.8502C6.76953 23.5502 9.34953 21.7402 12.6395 21.7402C14.8895 21.7402 16.5995 22.9502 17.4595 23.7202C18.0595 22.8402 19.0595 21.9902 19.7795 21.9902C21.4795 21.9902 21.4795 24.2202 21.4795 25.8602C21.4795 27.5002 21.4795 29.7302 19.7795 29.7302C19.0595 29.7302 18.0695 28.8902 17.4695 28.0202C16.6295 28.7902 14.9595 29.9802 12.6295 29.9802L12.6395 29.9602ZM12.6395 22.9402C10.1095 22.9402 7.97953 24.2702 7.97953 25.8502C7.97953 27.4302 10.1095 28.7602 12.6395 28.7602C15.4295 28.7602 17.1195 26.6402 17.1395 26.6202L17.7695 25.8202L17.1595 25.1002C17.1595 25.1002 15.2895 22.9402 12.6395 22.9402ZM17.8595 25.8502L18.1895 26.7902C18.4595 27.5602 19.4795 28.4702 19.7995 28.5102C20.2795 28.5102 20.2795 26.5802 20.2795 25.8502C20.2795 25.1202 20.2795 23.1902 19.7895 23.1902C19.4795 23.2302 18.4595 24.1402 18.1795 24.9102L17.8495 25.8502H17.8595Z" fill="#231814"/>
<path d="M10.1394 26.1401C10.4321 26.1401 10.6694 25.9028 10.6694 25.6101C10.6694 25.3174 10.4321 25.0801 10.1394 25.0801C9.84666 25.0801 9.60938 25.3174 9.60938 25.6101C9.60938 25.9028 9.84666 26.1401 10.1394 26.1401Z" fill="black"/>
<path d="M10.1398 26.4905C9.64976 26.4905 9.25977 26.0905 9.25977 25.6105C9.25977 25.1305 9.65976 24.7305 10.1398 24.7305C10.6198 24.7305 11.0198 25.1305 11.0198 25.6105C11.0198 26.0905 10.6198 26.4905 10.1398 26.4905ZM10.1398 25.4305C10.0398 25.4305 9.95977 25.5105 9.95977 25.6105C9.95977 25.8105 10.3198 25.8105 10.3198 25.6105C10.3198 25.5105 10.2398 25.4305 10.1398 25.4305Z" fill="black"/>
<path d="M26.9385 36.6081L22.6822 38.0059C21.8216 38.2885 21.3531 39.2152 21.6357 40.0757L21.72 40.3322C22.0025 41.1928 22.9292 41.6613 23.7898 41.3787L28.0461 39.9809C28.9067 39.6983 29.3752 38.7716 29.0926 37.9111L29.0083 37.6546C28.7257 36.794 27.7991 36.3255 26.9385 36.6081Z" fill="#F2F2F2"/>
<path d="M22.9802 42.1901C22.2402 42.1901 21.5502 41.7201 21.3002 40.9701L20.9202 39.8101C20.7702 39.3601 20.8102 38.8801 21.0202 38.4601C21.2302 38.0401 21.6002 37.7301 22.0502 37.5801L27.2202 35.8801C27.6702 35.7301 28.1502 35.7701 28.5702 35.9801C28.9902 36.1901 29.3002 36.5601 29.4502 37.0001L29.8302 38.1601C30.1302 39.0901 29.6302 40.0801 28.7002 40.3901L23.5302 42.0901C23.3502 42.1501 23.1602 42.1801 22.9802 42.1801V42.1901ZM27.7602 37.0101C27.7002 37.0101 27.6402 37.0101 27.5902 37.0401L22.4202 38.7401C22.2802 38.7901 22.1602 38.8901 22.0902 39.0201C22.0202 39.1501 22.0102 39.3101 22.0602 39.4501L22.4402 40.6101C22.5402 40.9001 22.8502 41.0701 23.1502 40.9701L28.3202 39.2701C28.6102 39.1701 28.7702 38.8601 28.6802 38.5601L28.3002 37.4001C28.2202 37.1601 28.0002 37.0101 27.7702 37.0101H27.7602Z" fill="black"/>
<path d="M34.2402 47.5495C34.0802 47.5495 33.9102 47.5295 33.7502 47.4795L28.5302 45.9595C28.0802 45.8295 27.7002 45.5295 27.4802 45.1095C27.2502 44.6995 27.2002 44.2195 27.3302 43.7695L27.6702 42.5995C27.8002 42.1495 28.1002 41.7695 28.5202 41.5495C28.9302 41.3195 29.4102 41.2695 29.8602 41.3995L35.0802 42.9195C35.5302 43.0495 35.9102 43.3495 36.1302 43.7695C36.3602 44.1795 36.4102 44.6595 36.2802 45.1095L35.9402 46.2795C35.7202 47.0495 35.0102 47.5495 34.2402 47.5495ZM34.0802 46.3195C34.3702 46.4095 34.6902 46.2395 34.7702 45.9395L35.1102 44.7695C35.1502 44.6295 35.1402 44.4795 35.0602 44.3395C34.9902 44.2095 34.8702 44.1095 34.7302 44.0695L29.5102 42.5495C29.2202 42.4595 28.9002 42.6295 28.8202 42.9295L28.4802 44.0995C28.3902 44.3995 28.5602 44.7095 28.8602 44.7895L34.0802 46.3095V46.3195Z" fill="#040000"/>
<path d="M35.2497 39.3397C34.8497 39.3397 34.4497 39.1997 34.1197 38.9297L29.9597 35.4297C29.5997 35.1297 29.3797 34.6997 29.3397 34.2297C29.2997 33.7597 29.4397 33.2997 29.7497 32.9397L30.5397 31.9997C30.8397 31.6397 31.2697 31.4197 31.7397 31.3797C32.2097 31.3397 32.6697 31.4797 33.0297 31.7897L37.1897 35.2897C37.5497 35.5897 37.7697 36.0197 37.8097 36.4897C37.8497 36.9597 37.7097 37.4197 37.3997 37.7797L36.6097 38.7197C36.2597 39.1297 35.7597 39.3497 35.2597 39.3497L35.2497 39.3397ZM34.8897 37.9997C34.9997 38.0997 35.1497 38.1397 35.2997 38.1297C35.4497 38.1197 35.5797 38.0497 35.6797 37.9297L36.4697 36.9897C36.6697 36.7497 36.6397 36.3997 36.3997 36.1997L32.2397 32.6997C32.1297 32.5997 31.9797 32.5597 31.8297 32.5697C31.6797 32.5797 31.5497 32.6497 31.4497 32.7697L30.6597 33.7097C30.5597 33.8197 30.5197 33.9697 30.5297 34.1197C30.5397 34.2697 30.6097 34.3997 30.7297 34.4997L34.8897 37.9997Z" fill="#040000"/>
</svg>
