<svg width="150" height="150" viewBox="0 0 150 150" fill="none" xmlns="http://www.w3.org/2000/svg">
<circle opacity="0.4" cx="75" cy="75" r="75" fill="#69A1FF"/>
<path d="M45.4463 69.5827C45.4357 65.0477 45.4062 60.5149 45.4231 55.98C45.4378 51.8684 45.5685 47.7569 45.5327 43.6474C45.4737 37.063 47.9404 31.4897 52.4437 26.8578C62.4328 16.579 78.2283 16.3241 88.3776 26.4492C95.4278 33.4823 97.6795 42.1414 94.7489 51.6662C91.812 61.21 85.1055 67.0045 75.2893 69.113C73.668 69.4605 72.0235 69.5637 70.3622 69.5616C62.0491 69.549 53.7361 69.5574 45.4231 69.5595L45.4463 69.5827ZM71.4796 37.103C71.4775 40.1067 73.883 42.5226 76.8853 42.5311C79.8769 42.5395 82.3226 40.1235 82.3479 37.1367C82.3732 34.0805 79.9528 31.6687 76.8705 31.675C73.8556 31.6835 71.4817 34.0699 71.4796 37.103Z" fill="#3780FC"/>
<path d="M45.3961 69.598C45.3812 75.9652 45.3643 82.3344 45.3494 88.7016C45.3494 89.0504 45.3749 89.4036 45.3388 89.7503C45.2411 90.697 44.8484 91.4671 43.9101 91.833C42.976 92.1989 42.1693 91.9458 41.473 91.2586C39.8172 89.6248 38.155 87.9974 36.5034 86.3572C32.3469 82.2302 28.2094 78.0819 24.0274 73.9804C23.1209 73.0911 22.7324 72.1296 23.1973 70.9617C23.6707 69.7746 24.7088 69.5768 25.8828 69.5832C32.3936 69.6172 38.9065 69.6129 45.4173 69.6214L45.394 69.598H45.3961Z" fill="#3780FC"/>
<path d="M111.924 90.7381C110.76 95.1212 109.616 99.5072 108.426 103.883C107.347 107.851 106.157 111.789 105.128 115.767C103.481 122.143 99.6555 126.888 94.1068 130.196C81.7976 137.539 66.4745 133.697 59.2915 121.29C54.3019 112.672 54.3681 103.725 59.664 95.2836C64.9709 86.8251 72.9486 82.9638 82.9761 83.4678C84.6321 83.5517 86.2472 83.8777 87.8514 84.3097C95.8779 86.4735 103.91 88.6169 111.94 90.7664L111.924 90.7381ZM78.3712 115.373C79.1506 112.472 77.4523 109.516 74.5546 108.731C71.667 107.948 68.6794 109.649 67.882 112.528C67.0665 115.473 68.7801 118.429 71.7591 119.221C74.6734 119.993 77.5841 118.302 78.3712 115.373Z" fill="#3780FC"/>
<path d="M111.972 90.7358C113.635 84.5895 115.3 78.4417 116.962 72.2953C117.052 71.9583 117.119 71.6106 117.244 71.285C117.583 70.3959 118.162 69.7537 119.163 69.6431C120.16 69.5314 120.873 69.9847 121.368 70.8287C122.545 72.8353 123.729 74.8375 124.9 76.8493C127.847 81.9115 130.769 86.9893 133.747 92.0334C134.393 93.127 134.519 94.1563 133.768 95.1641C133.003 96.1882 131.949 96.1106 130.817 95.8006C124.537 94.0826 118.245 92.4011 111.958 90.7077L111.975 90.7364L111.972 90.7358Z" fill="#3780FC"/>
</svg>
