<svg width="296" height="228" viewBox="0 0 296 228" fill="none" xmlns="http://www.w3.org/2000/svg">
<g filter="url(#filter0_d_1693_13475)">
<circle cx="148" cy="140" r="50" fill="#00E009"/>
</g>
<path d="M144.014 135.009H147.377V137.907H144.014V146.001H140.514V127.872H144.014V135.009ZM124.436 135.802C124.436 134.59 124.736 133.505 125.338 132.548C125.94 131.582 126.76 130.83 127.799 130.292C128.847 129.754 130.005 129.485 131.272 129.485C132.529 129.485 133.673 129.754 134.703 130.292C135.742 130.83 136.558 131.582 137.15 132.548C137.752 133.505 138.053 134.59 138.053 135.802C138.053 136.996 137.752 138.076 137.15 139.042C136.558 139.999 135.742 140.751 134.703 141.298C133.673 141.845 132.529 142.118 131.272 142.118C130.005 142.118 128.847 141.845 127.799 141.298C126.76 140.751 125.94 139.999 125.338 139.042C124.736 138.076 124.436 136.996 124.436 135.802ZM127.881 144.087H131.354V149.528H144.916V152.317H127.881V144.087ZM127.881 135.802C127.872 136.458 128.013 137.037 128.305 137.538C128.606 138.03 129.016 138.413 129.535 138.687C130.055 138.951 130.634 139.083 131.272 139.083C131.91 139.083 132.484 138.951 132.994 138.687C133.514 138.413 133.919 138.03 134.211 137.538C134.512 137.037 134.662 136.458 134.662 135.802C134.662 135.127 134.512 134.544 134.211 134.052C133.919 133.55 133.514 133.168 132.994 132.903C132.484 132.639 131.91 132.511 131.272 132.521C130.634 132.511 130.055 132.639 129.535 132.903C129.016 133.168 128.606 133.55 128.305 134.052C128.013 134.544 127.872 135.127 127.881 135.802ZM168.603 146.056H165.131V137.142H161.057V134.325H165.131V127.899H168.603V146.056ZM147.494 140.45C148.816 140.04 149.923 139.438 150.816 138.646C151.71 137.843 152.375 136.937 152.812 135.925C153.25 134.904 153.473 133.842 153.482 132.739V132.356H148.478V129.567H161.986V132.356H157.037V132.767C157.028 133.76 157.233 134.735 157.652 135.692C158.072 136.64 158.71 137.497 159.566 138.263C160.423 139.019 161.485 139.603 162.752 140.013L161.029 142.774C159.689 142.337 158.536 141.694 157.57 140.847C156.613 139.99 155.857 138.987 155.301 137.839C154.726 139.124 153.934 140.236 152.922 141.175C151.91 142.114 150.693 142.82 149.271 143.294L147.494 140.45ZM152.088 144.47H155.588V149.528H169.205V152.317H152.088V144.47Z" fill="white"/>
<path d="M150.321 0.00621256C149.54 -0.0077657 148.767 0.00621256 147.993 0.00621256C147.219 0.00621256 146.445 0.00621256 145.665 0.00621256C65.0057 1.22232 0 65.3895 0 144.36C0 171.498 7.66542 196.876 21.019 218.563C23.8559 223.169 28.9495 226 34.4586 226C41.8661 226 46.2863 217.976 42.2243 211.938C29.7734 193.43 22.2942 171.457 21.628 147.826C19.665 78.5361 77.213 21.0505 148 21.0365C218.78 21.0505 276.328 78.5361 274.372 147.826C273.706 171.457 266.219 193.43 253.776 211.938C249.714 217.976 254.134 226 261.541 226C267.05 226 272.144 223.169 274.981 218.563C288.327 196.883 296 171.498 296 144.36C296 65.3895 230.994 1.21533 150.335 0.00621256H150.321Z" fill="#F1F1F1"/>
<mask id="mask0_1693_13475" style="mask-type:alpha" maskUnits="userSpaceOnUse" x="0" y="2" width="296" height="226">
<path d="M150.321 2.00621C149.54 1.99223 148.767 2.00621 147.993 2.00621C147.219 2.00621 146.445 2.00621 145.665 2.00621C65.0057 3.22232 0 67.3895 0 146.36C0 173.498 7.66542 198.876 21.019 220.563C23.8559 225.169 28.9495 228 34.4586 228C41.8661 228 46.2863 219.976 42.2243 213.938C29.7734 195.43 22.2942 173.457 21.628 149.826C19.665 80.5361 77.213 23.0505 148 23.0365C218.78 23.0505 276.328 80.5361 274.372 149.826C273.706 173.457 266.219 195.43 253.776 213.938C249.714 219.976 254.134 228 261.541 228C267.05 228 272.144 225.169 274.981 220.563C288.327 198.883 296 173.498 296 146.36C296 67.3895 230.994 3.21533 150.335 2.00621H150.321Z" fill="#F1F1F1"/>
</mask>
<g mask="url(#mask0_1693_13475)">
<path d="M55.9999 219.5C48.3332 226 32.0999 239.8 28.4999 243C0.999916 232.501 -9.00009 148 -12.0001 138.5C-15.0001 129.001 18.9999 0.500339 134 -2.99966C249 -6.49966 278.5 70.5003 293.5 91.5003C305.5 108.3 304.833 129.834 303 138.5C301.333 144.167 295.4 155.1 285 153.5C274.6 151.9 269.667 142.834 268.5 138.5C272.5 78.0003 213 35.0003 138 31.5003C62.9999 28.0003 63.9999 73.0003 38.9999 106C18.9999 132.4 41.9999 192.667 55.9999 219.5Z" fill="#00E009"/>
</g>
<defs>
<filter id="filter0_d_1693_13475" x="85.6541" y="77.6541" width="128.491" height="128.491" filterUnits="userSpaceOnUse" color-interpolation-filters="sRGB">
<feFlood flood-opacity="0" result="BackgroundImageFix"/>
<feColorMatrix in="SourceAlpha" type="matrix" values="0 0 0 0 0 0 0 0 0 0 0 0 0 0 0 0 0 0 127 0" result="hardAlpha"/>
<feOffset dx="1.89937" dy="1.89937"/>
<feGaussianBlur stdDeviation="7.12264"/>
<feComposite in2="hardAlpha" operator="out"/>
<feColorMatrix type="matrix" values="0 0 0 0 0 0 0 0 0 0 0 0 0 0 0 0 0 0 0.15 0"/>
<feBlend mode="normal" in2="BackgroundImageFix" result="effect1_dropShadow_1693_13475"/>
<feBlend mode="normal" in="SourceGraphic" in2="effect1_dropShadow_1693_13475" result="shape"/>
</filter>
</defs>
</svg>
