<svg width="274" height="120" viewBox="0 0 274 120" fill="none" xmlns="http://www.w3.org/2000/svg">
<path d="M10.1992 3.85742V6.86523H11.8672V8.13672H10.1992V11.1309H8.68164V3.85742H10.1992ZM0.300781 9.88672C1.23047 9.88672 2.30371 9.88672 3.41797 9.85938V9.2373C2.03027 9.09375 1.16895 8.52637 1.17578 7.61719C1.16895 6.61914 2.34473 6.03125 4.15625 6.03125C5.96777 6.03125 7.13672 6.61914 7.13672 7.61719C7.13672 8.5127 6.2959 9.08691 4.93555 9.23047V9.80469C5.98828 9.75 7.04785 9.66797 8.03906 9.53125L8.16211 10.4883C5.5166 10.9326 2.61816 10.9531 0.464844 10.9531L0.300781 9.88672ZM0.615234 5.73047V4.69141H3.41797V3.76172H4.93555V4.69141H7.71094V5.73047H0.615234ZM1.94141 12.6484V11.623H10.1992V14.2891H3.48633V15.082H10.6367V16.1074H1.96875V13.3457H8.68164V12.6484H1.94141ZM2.63867 7.61719C2.625 8.06152 3.19922 8.30078 4.15625 8.30078C5.11328 8.30078 5.6875 8.06152 5.6875 7.61719C5.6875 7.20703 5.11328 6.99512 4.15625 6.98828C3.19922 6.99512 2.625 7.20703 2.63867 7.61719ZM23.3691 9.77734V10.9941H12.0898V9.77734H16.9843V8.60156H13.4706V4.41797H22.0019V5.60742H14.9882V7.39844H22.0702V8.60156H18.4745V9.77734H23.3691ZM13.4023 13.9609C13.4023 12.5117 15.0224 11.6982 17.7089 11.7051C20.3749 11.6982 21.9814 12.5117 21.9882 13.9609C21.9814 15.3965 20.3749 16.21 17.7089 16.2168C15.0224 16.21 13.4023 15.3965 13.4023 13.9609ZM14.9472 13.9609C14.9404 14.6787 15.9111 15.0479 17.7089 15.041C19.4794 15.0479 20.457 14.6787 20.4706 13.9609C20.457 13.25 19.4794 12.8672 17.7089 12.8672C15.9111 12.8672 14.9404 13.25 14.9472 13.9609ZM35.035 10.0098V11.2402H23.7694V10.0098H35.035ZM24.3026 8.24609C26.8592 8.0752 28.3153 7.22754 28.5135 6.20898H24.8768V5.00586H28.6366V3.88477H30.1405V5.00586H33.9276V6.20898H30.2567C30.4481 7.22754 31.911 8.0752 34.4745 8.24609L34.0096 9.4082C31.8016 9.2373 30.1541 8.54688 29.3885 7.48047C28.6092 8.54688 26.9686 9.2373 24.7674 9.4082L24.3026 8.24609ZM25.0819 14.125C25.0819 12.7715 26.6815 12.04 29.3885 12.0332C32.0819 12.04 33.661 12.7715 33.6678 14.125C33.661 15.4717 32.0819 16.2031 29.3885 16.2031C26.6815 16.2031 25.0819 15.4717 25.0819 14.125ZM26.6268 14.125C26.62 14.7539 27.5702 15.0684 29.3885 15.0684C31.1727 15.0684 32.1366 14.7539 32.1502 14.125C32.1366 13.4893 31.1727 13.168 29.3885 13.168C27.5702 13.168 26.62 13.4893 26.6268 14.125Z" fill="#4D4D4D"/>
<path d="M4.93555 39.6348C4.92871 41.3164 5.91309 42.8545 7.84766 43.4629L7.02734 44.6523C5.68066 44.1738 4.7373 43.2715 4.21094 42.1025C3.66406 43.4492 2.63184 44.5088 1.13477 45.0352L0.328125 43.8047C2.37207 43.1348 3.39746 41.4873 3.4043 39.7031V38.5273H4.93555V39.6348ZM2.37891 47.8379C2.36523 46.334 3.97168 45.4521 6.57617 45.459C9.19434 45.4521 10.7939 46.334 10.8008 47.8379C10.7939 49.3418 9.19434 50.2031 6.57617 50.2031C3.97168 50.2031 2.36523 49.3418 2.37891 47.8379ZM3.88281 47.8379C3.87598 48.5898 4.86035 49.0068 6.57617 49.0137C8.30566 49.0068 9.2832 48.5898 9.2832 47.8379C9.2832 47.0586 8.30566 46.6416 6.57617 46.6348C4.86035 46.6416 3.87598 47.0586 3.88281 47.8379ZM6.78125 41.4941V40.25H9.24219V37.8574H10.7598V45.1309H9.24219V41.4941H6.78125ZM18.6659 38.6504C18.6659 39.1016 18.6249 39.5254 18.5429 39.9355H20.9218V37.8711H22.4394V45.2129H20.9218V43.7773H17.955V42.5469H20.9218V41.1523H18.1669C17.3329 43.0732 15.4804 44.4336 12.828 45.1445L12.2538 43.9277C15.1044 43.1826 16.7792 41.7061 17.0321 39.8945H12.9237V38.6504H18.6659ZM14.0175 46.9355V45.7324H22.4394V50.1758H20.9218V46.9355H14.0175Z" fill="#4D4D4D"/>
<path d="M10.7598 79.7598V84.2305H9.24219V80.9766H2.33789V79.7598H10.7598ZM0.943359 78.4336V72.7598H6.75391V74.8652H9.24219V71.8574H10.7598V79.1582H9.24219V76.0957H6.75391V78.4336H0.943359ZM2.46094 77.2305H5.25V73.9902H2.46094V77.2305ZM22.371 71.8574V84.2305H20.8398V71.8574H22.371ZM12.4862 77.1211C12.4794 74.4551 13.8398 72.7598 15.7128 72.7598C17.5654 72.7598 18.9325 74.4551 18.9394 77.1211C18.9325 79.8076 17.5654 81.4961 15.7128 81.4961C13.8398 81.4961 12.4794 79.8076 12.4862 77.1211ZM13.9491 77.1211C13.9491 79.0215 14.6669 80.1221 15.7128 80.1289C16.7519 80.1221 17.4628 79.0215 17.4628 77.1211C17.4628 75.2344 16.7519 74.127 15.7128 74.127C14.6669 74.127 13.9491 75.2344 13.9491 77.1211Z" fill="#4D4D4D"/>
<path d="M10.4316 106.006V107.482C10.4316 109.273 10.4316 110.982 9.88477 113.594L8.36719 113.457C8.62012 112.377 8.76367 111.427 8.8457 110.545L1.55859 110.928L1.35352 109.697L8.91406 109.41C8.94141 108.747 8.94141 108.111 8.94141 107.482V107.236H1.72266V106.006H10.4316ZM11.6758 114.4V115.645H0.410156V114.4H11.6758ZM22.412 104.857V117.217H20.8808V104.857H22.412ZM18.7206 106.17C18.7206 109.848 17.2987 112.979 12.9648 115.029L12.1718 113.812C15.4052 112.274 16.9091 110.183 17.1757 107.373H12.8007V106.17H18.7206Z" fill="#4D4D4D"/>
<rect x="59" width="215" height="18" rx="1.89937" fill="#69A1FF"/>
<path d="M66.5 14.1193C65.858 14.1193 65.3111 13.9446 64.8594 13.5952C64.4077 13.2429 64.0625 12.733 63.8239 12.0653C63.5852 11.3949 63.4659 10.5852 63.4659 9.63636C63.4659 8.69318 63.5852 7.88778 63.8239 7.22017C64.0653 6.54972 64.4119 6.03835 64.8636 5.68608C65.3182 5.33097 65.8636 5.15341 66.5 5.15341C67.1364 5.15341 67.6804 5.33097 68.1321 5.68608C68.5866 6.03835 68.9332 6.54972 69.1719 7.22017C69.4134 7.88778 69.5341 8.69318 69.5341 9.63636C69.5341 10.5852 69.4148 11.3949 69.1761 12.0653C68.9375 12.733 68.5923 13.2429 68.1406 13.5952C67.6889 13.9446 67.142 14.1193 66.5 14.1193ZM66.5 13.1818C67.1364 13.1818 67.6307 12.875 67.983 12.2614C68.3352 11.6477 68.5114 10.7727 68.5114 9.63636C68.5114 8.88068 68.4304 8.23722 68.2685 7.70597C68.1094 7.17472 67.8793 6.76989 67.5781 6.49148C67.2798 6.21307 66.9205 6.07386 66.5 6.07386C65.8693 6.07386 65.3764 6.38494 65.0213 7.0071C64.6662 7.62642 64.4886 8.50284 64.4886 9.63636C64.4886 10.392 64.5682 11.0341 64.7273 11.5625C64.8864 12.0909 65.1151 12.4929 65.4134 12.7685C65.7145 13.044 66.0767 13.1818 66.5 13.1818Z" fill="white"/>
<path d="M252.279 13.1193C251.694 13.1193 251.177 13.0156 250.728 12.8082C250.282 12.598 249.934 12.3097 249.684 11.9432C249.434 11.5739 249.311 11.1534 249.314 10.6818C249.311 10.3125 249.383 9.97159 249.531 9.65909C249.679 9.34375 249.88 9.08097 250.136 8.87074C250.395 8.65767 250.683 8.52273 251.001 8.46591V8.41477C250.583 8.30682 250.251 8.07244 250.004 7.71165C249.757 7.34801 249.635 6.93466 249.637 6.47159C249.635 6.02841 249.747 5.6321 249.974 5.28267C250.201 4.93324 250.514 4.65767 250.912 4.45597C251.312 4.25426 251.768 4.15341 252.279 4.15341C252.785 4.15341 253.237 4.25426 253.635 4.45597C254.032 4.65767 254.345 4.93324 254.572 5.28267C254.802 5.6321 254.919 6.02841 254.922 6.47159C254.919 6.93466 254.792 7.34801 254.542 7.71165C254.295 8.07244 253.967 8.30682 253.558 8.41477V8.46591C253.873 8.52273 254.157 8.65767 254.41 8.87074C254.663 9.08097 254.865 9.34375 255.015 9.65909C255.166 9.97159 255.243 10.3125 255.245 10.6818C255.243 11.1534 255.115 11.5739 254.862 11.9432C254.612 12.3097 254.264 12.598 253.818 12.8082C253.375 13.0156 252.862 13.1193 252.279 13.1193ZM252.279 12.1818C252.674 12.1818 253.015 12.1179 253.302 11.9901C253.589 11.8622 253.811 11.6818 253.967 11.4489C254.123 11.2159 254.203 10.9432 254.206 10.6307C254.203 10.3011 254.118 10.0099 253.95 9.7571C253.782 9.50426 253.554 9.3054 253.264 9.16051C252.977 9.01562 252.649 8.94318 252.279 8.94318C251.907 8.94318 251.575 9.01562 251.282 9.16051C250.993 9.3054 250.764 9.50426 250.596 9.7571C250.431 10.0099 250.35 10.3011 250.353 10.6307C250.35 10.9432 250.426 11.2159 250.579 11.4489C250.735 11.6818 250.958 11.8622 251.248 11.9901C251.538 12.1179 251.882 12.1818 252.279 12.1818ZM252.279 8.03977C252.592 8.03977 252.869 7.97727 253.11 7.85227C253.355 7.72727 253.547 7.55256 253.686 7.32812C253.825 7.10369 253.896 6.84091 253.899 6.53977C253.896 6.24432 253.826 5.98722 253.69 5.76847C253.554 5.54687 253.365 5.37642 253.123 5.2571C252.882 5.13494 252.6 5.07386 252.279 5.07386C251.953 5.07386 251.667 5.13494 251.423 5.2571C251.179 5.37642 250.99 5.54687 250.856 5.76847C250.723 5.98722 250.657 6.24432 250.66 6.53977C250.657 6.84091 250.724 7.10369 250.86 7.32812C251 7.55256 251.191 7.72727 251.436 7.85227C251.68 7.97727 251.961 8.03977 252.279 8.03977ZM259.776 13.1193C259.418 13.1136 259.06 13.0455 258.702 12.9148C258.344 12.7841 258.018 12.5639 257.722 12.2543C257.427 11.9418 257.19 11.5199 257.011 10.9886C256.832 10.4545 256.742 9.78409 256.742 8.97727C256.742 8.20455 256.815 7.51989 256.96 6.9233C257.104 6.32386 257.315 5.8196 257.59 5.41051C257.866 4.99858 258.198 4.68608 258.587 4.47301C258.979 4.25994 259.421 4.15341 259.913 4.15341C260.401 4.15341 260.836 4.25142 261.217 4.44744C261.6 4.64062 261.913 4.91051 262.154 5.2571C262.396 5.60369 262.552 6.00284 262.623 6.45455H261.583C261.487 6.0625 261.299 5.73722 261.021 5.47869C260.742 5.22017 260.373 5.09091 259.913 5.09091C259.237 5.09091 258.704 5.38494 258.315 5.97301C257.928 6.56108 257.734 7.38636 257.731 8.44886H257.799C257.958 8.20739 258.147 8.00142 258.366 7.83097C258.587 7.65767 258.832 7.52415 259.099 7.4304C259.366 7.33665 259.648 7.28977 259.947 7.28977C260.447 7.28977 260.904 7.41477 261.319 7.66477C261.734 7.91193 262.066 8.25426 262.316 8.69176C262.566 9.12642 262.691 9.625 262.691 10.1875C262.691 10.7273 262.57 11.2216 262.329 11.6705C262.087 12.1165 261.748 12.4716 261.31 12.7358C260.876 12.9972 260.364 13.125 259.776 13.1193ZM259.776 12.1818C260.134 12.1818 260.455 12.0923 260.739 11.9134C261.026 11.7344 261.252 11.4943 261.417 11.1932C261.585 10.892 261.668 10.5568 261.668 10.1875C261.668 9.8267 261.587 9.49858 261.425 9.20312C261.266 8.90483 261.046 8.66761 260.765 8.49148C260.487 8.31534 260.168 8.22727 259.81 8.22727C259.54 8.22727 259.289 8.28125 259.056 8.3892C258.823 8.49432 258.619 8.6392 258.442 8.82386C258.269 9.00852 258.133 9.22017 258.033 9.45881C257.934 9.6946 257.884 9.94318 257.884 10.2045C257.884 10.5511 257.965 10.875 258.127 11.1761C258.292 11.4773 258.516 11.7202 258.8 11.9048C259.087 12.0895 259.413 12.1818 259.776 12.1818Z" fill="white"/>
<rect x="59" y="34" width="188" height="18" rx="1.89937" fill="#69A1FF"/>
<rect x="59" y="68" width="202" height="18" rx="1.89937" fill="#69A1FF"/>
<rect x="59" y="102" width="202" height="18" rx="1.89937" fill="#69A1FF"/>
<path d="M66.5 48.1193C65.858 48.1193 65.3111 47.9446 64.8594 47.5952C64.4077 47.2429 64.0625 46.733 63.8239 46.0653C63.5852 45.3949 63.4659 44.5852 63.4659 43.6364C63.4659 42.6932 63.5852 41.8878 63.8239 41.2202C64.0653 40.5497 64.4119 40.0384 64.8636 39.6861C65.3182 39.331 65.8636 39.1534 66.5 39.1534C67.1364 39.1534 67.6804 39.331 68.1321 39.6861C68.5866 40.0384 68.9332 40.5497 69.1719 41.2202C69.4134 41.8878 69.5341 42.6932 69.5341 43.6364C69.5341 44.5852 69.4148 45.3949 69.1761 46.0653C68.9375 46.733 68.5923 47.2429 68.1406 47.5952C67.6889 47.9446 67.142 48.1193 66.5 48.1193ZM66.5 47.1818C67.1364 47.1818 67.6307 46.875 67.983 46.2614C68.3352 45.6477 68.5114 44.7727 68.5114 43.6364C68.5114 42.8807 68.4304 42.2372 68.2685 41.706C68.1094 41.1747 67.8793 40.7699 67.5781 40.4915C67.2798 40.2131 66.9205 40.0739 66.5 40.0739C65.8693 40.0739 65.3764 40.3849 65.0213 41.0071C64.6662 41.6264 64.4886 42.5028 64.4886 43.6364C64.4886 44.392 64.5682 45.0341 64.7273 45.5625C64.8864 46.0909 65.1151 46.4929 65.4134 46.7685C65.7145 47.044 66.0767 47.1818 66.5 47.1818Z" fill="white"/>
<path d="M66.5 82.1193C65.858 82.1193 65.3111 81.9446 64.8594 81.5952C64.4077 81.2429 64.0625 80.733 63.8239 80.0653C63.5852 79.3949 63.4659 78.5852 63.4659 77.6364C63.4659 76.6932 63.5852 75.8878 63.8239 75.2202C64.0653 74.5497 64.4119 74.0384 64.8636 73.6861C65.3182 73.331 65.8636 73.1534 66.5 73.1534C67.1364 73.1534 67.6804 73.331 68.1321 73.6861C68.5866 74.0384 68.9332 74.5497 69.1719 75.2202C69.4134 75.8878 69.5341 76.6932 69.5341 77.6364C69.5341 78.5852 69.4148 79.3949 69.1761 80.0653C68.9375 80.733 68.5923 81.2429 68.1406 81.5952C67.6889 81.9446 67.142 82.1193 66.5 82.1193ZM66.5 81.1818C67.1364 81.1818 67.6307 80.875 67.983 80.2614C68.3352 79.6477 68.5114 78.7727 68.5114 77.6364C68.5114 76.8807 68.4304 76.2372 68.2685 75.706C68.1094 75.1747 67.8793 74.7699 67.5781 74.4915C67.2798 74.2131 66.9205 74.0739 66.5 74.0739C65.8693 74.0739 65.3764 74.3849 65.0213 75.0071C64.6662 75.6264 64.4886 76.5028 64.4886 77.6364C64.4886 78.392 64.5682 79.0341 64.7273 79.5625C64.8864 80.0909 65.1151 80.4929 65.4134 80.7685C65.7145 81.044 66.0767 81.1818 66.5 81.1818Z" fill="white"/>
<path d="M66.5 116.119C65.858 116.119 65.3111 115.945 64.8594 115.595C64.4077 115.243 64.0625 114.733 63.8239 114.065C63.5852 113.395 63.4659 112.585 63.4659 111.636C63.4659 110.693 63.5852 109.888 63.8239 109.22C64.0653 108.55 64.4119 108.038 64.8636 107.686C65.3182 107.331 65.8636 107.153 66.5 107.153C67.1364 107.153 67.6804 107.331 68.1321 107.686C68.5866 108.038 68.9332 108.55 69.1719 109.22C69.4134 109.888 69.5341 110.693 69.5341 111.636C69.5341 112.585 69.4148 113.395 69.1761 114.065C68.9375 114.733 68.5923 115.243 68.1406 115.595C67.6889 115.945 67.142 116.119 66.5 116.119ZM66.5 115.182C67.1364 115.182 67.6307 114.875 67.983 114.261C68.3352 113.648 68.5114 112.773 68.5114 111.636C68.5114 110.881 68.4304 110.237 68.2685 109.706C68.1094 109.175 67.8793 108.77 67.5781 108.491C67.2798 108.213 66.9205 108.074 66.5 108.074C65.8693 108.074 65.3764 108.385 65.0213 109.007C64.6662 109.626 64.4886 110.503 64.4886 111.636C64.4886 112.392 64.5682 113.034 64.7273 113.562C64.8864 114.091 65.1151 114.493 65.4134 114.768C65.7145 115.044 66.0767 115.182 66.5 115.182Z" fill="white"/>
<path d="M224.616 48L228.519 40.2784V40.2102H224.019V39.2727H229.61V40.2614L225.724 48H224.616ZM231.198 48V47.233L234.079 44.0795C234.417 43.7102 234.695 43.3892 234.914 43.1165C235.133 42.8409 235.295 42.5824 235.4 42.3409C235.508 42.0966 235.562 41.8409 235.562 41.5739C235.562 41.267 235.488 41.0014 235.34 40.777C235.195 40.5526 234.997 40.3793 234.744 40.2571C234.491 40.1349 234.207 40.0739 233.892 40.0739C233.556 40.0739 233.264 40.1435 233.014 40.2827C232.767 40.419 232.575 40.6108 232.438 40.858C232.305 41.1051 232.238 41.3949 232.238 41.7273H231.232C231.232 41.2159 231.35 40.767 231.586 40.3807C231.822 39.9943 232.143 39.6932 232.549 39.4773C232.958 39.2614 233.417 39.1534 233.926 39.1534C234.437 39.1534 234.89 39.2614 235.285 39.4773C235.68 39.6932 235.99 39.9844 236.214 40.3509C236.438 40.7173 236.551 41.125 236.551 41.5739C236.551 41.8949 236.492 42.2088 236.376 42.5156C236.262 42.8196 236.063 43.1591 235.779 43.5341C235.498 43.9062 235.107 44.3608 234.607 44.8977L232.647 46.9943V47.0625H236.704V48H231.198Z" fill="white"/>
<path d="M239.639 82L243.542 74.2784V74.2102H239.042V73.2727H244.633V74.2614L240.747 82H239.639ZM248.841 82.1193C248.256 82.1193 247.739 82.0156 247.29 81.8082C246.844 81.598 246.496 81.3097 246.246 80.9432C245.996 80.5739 245.873 80.1534 245.876 79.6818C245.873 79.3125 245.945 78.9716 246.093 78.6591C246.241 78.3437 246.442 78.081 246.698 77.8707C246.956 77.6577 247.245 77.5227 247.563 77.4659V77.4148C247.145 77.3068 246.813 77.0724 246.566 76.7116C246.319 76.348 246.197 75.9347 246.199 75.4716C246.197 75.0284 246.309 74.6321 246.536 74.2827C246.763 73.9332 247.076 73.6577 247.474 73.456C247.874 73.2543 248.33 73.1534 248.841 73.1534C249.347 73.1534 249.799 73.2543 250.197 73.456C250.594 73.6577 250.907 73.9332 251.134 74.2827C251.364 74.6321 251.481 75.0284 251.483 75.4716C251.481 75.9347 251.354 76.348 251.104 76.7116C250.857 77.0724 250.529 77.3068 250.12 77.4148V77.4659C250.435 77.5227 250.719 77.6577 250.972 77.8707C251.225 78.081 251.427 78.3437 251.577 78.6591C251.728 78.9716 251.805 79.3125 251.807 79.6818C251.805 80.1534 251.677 80.5739 251.424 80.9432C251.174 81.3097 250.826 81.598 250.38 81.8082C249.937 82.0156 249.424 82.1193 248.841 82.1193ZM248.841 81.1818C249.236 81.1818 249.577 81.1179 249.864 80.9901C250.151 80.8622 250.373 80.6818 250.529 80.4489C250.685 80.2159 250.765 79.9432 250.768 79.6307C250.765 79.3011 250.68 79.0099 250.512 78.7571C250.344 78.5043 250.116 78.3054 249.826 78.1605C249.539 78.0156 249.211 77.9432 248.841 77.9432C248.469 77.9432 248.137 78.0156 247.844 78.1605C247.555 78.3054 247.326 78.5043 247.158 78.7571C246.993 79.0099 246.912 79.3011 246.915 79.6307C246.912 79.9432 246.988 80.2159 247.141 80.4489C247.297 80.6818 247.52 80.8622 247.81 80.9901C248.1 81.1179 248.444 81.1818 248.841 81.1818ZM248.841 77.0398C249.154 77.0398 249.431 76.9773 249.672 76.8523C249.917 76.7273 250.108 76.5526 250.248 76.3281C250.387 76.1037 250.458 75.8409 250.461 75.5398C250.458 75.2443 250.388 74.9872 250.252 74.7685C250.116 74.5469 249.927 74.3764 249.685 74.2571C249.444 74.1349 249.162 74.0739 248.841 74.0739C248.515 74.0739 248.229 74.1349 247.985 74.2571C247.741 74.3764 247.552 74.5469 247.418 74.7685C247.285 74.9872 247.219 75.2443 247.222 75.5398C247.219 75.8409 247.286 76.1037 247.422 76.3281C247.562 76.5526 247.753 76.7273 247.998 76.8523C248.242 76.9773 248.523 77.0398 248.841 77.0398Z" fill="white"/>
<path d="M239.639 116L243.542 108.278V108.21H239.042V107.273H244.633V108.261L240.747 116H239.639ZM248.841 116.119C248.256 116.119 247.739 116.016 247.29 115.808C246.844 115.598 246.496 115.31 246.246 114.943C245.996 114.574 245.873 114.153 245.876 113.682C245.873 113.312 245.945 112.972 246.093 112.659C246.241 112.344 246.442 112.081 246.698 111.871C246.956 111.658 247.245 111.523 247.563 111.466V111.415C247.145 111.307 246.813 111.072 246.566 110.712C246.319 110.348 246.197 109.935 246.199 109.472C246.197 109.028 246.309 108.632 246.536 108.283C246.763 107.933 247.076 107.658 247.474 107.456C247.874 107.254 248.33 107.153 248.841 107.153C249.347 107.153 249.799 107.254 250.197 107.456C250.594 107.658 250.907 107.933 251.134 108.283C251.364 108.632 251.481 109.028 251.483 109.472C251.481 109.935 251.354 110.348 251.104 110.712C250.857 111.072 250.529 111.307 250.12 111.415V111.466C250.435 111.523 250.719 111.658 250.972 111.871C251.225 112.081 251.427 112.344 251.577 112.659C251.728 112.972 251.805 113.312 251.807 113.682C251.805 114.153 251.677 114.574 251.424 114.943C251.174 115.31 250.826 115.598 250.38 115.808C249.937 116.016 249.424 116.119 248.841 116.119ZM248.841 115.182C249.236 115.182 249.577 115.118 249.864 114.99C250.151 114.862 250.373 114.682 250.529 114.449C250.685 114.216 250.765 113.943 250.768 113.631C250.765 113.301 250.68 113.01 250.512 112.757C250.344 112.504 250.116 112.305 249.826 112.161C249.539 112.016 249.211 111.943 248.841 111.943C248.469 111.943 248.137 112.016 247.844 112.161C247.555 112.305 247.326 112.504 247.158 112.757C246.993 113.01 246.912 113.301 246.915 113.631C246.912 113.943 246.988 114.216 247.141 114.449C247.297 114.682 247.52 114.862 247.81 114.99C248.1 115.118 248.444 115.182 248.841 115.182ZM248.841 111.04C249.154 111.04 249.431 110.977 249.672 110.852C249.917 110.727 250.108 110.553 250.248 110.328C250.387 110.104 250.458 109.841 250.461 109.54C250.458 109.244 250.388 108.987 250.252 108.768C250.116 108.547 249.927 108.376 249.685 108.257C249.444 108.135 249.162 108.074 248.841 108.074C248.515 108.074 248.229 108.135 247.985 108.257C247.741 108.376 247.552 108.547 247.418 108.768C247.285 108.987 247.219 109.244 247.222 109.54C247.219 109.841 247.286 110.104 247.422 110.328C247.562 110.553 247.753 110.727 247.998 110.852C248.242 110.977 248.523 111.04 248.841 111.04Z" fill="white"/>
</svg>
